<svg width="415" height="405" viewBox="0 0 415 405" fill="none" xmlns="http://www.w3.org/2000/svg">
<g opacity="0.3">
<path d="M263.397 91.0796H151.598C149.05 91.0827 146.607 92.0961 144.806 93.8976C143.004 95.6991 141.991 98.1416 141.988 100.689V349.165L140.707 349.556L113.28 357.955C111.98 358.351 110.577 358.216 109.377 357.578C108.177 356.94 107.279 355.852 106.88 354.553L25.2998 88.0749C24.9028 86.7751 25.0381 85.3708 25.676 84.1707C26.3139 82.9706 27.4022 82.0729 28.7017 81.6749L70.9655 68.7337L193.49 31.2301L235.753 18.2889C236.396 18.091 237.072 18.0218 237.742 18.0854C238.412 18.1489 239.063 18.344 239.658 18.6594C240.252 18.9748 240.778 19.4043 241.207 19.9233C241.635 20.4424 241.957 21.0408 242.154 21.6844L263.007 89.7983L263.397 91.0796Z" fill="#D7D2F7" fill-opacity="0.5"/>
<path d="M287.793 89.7971L262.66 7.70426C262.242 6.33644 261.558 5.06441 260.649 3.96088C259.739 2.85734 258.62 1.94393 257.357 1.27282C256.094 0.601713 254.711 0.186062 253.287 0.0496363C251.863 -0.0867892 250.427 0.0586834 249.059 0.477727L189.639 18.6658L67.1213 56.1758L7.70101 74.3703C4.94066 75.2179 2.62938 77.1261 1.2745 79.676C-0.0803865 82.226 -0.368183 85.2094 0.474292 87.9713L86.3727 368.531C87.057 370.76 88.438 372.712 90.3128 374.099C92.1876 375.486 94.4576 376.236 96.7898 376.238C97.8692 376.239 98.9425 376.077 99.9736 375.758L140.706 363.291L141.987 362.893V361.554L140.706 361.945L99.5958 374.534C97.1592 375.277 94.5276 375.023 92.2781 373.828C90.0286 372.633 88.3449 370.594 87.5964 368.159L1.7046 87.5933C1.33372 86.3869 1.20446 85.1192 1.32422 83.8628C1.44397 82.6063 1.81038 81.3859 2.40248 80.2713C2.99458 79.1566 3.80074 78.1698 4.77479 77.3672C5.74883 76.5646 6.87162 75.962 8.07888 75.5939L67.4991 57.3995L190.017 19.8958L249.437 1.70138C250.353 1.42193 251.305 1.27944 252.262 1.27855C254.317 1.28316 256.316 1.94557 257.967 3.16874C259.618 4.39191 260.834 6.11157 261.437 8.07584L286.454 89.7971L286.851 91.0784H288.184L287.793 89.7971Z" fill="#9490A4"/>
<path d="M78.5917 81.8848C77.3569 81.8839 76.1549 81.4874 75.162 80.7533C74.1692 80.0192 73.4377 78.9863 73.0749 77.806L64.8231 50.8527C64.6013 50.1287 64.5244 49.3681 64.5966 48.6144C64.6689 47.8606 64.8889 47.1285 65.2441 46.4598C65.5994 45.7911 66.0829 45.1989 66.667 44.7171C67.2511 44.2353 67.9244 43.8732 68.6485 43.6517L181.364 9.14388C182.826 8.69768 184.405 8.84986 185.756 9.567C187.106 10.2841 188.116 11.5077 188.565 12.969L196.817 39.9226C197.263 41.3848 197.111 42.9642 196.393 44.3142C195.676 45.6643 194.453 46.6747 192.992 47.124L80.2762 81.6318C79.7304 81.7993 79.1627 81.8846 78.5917 81.8848Z" fill="#B0A6EF"/>
<path d="M121.819 28.7988C128.895 28.7988 134.632 23.0623 134.632 15.9858C134.632 8.90943 128.895 3.17285 121.819 3.17285C114.742 3.17285 109.006 8.90943 109.006 15.9858C109.006 23.0623 114.742 28.7988 121.819 28.7988Z" fill="#B0A6EF"/>
<path d="M121.819 24.0973C126.3 24.0973 129.932 20.4647 129.932 15.9837C129.932 11.5027 126.3 7.87012 121.819 7.87012C117.338 7.87012 113.705 11.5027 113.705 15.9837C113.705 20.4647 117.338 24.0973 121.819 24.0973Z" fill="white"/>
<path d="M385.993 372.857H169.453C168.01 372.856 166.625 372.281 165.605 371.26C164.584 370.24 164.009 368.855 164.008 367.412V107.948C164.009 106.505 164.584 105.121 165.605 104.1C166.625 103.079 168.01 102.505 169.453 102.503H385.993C387.437 102.505 388.821 103.079 389.842 104.1C390.862 105.121 391.437 106.505 391.438 107.948V367.412C391.437 368.855 390.862 370.24 389.842 371.26C388.821 372.281 387.437 372.855 385.993 372.857Z" fill="#D7D2F7" fill-opacity="0.5"/>
<path d="M286.453 89.8008H151.596C148.709 89.8049 145.941 90.9536 143.9 92.9952C141.858 95.0368 140.709 97.8046 140.705 100.692V361.949L141.986 361.558V100.692C141.989 98.1441 143.003 95.7016 144.804 93.9001C146.606 92.0986 149.048 91.0852 151.596 91.0821H286.85L286.453 89.8008ZM404.012 89.8008H151.596C148.709 89.8049 145.941 90.9536 143.9 92.9952C141.858 95.0368 140.709 97.8046 140.705 100.692V394.109C140.709 396.997 141.858 399.764 143.9 401.806C145.941 403.848 148.709 404.996 151.596 405H404.012C406.899 404.996 409.667 403.848 411.709 401.806C413.75 399.764 414.899 396.997 414.903 394.109V100.692C414.899 97.8046 413.75 95.0368 411.709 92.9952C409.667 90.9536 406.899 89.8049 404.012 89.8008ZM413.622 394.109C413.619 396.657 412.605 399.1 410.804 400.901C409.002 402.703 406.56 403.716 404.012 403.719H151.596C149.048 403.716 146.606 402.703 144.804 400.901C143.003 399.1 141.989 396.657 141.986 394.109V100.692C141.989 98.1441 143.003 95.7016 144.804 93.9001C146.606 92.0986 149.048 91.0852 151.596 91.0821H404.012C406.56 91.0852 409.002 92.0986 410.804 93.9001C412.605 95.7016 413.619 98.1441 413.622 100.692V394.109Z" fill="#9490A4"/>
<path d="M336.745 117.986H218.865C217.337 117.984 215.871 117.376 214.79 116.295C213.709 115.214 213.101 113.749 213.1 112.22V84.0315C213.101 82.5028 213.709 81.0372 214.79 79.9563C215.871 78.8754 217.337 78.2673 218.865 78.2656H336.745C338.274 78.2673 339.739 78.8754 340.82 79.9563C341.901 81.0372 342.509 82.5028 342.511 84.0315V112.22C342.509 113.749 341.901 115.214 340.82 116.295C339.739 117.376 338.274 117.984 336.745 117.986Z" fill="#B0A6EF"/>
<path d="M277.805 80.1846C284.882 80.1846 290.618 74.448 290.618 67.3716C290.618 60.2952 284.882 54.5586 277.805 54.5586C270.729 54.5586 264.992 60.2952 264.992 67.3716C264.992 74.448 270.729 80.1846 277.805 80.1846Z" fill="#B0A6EF"/>
<path d="M277.804 75.178C282.115 75.178 285.609 71.6839 285.609 67.3736C285.609 63.0634 282.115 59.5693 277.804 59.5693C273.494 59.5693 270 63.0634 270 67.3736C270 71.6839 273.494 75.178 277.804 75.178Z" fill="white"/>
</g>
</svg>
