<svg width="716" height="222" viewBox="0 0 716 222" fill="none" xmlns="http://www.w3.org/2000/svg">
<path d="M0.642435 112.825C0.449414 113.022 0.453027 113.339 0.650504 113.532C0.847982 113.725 1.16454 113.721 1.35757 113.524L0.642435 112.825ZM21.2451 94.1227L20.927 93.737L21.2451 94.1227ZM45.9342 76.5755L46.1925 77.0036L45.9342 76.5755ZM79.0176 60.5323L79.19 61.0016L79.0176 60.5323ZM113.582 51.508L113.502 51.0145L113.582 51.508ZM143.703 49.0012L143.704 48.5012L143.703 49.0012ZM172.836 51.508L172.92 51.015L172.836 51.508ZM201.969 59.0282L202.126 58.5535L201.969 59.0282ZM227.152 69.0552L226.94 69.5082L227.152 69.0552ZM252.829 83.093L252.562 83.5162L252.829 83.093ZM271.099 95.6268L271.401 95.2282L271.099 95.6268ZM305.664 127.212L306.031 126.873L305.664 127.212ZM352.573 183.363L352.893 182.979L352.573 183.363ZM385.162 204.921L384.944 205.371L385.162 204.921ZM437.503 219.46L437.469 219.959L437.503 219.46ZM493.794 220.463L493.817 220.962L493.822 220.962L493.794 220.463ZM535.766 214.447L535.645 213.962L535.766 214.447ZM594.032 185.87L593.731 185.47L594.032 185.87ZM625.634 153.282L626.008 153.614L625.634 153.282ZM676.461 64.3492C676.354 64.0946 676.061 63.9751 675.806 64.0822L671.658 65.8274C671.404 65.9345 671.284 66.2277 671.391 66.4822C671.498 66.7368 671.792 66.8563 672.046 66.7492L675.733 65.1979L677.284 68.8848C677.391 69.1393 677.685 69.2588 677.939 69.1517C678.194 69.0446 678.313 68.7515 678.206 68.497L676.461 64.3492ZM1 113.174C1.35757 113.524 1.35756 113.524 1.35757 113.524C1.35757 113.524 1.35757 113.524 1.35757 113.524C1.35758 113.524 1.35759 113.524 1.35761 113.523C1.35765 113.523 1.35771 113.523 1.35779 113.523C1.35795 113.523 1.35819 113.523 1.35852 113.523C1.35918 113.522 1.36017 113.521 1.36151 113.52C1.36417 113.517 1.36818 113.513 1.37351 113.507C1.38418 113.496 1.40015 113.48 1.42126 113.458C1.46349 113.415 1.52632 113.351 1.60853 113.268C1.77295 113.101 2.0149 112.855 2.3247 112.542L1.61422 111.839C1.30354 112.152 1.06076 112.399 0.895575 112.567C0.812979 112.651 0.749779 112.715 0.707186 112.758C0.685889 112.78 0.669744 112.797 0.658902 112.808C0.653481 112.813 0.649385 112.817 0.646634 112.82C0.645259 112.822 0.64422 112.823 0.643519 112.823C0.643169 112.824 0.642903 112.824 0.642722 112.824C0.642632 112.824 0.642563 112.824 0.642515 112.824C0.642491 112.824 0.642472 112.825 0.642459 112.825C0.642452 112.825 0.642446 112.825 0.642443 112.825C0.642438 112.825 0.642435 112.825 1 113.174ZM4.29059 110.571C4.88164 109.983 5.54526 109.325 6.26565 108.616L5.56422 107.903C4.84227 108.614 4.1772 109.273 3.58486 109.863L4.29059 110.571ZM8.25176 106.673C8.89308 106.05 9.56158 105.404 10.2493 104.745L9.5573 104.023C8.86776 104.684 8.19761 105.332 7.55481 105.956L8.25176 106.673ZM12.2628 102.829C12.9308 102.199 13.6089 101.564 14.2907 100.932L13.6109 100.199C12.9267 100.833 12.2464 101.47 11.5764 102.102L12.2628 102.829ZM16.3371 99.0561C17.0318 98.4266 17.7235 97.8079 18.4054 97.2075L17.7446 96.4569C17.0586 97.0608 16.3634 97.6828 15.6657 98.315L16.3371 99.0561ZM20.5037 95.394C20.8624 95.0904 21.2159 94.7948 21.5632 94.5085L20.927 93.737C20.5761 94.0263 20.2193 94.3246 19.8577 94.6307L20.5037 95.394ZM21.5632 94.5085C21.9609 94.1806 22.3515 93.8595 22.7358 93.5449L22.1023 92.7712C21.7171 93.0866 21.3255 93.4083 20.927 93.737L21.5632 94.5085ZM25.0863 91.6376C25.8986 90.985 26.686 90.3599 27.4563 89.7567L26.8399 88.9693C26.0658 89.5754 25.2752 90.2031 24.46 90.8581L25.0863 91.6376ZM29.8511 87.9115C30.6667 87.2939 31.472 86.6957 32.2775 86.1095L31.689 85.3009C30.8782 85.891 30.0678 86.4931 29.2474 87.1143L29.8511 87.9115ZM34.7386 84.3564C35.5561 83.7865 36.3848 83.2212 37.2349 82.6531L36.6794 81.8217C35.8239 82.3933 34.9899 82.9623 34.1667 83.536L34.7386 84.3564ZM39.7629 80.9963C40.5856 80.4668 41.4348 79.9292 42.3185 79.3778L41.7892 78.5294C40.9019 79.083 40.0488 79.6232 39.2218 80.1553L39.7629 80.9963ZM44.8949 77.7902C45.319 77.5319 45.7512 77.2698 46.1925 77.0036L45.6758 76.1474C45.2335 76.4143 44.8 76.6771 44.3747 76.9362L44.8949 77.7902ZM46.1925 77.0036C46.6376 76.735 47.0761 76.4714 47.5085 76.2125L46.9948 75.3545C46.5613 75.614 46.1218 75.8783 45.6758 76.1474L46.1925 77.0036ZM50.1463 74.648C51.0517 74.1166 51.933 73.6058 52.7957 73.113L52.2997 72.2447C51.4332 72.7396 50.5486 73.2524 49.6401 73.7855L50.1463 74.648ZM55.4657 71.6133C56.3759 71.1114 57.2711 70.6277 58.1589 70.1589L57.692 69.2746C56.7985 69.7464 55.8979 70.233 54.9827 70.7377L55.4657 71.6133ZM60.8783 68.7584C61.7911 68.3004 62.7043 67.8546 63.6265 67.4172L63.1979 66.5137C62.269 66.9543 61.3491 67.4034 60.4298 67.8646L60.8783 68.7584ZM66.4039 66.1368C67.3202 65.7264 68.2528 65.3202 69.2092 64.9147L68.8189 63.9941C67.8566 64.402 66.9178 64.8109 65.9951 65.2242L66.4039 66.1368ZM72.0379 63.7456C72.959 63.3741 73.9061 63.0005 74.8849 62.6222L74.5244 61.6894C73.5414 62.0693 72.5898 62.4447 71.6638 62.8182L72.0379 63.7456ZM77.7507 61.5345C78.2227 61.3584 78.7023 61.1808 79.19 61.0016L78.8451 60.063C78.3559 60.2428 77.8748 60.4209 77.4012 60.5976L77.7507 61.5345ZM79.19 61.0016C79.6639 60.8274 80.1307 60.657 80.5909 60.4902L80.2501 59.55C79.7885 59.7174 79.3203 59.8883 78.8451 60.063L79.19 61.0016ZM83.3964 59.4898C84.3587 59.1527 85.2944 58.8318 86.2094 58.5254L85.8919 57.5772C84.9722 57.8852 84.0321 58.2076 83.0658 58.546L83.3964 59.4898ZM89.0371 57.604C89.9996 57.2996 90.9447 57.0105 91.8801 56.7347L91.5973 55.7755C90.6553 56.0533 89.704 56.3443 88.7356 56.6506L89.0371 57.604ZM94.7388 55.9245C95.6959 55.6645 96.6515 55.4162 97.6141 55.1773L97.3732 54.2067C96.4035 54.4474 95.4408 54.6975 94.4766 54.9595L94.7388 55.9245ZM100.505 54.4922C101.457 54.2772 102.423 54.0687 103.412 53.8646L103.21 52.8852C102.215 53.0905 101.243 53.3003 100.285 53.5168L100.505 54.4922ZM106.33 53.2869C107.278 53.1065 108.251 52.9282 109.255 52.7502L109.081 51.7655C108.073 51.9442 107.096 52.1233 106.143 52.3045L106.33 53.2869ZM112.191 52.2449C112.674 52.164 113.165 52.0829 113.663 52.0014L113.502 51.0145C113.002 51.0962 112.51 51.1775 112.026 51.2586L112.191 52.2449ZM113.663 52.0014C114.171 51.9184 114.669 51.8378 115.158 51.7596L115.001 50.7721C114.51 50.8505 114.01 50.9313 113.502 51.0145L113.663 52.0014ZM118.144 51.2964C119.172 51.1422 120.165 50.9996 121.133 50.8679L120.998 49.877C120.026 50.0094 119.028 50.1527 117.996 50.3074L118.144 51.2964ZM124.126 50.4863C125.139 50.3664 126.135 50.259 127.124 50.1631L127.028 49.1677C126.031 49.2643 125.029 49.3726 124.008 49.4932L124.126 50.4863ZM130.128 49.9066C131.119 49.8334 132.118 49.7711 133.137 49.7188L133.086 48.7201C132.06 48.7727 131.054 48.8356 130.054 48.9093L130.128 49.9066ZM136.15 49.5951C137.126 49.5645 138.129 49.5416 139.168 49.526L139.153 48.5261C138.109 48.5418 137.101 48.5648 136.119 48.5956L136.15 49.5951ZM142.187 49.5008C142.683 49.4996 143.187 49.4998 143.702 49.5012L143.704 48.5012C143.189 48.4998 142.682 48.4996 142.185 48.5008L142.187 49.5008ZM143.702 49.5012C144.199 49.5026 144.687 49.505 145.167 49.5085L145.174 48.5085C144.693 48.505 144.203 48.5026 143.704 48.5012L143.702 49.5012ZM148.088 49.5455C149.094 49.5642 150.064 49.5892 151.008 49.6211L151.041 48.6216C150.092 48.5896 149.117 48.5645 148.107 48.5457L148.088 49.5455ZM153.923 49.7463C154.908 49.7983 155.875 49.8596 156.834 49.9312L156.908 48.934C155.942 48.8618 154.968 48.8 153.975 48.7477L153.923 49.7463ZM159.739 50.1819C160.696 50.2756 161.659 50.3807 162.639 50.4982L162.758 49.5053C161.771 49.387 160.801 49.2811 159.837 49.1867L159.739 50.1819ZM165.533 50.8734C166.468 51.0033 167.428 51.1443 168.422 51.2974L168.574 50.309C167.576 50.1553 166.611 50.0135 165.67 49.8829L165.533 50.8734ZM171.307 51.7588C171.78 51.837 172.262 51.9177 172.752 52.0009L172.92 51.015C172.428 50.9315 171.945 50.8506 171.471 50.7722L171.307 51.7588ZM172.752 52.0009C173.257 52.0865 173.752 52.172 174.237 52.2573L174.41 51.2725C173.923 51.1867 173.426 51.101 172.92 51.015L172.752 52.0009ZM177.193 52.798C178.208 52.9917 179.187 53.1868 180.138 53.3853L180.342 52.4064C179.385 52.2067 178.401 52.0104 177.38 51.8157L177.193 52.798ZM183.069 54.0277C184.059 54.2552 185.027 54.4891 185.987 54.7317L186.232 53.7623C185.265 53.5178 184.29 53.2823 183.294 53.0531L183.069 54.0277ZM188.889 55.4985C189.843 55.7612 190.801 56.0351 191.776 56.3228L192.059 55.3636C191.079 55.0744 190.115 54.7988 189.154 54.5343L188.889 55.4985ZM194.651 57.1942C195.58 57.4826 196.533 57.7842 197.518 58.101L197.824 57.1489C196.836 56.8313 195.88 56.5287 194.948 56.2392L194.651 57.1942ZM200.38 59.031C200.849 59.185 201.326 59.3422 201.812 59.503L202.126 58.5535C201.639 58.3926 201.161 58.2351 200.691 58.0809L200.38 59.031ZM201.812 59.503C202.25 59.6476 202.679 59.7902 203.101 59.931L203.418 58.9825C202.995 58.8414 202.565 58.6985 202.126 58.5535L201.812 59.503ZM205.666 60.799C206.547 61.1016 207.396 61.398 208.221 61.6913L208.556 60.7491C207.728 60.4545 206.875 60.1569 205.99 59.8532L205.666 60.799ZM210.763 62.6144C211.621 62.9327 212.46 63.2515 213.291 63.5749L213.654 62.6429C212.818 62.3176 211.974 61.997 211.111 61.6769L210.763 62.6144ZM215.803 64.5761C216.628 64.9131 217.456 65.2589 218.298 65.618L218.691 64.6981C217.844 64.3371 217.011 63.9893 216.181 63.6503L215.803 64.5761ZM220.779 66.6959C221.58 67.0499 222.4 67.4182 223.249 67.8041L223.663 66.8937C222.811 66.5066 221.988 66.1369 221.184 65.7813L220.779 66.6959ZM225.71 68.9348C226.113 69.1218 226.523 69.3128 226.94 69.5082L227.364 68.6023C226.945 68.4066 226.534 68.2151 226.13 68.0277L225.71 68.9348ZM226.94 69.5082C227.391 69.719 227.833 69.9266 228.267 70.1313L228.694 69.2269C228.259 69.0217 227.816 68.8136 227.364 68.6023L226.94 69.5082ZM230.906 71.3897C231.812 71.827 232.685 72.2537 233.531 72.6742L233.976 71.7787C233.126 71.3563 232.25 70.9279 231.341 70.489L230.906 71.3897ZM236.137 73.9919C237.016 74.4442 237.874 74.8949 238.722 75.3498L239.195 74.4684C238.341 74.0108 237.478 73.5576 236.595 73.1028L236.137 73.9919ZM241.283 76.7515C242.124 77.2209 242.966 77.7007 243.821 78.1967L244.323 77.3317C243.463 76.8331 242.616 76.3506 241.771 75.8785L241.283 76.7515ZM246.337 79.6805C247.147 80.1662 247.978 80.6701 248.835 81.1967L249.359 80.3445C248.498 79.8161 247.665 79.3103 246.85 78.8226L246.337 79.6805ZM251.321 82.7371C251.727 82.9913 252.141 83.2509 252.562 83.5162L253.095 82.6699C252.673 82.4041 252.258 82.144 251.851 81.8891L251.321 82.7371ZM252.562 83.5162C252.97 83.7728 253.362 84.0195 253.74 84.2572L254.272 83.411C253.895 83.1732 253.503 82.9265 253.095 82.6699L252.562 83.5162ZM256.078 85.7329C256.925 86.2689 257.694 86.7582 258.412 87.2198L258.953 86.3787C258.232 85.9154 257.461 85.4247 256.613 84.8879L256.078 85.7329ZM260.725 88.7312C261.499 89.2462 262.242 89.7525 263.004 90.2843L263.576 89.4643C262.808 88.9281 262.059 88.4176 261.279 87.8988L260.725 88.7312ZM265.252 91.8879C265.942 92.389 266.675 92.9294 267.478 93.5279L268.075 92.726C267.27 92.1257 266.534 91.583 265.84 91.079L265.252 91.8879ZM269.688 95.1868C270.044 95.4554 270.413 95.7346 270.797 96.0253L271.401 95.2282C271.017 94.9372 270.647 94.6577 270.291 94.3887L269.688 95.1868ZM270.797 96.0253C271.195 96.3266 271.585 96.623 271.969 96.9148L272.574 96.1187C272.19 95.8266 271.799 95.5299 271.401 95.2282L270.797 96.0253ZM274.3 98.6942C275.102 99.3094 275.873 99.9043 276.617 100.482L277.231 99.6927C276.485 99.1132 275.712 98.517 274.909 97.9007L274.3 98.6942ZM278.92 102.287C279.71 102.912 280.47 103.52 281.205 104.115L281.835 103.339C281.096 102.74 280.333 102.13 279.541 101.503L278.92 102.287ZM283.464 105.973C284.226 106.609 284.965 107.237 285.69 107.865L286.344 107.109C285.615 106.477 284.871 105.845 284.105 105.205L283.464 105.973ZM287.879 109.799C288.6 110.448 289.314 111.105 290.029 111.776L290.713 111.046C289.993 110.371 289.275 109.71 288.548 109.056L287.879 109.799ZM292.142 113.796C292.824 114.46 293.515 115.144 294.221 115.853L294.93 115.148C294.22 114.435 293.526 113.748 292.839 113.079L292.142 113.796ZM296.27 117.939C296.927 118.617 297.602 119.319 298.298 120.051L299.023 119.361C298.324 118.627 297.647 117.923 296.988 117.243L296.27 117.939ZM300.31 122.18C300.954 122.866 301.618 123.577 302.305 124.316L303.038 123.636C302.35 122.895 301.685 122.183 301.039 121.495L300.31 122.18ZM304.297 126.467C304.625 126.822 304.957 127.183 305.296 127.55L306.031 126.873C305.693 126.506 305.36 126.144 305.032 125.789L304.297 126.467ZM305.296 127.55C305.643 127.928 305.986 128.305 306.325 128.681L307.068 128.013C306.727 127.633 306.382 127.254 306.031 126.873L305.296 127.55ZM308.333 130.966C309.004 131.746 309.658 132.524 310.296 133.299L311.068 132.664C310.425 131.883 309.767 131.1 309.092 130.314L308.333 130.966ZM312.209 135.672C312.844 136.476 313.466 137.277 314.075 138.078L314.871 137.472C314.258 136.667 313.633 135.861 312.994 135.052L312.209 135.672ZM315.906 140.52C316.514 141.343 317.112 142.165 317.702 142.986L318.514 142.401C317.921 141.578 317.321 140.753 316.711 139.926L315.906 140.52ZM319.475 145.472C320.064 146.305 320.649 147.138 321.232 147.97L322.051 147.397C321.468 146.563 320.882 145.729 320.291 144.894L319.475 145.472ZM322.984 150.475C323.568 151.31 324.152 152.144 324.741 152.979L325.559 152.403C324.971 151.569 324.387 150.736 323.804 149.902L322.984 150.475ZM326.514 155.475C327.105 156.301 327.703 157.127 328.31 157.955L329.116 157.364C328.512 156.539 327.916 155.716 327.327 154.893L326.514 155.475ZM330.14 160.415C330.751 161.223 331.373 162.032 332.008 162.843L332.795 162.226C332.164 161.42 331.545 160.615 330.938 159.812L330.14 160.415ZM333.923 165.239C334.563 166.023 335.218 166.809 335.889 167.598L336.651 166.949C335.984 166.167 335.334 165.386 334.698 164.607L333.923 165.239ZM337.903 169.908C338.574 170.661 339.263 171.417 339.971 172.175L340.702 171.492C339.999 170.74 339.316 169.99 338.649 169.243L337.903 169.908ZM342.095 174.395C342.8 175.115 343.525 175.837 344.269 176.563L344.967 175.846C344.228 175.127 343.509 174.41 342.81 173.695L342.095 174.395ZM346.489 178.676C347.225 179.361 347.981 180.048 348.757 180.739L349.422 179.992C348.651 179.306 347.901 178.624 347.17 177.943L346.489 178.676ZM351.071 182.752C351.46 183.083 351.854 183.415 352.253 183.747L352.893 182.979C352.497 182.649 352.105 182.319 351.719 181.991L351.071 182.752ZM352.253 183.747C352.614 184.048 352.973 184.346 353.332 184.642L353.968 183.87C353.611 183.576 353.252 183.278 352.893 182.979L352.253 183.747ZM355.506 186.414C356.24 187.005 356.972 187.586 357.702 188.159L358.319 187.372C357.592 186.802 356.864 186.223 356.134 185.635L355.506 186.414ZM359.922 189.874C360.67 190.444 361.418 191.004 362.168 191.556L362.761 190.751C362.016 190.202 361.272 189.645 360.528 189.079L359.922 189.874ZM364.442 193.202C365.207 193.745 365.974 194.28 366.745 194.807L367.31 193.981C366.543 193.458 365.781 192.926 365.021 192.387L364.442 193.202ZM369.078 196.369C369.86 196.882 370.647 197.388 371.441 197.886L371.973 197.04C371.185 196.544 370.403 196.042 369.627 195.533L369.078 196.369ZM373.834 199.357C374.633 199.836 375.44 200.31 376.256 200.778L376.753 199.911C375.943 199.446 375.142 198.976 374.349 198.499L373.834 199.357ZM378.705 202.151C379.521 202.597 380.346 203.038 381.182 203.474L381.645 202.588C380.814 202.154 379.995 201.716 379.186 201.273L378.705 202.151ZM383.684 204.75C384.101 204.958 384.521 205.165 384.944 205.371L385.381 204.472C384.961 204.267 384.544 204.062 384.13 203.855L383.684 204.75ZM384.944 205.371C385.406 205.596 385.864 205.818 386.317 206.037L386.752 205.136C386.299 204.917 385.843 204.696 385.381 204.472L384.944 205.371ZM389.068 207.35C390.004 207.791 390.924 208.219 391.83 208.634L392.246 207.725C391.344 207.312 390.428 206.885 389.495 206.445L389.068 207.35ZM394.61 209.882C395.556 210.298 396.49 210.7 397.416 211.087L397.802 210.164C396.882 209.779 395.953 209.381 395.013 208.967L394.61 209.882ZM400.245 212.234C401.201 212.61 402.152 212.97 403.102 213.315L403.444 212.375C402.502 212.033 401.559 211.676 400.611 211.303L400.245 212.234ZM405.988 214.32C406.955 214.641 407.925 214.948 408.902 215.241L409.189 214.283C408.221 213.993 407.261 213.689 406.303 213.371L405.988 214.32ZM411.844 216.073C412.82 216.333 413.807 216.579 414.809 216.814L415.037 215.84C414.045 215.608 413.067 215.364 412.101 215.106L411.844 216.073ZM417.795 217.466C418.778 217.666 419.778 217.855 420.799 218.034L420.971 217.049C419.96 216.872 418.968 216.684 417.995 216.486L417.795 217.466ZM423.815 218.524C424.801 218.672 425.807 218.811 426.836 218.942L426.962 217.95C425.94 217.82 424.941 217.681 423.963 217.535L423.815 218.524ZM429.868 219.297C430.857 219.404 431.869 219.504 432.904 219.597L432.994 218.602C431.964 218.508 430.958 218.409 429.975 218.303L429.868 219.297ZM435.942 219.849C436.445 219.887 436.954 219.924 437.469 219.959L437.538 218.961C437.025 218.926 436.518 218.89 436.017 218.852L435.942 219.849ZM437.469 219.959C437.998 219.995 438.52 220.031 439.037 220.066L439.105 219.069C438.588 219.034 438.066 218.998 437.538 218.961L437.469 219.959ZM442.16 220.276C443.225 220.347 444.264 220.414 445.282 220.479L445.346 219.481C444.329 219.416 443.29 219.349 442.226 219.278L442.16 220.276ZM448.411 220.672C449.474 220.735 450.515 220.796 451.536 220.852L451.592 219.854C450.572 219.797 449.532 219.737 448.471 219.674L448.411 220.672ZM454.663 221.017C455.721 221.07 456.763 221.118 457.791 221.162L457.834 220.163C456.808 220.119 455.769 220.071 454.712 220.018L454.663 221.017ZM460.923 221.285C461.975 221.322 463.017 221.355 464.056 221.382L464.082 220.383C463.047 220.355 462.007 220.323 460.958 220.286L460.923 221.285ZM467.189 221.451C468.231 221.469 469.274 221.482 470.323 221.49L470.331 220.49C469.285 220.482 468.245 220.469 467.207 220.451L467.189 221.451ZM473.457 221.5C474.489 221.498 475.532 221.491 476.59 221.48L476.58 220.48C475.524 220.491 474.484 220.498 473.455 220.5L473.457 221.5ZM479.723 221.434C480.748 221.414 481.791 221.391 482.855 221.363L482.829 220.363C481.767 220.391 480.727 220.415 479.704 220.434L479.723 221.434ZM485.991 221.27C487.011 221.237 488.051 221.2 489.117 221.159L489.078 220.16C488.015 220.201 486.976 220.238 485.958 220.271L485.991 221.27ZM492.247 221.032C492.764 221.009 493.288 220.986 493.817 220.962L493.772 219.963C493.243 219.987 492.721 220.01 492.204 220.033L492.247 221.032ZM493.794 220.463C493.822 220.962 493.822 220.962 493.822 220.962C493.823 220.962 493.823 220.962 493.823 220.962C493.823 220.962 493.823 220.962 493.823 220.962C493.823 220.962 493.823 220.962 493.823 220.962C493.823 220.962 493.824 220.962 493.824 220.962C493.825 220.962 493.827 220.962 493.829 220.962C493.833 220.962 493.84 220.961 493.848 220.961C493.865 220.96 493.89 220.958 493.923 220.956C493.988 220.952 494.086 220.947 494.214 220.939C494.471 220.923 494.848 220.898 495.336 220.864L495.267 219.867C494.782 219.9 494.406 219.925 494.152 219.94C494.025 219.948 493.928 219.954 493.864 219.958C493.831 219.96 493.807 219.961 493.791 219.962C493.782 219.963 493.776 219.963 493.772 219.963C493.77 219.964 493.769 219.964 493.768 219.964C493.767 219.964 493.767 219.964 493.767 219.964C493.767 219.964 493.767 219.964 493.766 219.964C493.766 219.964 493.766 219.964 493.766 219.964C493.766 219.964 493.766 219.964 493.794 220.463ZM498.361 220.634C499.261 220.561 500.275 220.474 501.388 220.371L501.296 219.375C500.187 219.477 499.176 219.564 498.28 219.638L498.361 220.634ZM504.414 220.078C505.375 219.98 506.385 219.873 507.436 219.756L507.325 218.762C506.278 218.879 505.271 218.985 504.312 219.083L504.414 220.078ZM510.452 219.404C511.432 219.285 512.438 219.158 513.465 219.022L513.335 218.031C512.311 218.166 511.308 218.293 510.332 218.411L510.452 219.404ZM516.476 218.608C517.466 218.466 518.47 218.317 519.484 218.16L519.331 217.171C518.321 217.328 517.321 217.477 516.335 217.618L516.476 218.608ZM522.482 217.675C523.476 217.508 524.475 217.333 525.477 217.151L525.297 216.167C524.301 216.349 523.306 216.523 522.317 216.689L522.482 217.675ZM528.464 216.582C529.459 216.384 530.453 216.178 531.442 215.964L531.231 214.987C530.247 215.2 529.259 215.404 528.269 215.601L528.464 216.582ZM534.409 215.291C534.904 215.174 535.397 215.054 535.887 214.932L535.645 213.962C535.159 214.083 534.67 214.202 534.178 214.318L534.409 215.291ZM535.887 214.932C536.375 214.81 536.859 214.688 537.339 214.566L537.091 213.597C536.614 213.719 536.132 213.84 535.645 213.962L535.887 214.932ZM540.218 213.811C541.194 213.548 542.153 213.282 543.095 213.014L542.821 212.052C541.883 212.319 540.929 212.584 539.958 212.845L540.218 213.811ZM545.958 212.173C546.922 211.881 547.869 211.584 548.802 211.283L548.495 210.332C547.568 210.631 546.626 210.925 545.668 211.216L545.958 212.173ZM551.636 210.338C552.587 210.01 553.522 209.676 554.445 209.336L554.099 208.398C553.183 208.735 552.254 209.067 551.31 209.392L551.636 210.338ZM557.237 208.269C558.169 207.9 559.089 207.523 560 207.138L559.609 206.217C558.707 206.599 557.794 206.973 556.869 207.339L557.237 208.269ZM562.736 205.938C563.645 205.526 564.546 205.104 565.441 204.671L565.005 203.771C564.118 204.2 563.225 204.619 562.323 205.028L562.736 205.938ZM568.113 203.336C568.996 202.882 569.874 202.415 570.751 201.937L570.271 201.059C569.402 201.534 568.53 201.996 567.655 202.447L568.113 203.336ZM573.356 200.474C574.211 199.981 575.067 199.476 575.924 198.956L575.406 198.101C574.555 198.616 573.706 199.118 572.857 199.608L573.356 200.474ZM578.464 197.384C579.294 196.859 580.129 196.321 580.968 195.768L580.419 194.933C579.584 195.482 578.755 196.017 577.93 196.539L578.464 197.384ZM583.451 194.108C584.26 193.557 585.076 192.993 585.901 192.416L585.327 191.597C584.506 192.172 583.694 192.733 582.888 193.281L583.451 194.108ZM588.332 190.69C589.128 190.119 589.932 189.535 590.746 188.938L590.154 188.131C589.343 188.727 588.541 189.309 587.749 189.878L588.332 190.69ZM593.136 187.167C593.532 186.871 593.931 186.572 594.333 186.269L593.731 185.47C593.331 185.772 592.933 186.071 592.537 186.366L593.136 187.167ZM594.333 186.269C594.717 185.98 595.095 185.691 595.469 185.402L594.857 184.611C594.487 184.898 594.112 185.184 593.731 185.47L594.333 186.269ZM597.706 183.625C598.454 183.014 599.183 182.403 599.896 181.789L599.243 181.031C598.537 181.639 597.815 182.245 597.074 182.85L597.706 183.625ZM602.035 179.897C602.747 179.251 603.443 178.603 604.126 177.952L603.435 177.228C602.759 177.874 602.069 178.517 601.363 179.157L602.035 179.897ZM606.168 175.957C606.844 175.281 607.508 174.601 608.164 173.917L607.442 173.225C606.791 173.904 606.131 174.579 605.461 175.249L606.168 175.957ZM610.118 171.84C610.763 171.142 611.402 170.439 612.037 169.731L611.293 169.063C610.661 169.768 610.025 170.467 609.384 171.161L610.118 171.84ZM613.927 167.599C614.549 166.889 615.171 166.173 615.795 165.45L615.038 164.797C614.416 165.518 613.796 166.232 613.175 166.94L613.927 167.599ZM617.649 163.292C618.26 162.579 618.875 161.858 619.497 161.131L618.737 160.481C618.115 161.209 617.5 161.929 616.889 162.642L617.649 163.292ZM621.346 158.972C621.955 158.262 622.573 157.544 623.201 156.82L622.445 156.165C621.816 156.891 621.197 157.609 620.587 158.32L621.346 158.972ZM625.069 154.679C625.379 154.326 625.692 153.971 626.008 153.614L625.26 152.95C624.943 153.308 624.629 153.665 624.317 154.019L625.069 154.679ZM626.008 153.614C626.338 153.242 626.667 152.866 626.995 152.485L626.238 151.832C625.912 152.209 625.586 152.582 625.26 152.95L626.008 153.614ZM628.947 150.168C629.581 149.396 630.214 148.608 630.845 147.807L630.059 147.189C629.433 147.985 628.804 148.766 628.174 149.533L628.947 150.168ZM632.686 145.421C633.289 144.624 633.889 143.816 634.487 142.996L633.679 142.407C633.085 143.222 632.488 144.025 631.889 144.817L632.686 145.421ZM636.25 140.54C636.828 139.721 637.404 138.893 637.976 138.057L637.151 137.492C636.581 138.325 636.009 139.148 635.434 139.963L636.25 140.54ZM639.662 135.558C640.218 134.724 640.771 133.882 641.32 133.034L640.481 132.491C639.933 133.335 639.383 134.173 638.83 135.004L639.662 135.558ZM642.948 130.49C643.484 129.641 644.017 128.788 644.546 127.931L643.695 127.406C643.168 128.26 642.637 129.11 642.103 129.955L642.948 130.49ZM646.118 125.355C646.638 124.494 647.154 123.63 647.666 122.764L646.805 122.255C646.295 123.119 645.781 123.98 645.262 124.838L646.118 125.355ZM649.19 120.161C649.695 119.289 650.196 118.416 650.692 117.543L649.823 117.048C649.328 117.919 648.828 118.79 648.324 119.66L649.19 120.161ZM652.173 114.914C652.664 114.034 653.15 113.155 653.631 112.278L652.754 111.797C652.274 112.672 651.789 113.549 651.299 114.426L652.173 114.914ZM655.073 109.624C655.553 108.733 656.028 107.846 656.496 106.962L655.613 106.493C655.145 107.375 654.672 108.261 654.193 109.15L655.073 109.624ZM657.9 104.294C658.367 103.398 658.829 102.507 659.283 101.623L658.394 101.166C657.94 102.048 657.48 102.937 657.013 103.832L657.9 104.294ZM660.657 98.9287C661.117 98.0204 661.569 97.1206 662.013 96.2304L661.118 95.784C660.675 96.6725 660.224 97.5706 659.765 98.4771L660.657 98.9287ZM663.351 93.5289C663.8 92.6148 664.24 91.7129 664.671 90.8247L663.771 90.3885C663.341 91.2751 662.902 92.1753 662.453 93.0877L663.351 93.5289ZM665.975 88.1154C666.419 87.1866 666.851 86.2755 667.271 85.3843L666.366 84.958C665.947 85.8477 665.516 86.7571 665.073 87.6842L665.975 88.1154ZM668.551 82.6489C668.988 81.7081 669.409 80.7941 669.814 79.9094L668.905 79.493C668.501 80.3761 668.08 81.2885 667.644 82.2275L668.551 82.6489ZM671.061 77.1675C671.494 76.209 671.903 75.2945 672.288 74.4281L671.375 74.0219C670.99 74.8866 670.582 75.7994 670.15 76.7561L671.061 77.1675ZM673.517 71.6432C673.962 70.6251 674.36 69.7044 674.71 68.8913L673.791 68.4967C673.442 69.3078 673.045 70.2265 672.6 71.2425L673.517 71.6432ZM675.89 66.1117C676.078 65.6633 676.221 65.3187 676.317 65.086C676.365 64.9696 676.402 64.8813 676.426 64.8219C676.438 64.7922 676.448 64.7698 676.454 64.7548C676.457 64.7472 676.459 64.7415 676.461 64.7377C676.461 64.7358 676.462 64.7344 676.462 64.7334C676.463 64.7329 676.463 64.7325 676.463 64.7323C676.463 64.7321 676.463 64.732 676.463 64.732C676.463 64.7319 676.463 64.7319 676.463 64.7319C676.463 64.7319 676.463 64.7319 676.463 64.7319C676.463 64.7318 676.463 64.7318 676 64.5431C675.537 64.3543 675.537 64.3543 675.537 64.3543C675.537 64.3543 675.537 64.3543 675.537 64.3543C675.537 64.3543 675.537 64.3543 675.537 64.3544C675.537 64.3544 675.537 64.3545 675.537 64.3546C675.537 64.3548 675.537 64.3551 675.536 64.3556C675.536 64.3565 675.536 64.3578 675.535 64.3597C675.533 64.3633 675.531 64.3688 675.528 64.3761C675.522 64.3908 675.513 64.4129 675.501 64.4422C675.477 64.5008 675.441 64.5884 675.393 64.704C675.298 64.9352 675.155 65.2782 674.968 65.725L675.89 66.1117Z" fill="#BAADFF"/>
<circle cx="693" cy="23" r="21.5" stroke="#BAADFF" stroke-width="3"/>
<path d="M684.5 18C684.5 18 685.5 15 687.5 15C689.5 15 690 18 690 18" stroke="#BAADFF" stroke-width="2" stroke-linecap="round"/>
<path d="M695.5 18C695.5 18 696.5 15 698.5 15C700.5 15 701 18 701 18" stroke="#BAADFF" stroke-width="2" stroke-linecap="round"/>
<path d="M684 26C684 26 687.5 32 693 32C698.5 32 702 26 702 26" stroke="#BAADFF" stroke-width="2" stroke-linecap="round"/>
</svg>
