<svg width="716" height="222" viewBox="0 0 716 222" fill="none" xmlns="http://www.w3.org/2000/svg">
<path d="M0.642176 112.825C0.449301 113.022 0.453149 113.339 0.65077 113.532C0.84839 113.725 1.16495 113.721 1.35782 113.523L0.642176 112.825ZM21.2151 94.1227L20.8967 93.7372L21.2151 94.1227ZM45.8676 76.5755L46.1262 77.0034L45.8676 76.5755ZM78.902 60.5323L79.0747 61.0015L78.902 60.5323ZM113.416 51.508L113.335 51.0145L113.416 51.508ZM143.492 49.0012L143.493 48.5012L143.492 49.0012ZM172.582 51.508L172.665 51.015L172.582 51.508ZM201.672 59.0282L201.829 58.5535L201.672 59.0282ZM226.817 69.0552L226.605 69.508L226.817 69.0552ZM252.456 83.093L252.189 83.516L252.456 83.093ZM270.699 95.6268L271.001 95.2285L270.699 95.6268ZM305.212 127.212L305.58 126.873L305.212 127.212ZM352.052 183.363L352.372 182.979L352.052 183.363ZM384.593 204.921L384.374 205.371L384.593 204.921ZM436.857 219.46L436.822 219.959L436.857 219.46ZM493.064 220.463L493.087 220.962L493.092 220.962L493.064 220.463ZM534.974 214.447L534.853 213.962L534.974 214.447ZM593.154 185.87L592.853 185.471L593.154 185.87ZM624.709 153.282L625.083 153.613L624.709 153.282ZM675.461 64.3489C675.354 64.0944 675.06 63.9751 674.806 64.0823L670.659 65.8297C670.404 65.9369 670.285 66.2301 670.392 66.4846C670.5 66.7391 670.793 66.8585 671.047 66.7512L674.733 65.198L676.287 68.8841C676.394 69.1386 676.687 69.258 676.942 69.1507C677.196 69.0435 677.315 68.7503 677.208 68.4958L675.461 64.3489ZM1 113.174C1.35782 113.523 1.35782 113.523 1.35782 113.523C1.35783 113.523 1.35783 113.523 1.35783 113.523C1.35784 113.523 1.35785 113.523 1.35787 113.523C1.35791 113.523 1.35797 113.523 1.35805 113.523C1.35821 113.523 1.35845 113.523 1.35878 113.522C1.35944 113.522 1.36043 113.521 1.36176 113.519C1.36442 113.517 1.36842 113.512 1.37375 113.507C1.3844 113.496 1.40034 113.48 1.42142 113.458C1.46359 113.415 1.52632 113.351 1.6084 113.268C1.77257 113.1 2.01415 112.855 2.32347 112.542L1.61247 111.839C1.30227 112.153 1.05986 112.399 0.894927 112.567C0.812459 112.651 0.749356 112.715 0.706828 112.759C0.685564 112.78 0.669443 112.797 0.658618 112.808C0.653205 112.814 0.649116 112.818 0.646369 112.821C0.644996 112.822 0.643958 112.823 0.643259 112.824C0.642909 112.824 0.642643 112.824 0.642463 112.825C0.642373 112.825 0.642304 112.825 0.642256 112.825C0.642232 112.825 0.642213 112.825 0.6422 112.825C0.642193 112.825 0.642187 112.825 0.642184 112.825C0.642179 112.825 0.642176 112.825 1 113.174ZM4.28635 110.571C4.8765 109.983 5.53912 109.325 6.25842 108.616L5.55646 107.904C4.83559 108.614 4.17154 109.273 3.58009 109.863L4.28635 110.571ZM8.24152 106.673C8.88187 106.05 9.54937 105.404 10.2361 104.745L9.54352 104.024C8.85501 104.685 8.18587 105.332 7.54403 105.957L8.24152 106.673ZM12.2466 102.829C12.9136 102.199 13.5907 101.564 14.2714 100.932L13.5911 100.199C12.908 100.833 12.2287 101.47 11.5596 102.103L12.2466 102.829ZM16.3149 99.0561C17.0085 98.4266 17.6992 97.8078 18.3801 97.2074L17.7188 96.4574C17.0338 97.0613 16.3396 97.6833 15.6429 98.3155L16.3149 99.0561ZM20.4755 95.3938C20.8336 95.0902 21.1867 94.7946 21.5334 94.5083L20.8967 93.7372C20.5463 94.0265 20.19 94.3249 19.8289 94.631L20.4755 95.3938ZM21.5334 94.5083C21.9305 94.1804 22.3206 93.8594 22.7042 93.5448L22.0702 92.7715C21.6856 93.0869 21.2946 93.4086 20.8967 93.7372L21.5334 94.5083ZM25.051 91.6377C25.8621 90.9851 26.6482 90.36 27.4174 89.7569L26.8003 88.9699C26.0275 89.5759 25.2381 90.2036 24.4241 90.8585L25.051 91.6377ZM29.8085 87.9118C30.6228 87.2942 31.4269 86.696 32.2311 86.1098L31.6421 85.3017C30.8325 85.8918 30.0233 86.4938 29.2042 87.115L29.8085 87.9118ZM34.6885 84.3567C35.5049 83.7868 36.3323 83.2215 37.1813 82.6534L36.6251 81.8223C35.7709 82.3939 34.9381 82.963 34.1162 83.5367L34.6885 84.3567ZM39.7056 80.9964C40.5272 80.467 41.3752 79.9293 42.2576 79.3779L41.7277 78.5298C40.8417 79.0835 39.9897 79.6236 39.1639 80.1559L39.7056 80.9964ZM44.8304 77.7901C45.2539 77.5318 45.6856 77.2697 46.1262 77.0034L45.609 76.1475C45.1672 76.4145 44.7343 76.6773 44.3096 76.9365L44.8304 77.7901ZM46.1262 77.0034C46.5706 76.7349 47.0084 76.4713 47.4401 76.2124L46.9258 75.3547C46.493 75.6143 46.0543 75.8785 45.609 76.1475L46.1262 77.0034ZM50.0737 74.6481C50.9778 74.1167 51.8576 73.606 52.719 73.1132L52.2224 72.2452C51.3573 72.7401 50.4741 73.2529 49.567 73.7859L50.0737 74.6481ZM55.3848 71.6136C56.2936 71.1117 57.1874 70.6281 58.0739 70.1593L57.6064 69.2753C56.7143 69.7471 55.8151 70.2336 54.9013 70.7383L55.3848 71.6136ZM60.7891 68.7588C61.7006 68.3008 62.6125 67.855 63.5332 67.4175L63.1041 66.5143C62.1766 66.955 61.2581 67.404 60.3401 67.8653L60.7891 68.7588ZM66.3065 66.1372C67.2216 65.7267 68.1528 65.3204 69.1078 64.915L68.717 63.9945C67.7561 64.4025 66.8187 64.8114 65.8973 65.2248L66.3065 66.1372ZM71.9325 63.7458C72.8523 63.3742 73.7981 63.0006 74.7755 62.6222L74.4145 61.6897C73.4329 62.0696 72.4826 62.4451 71.5579 62.8186L71.9325 63.7458ZM77.6374 61.5345C78.1087 61.3584 78.5876 61.1808 79.0747 61.0015L78.7293 60.0631C78.2408 60.2429 77.7603 60.421 77.2874 60.5977L77.6374 61.5345ZM79.0747 61.0015C79.5479 60.8273 80.0139 60.6569 80.4734 60.4901L80.1321 59.5501C79.6712 59.7175 79.2037 59.8884 78.7293 60.0631L79.0747 61.0015ZM83.2745 59.4898C84.2353 59.1528 85.1696 58.8319 86.0832 58.5255L85.7652 57.5774C84.8469 57.8854 83.9083 58.2078 82.9435 58.5462L83.2745 59.4898ZM88.9066 57.6042C89.8676 57.2997 90.8112 57.0107 91.7452 56.7348L91.462 55.7758C90.5214 56.0536 89.5715 56.3445 88.6046 56.6509L88.9066 57.6042ZM94.5996 55.9247C95.5553 55.6646 96.5095 55.4163 97.4706 55.1774L97.2294 54.2069C96.2611 54.4476 95.2999 54.6977 94.337 54.9598L94.5996 55.9247ZM100.358 54.4923C101.308 54.2773 102.273 54.0688 103.26 53.8647L103.057 52.8854C102.064 53.0907 101.094 53.3005 100.137 53.517L100.358 54.4923ZM106.174 53.2869C107.12 53.1066 108.092 52.9282 109.095 52.7502L108.92 51.7656C107.914 51.9443 106.938 52.1234 105.986 52.3046L106.174 53.2869ZM112.027 52.2449C112.509 52.164 112.999 52.0829 113.496 52.0014L113.335 51.0145C112.836 51.0962 112.345 51.1775 111.861 51.2586L112.027 52.2449ZM113.496 52.0014C114.003 51.9184 114.501 51.8378 114.99 51.7596L114.832 50.7721C114.341 50.8506 113.843 50.9313 113.335 51.0145L113.496 52.0014ZM117.971 51.2964C118.997 51.1422 119.989 50.9996 120.955 50.8679L120.82 49.8771C119.849 50.0094 118.853 50.1527 117.822 50.3075L117.971 51.2964ZM123.943 50.4863C124.955 50.3664 125.949 50.259 126.937 50.1631L126.841 49.1678C125.845 49.2644 124.844 49.3726 123.826 49.4932L123.943 50.4863ZM129.937 49.9066C130.927 49.8334 131.924 49.7711 132.941 49.7188L132.89 48.7201C131.865 48.7728 130.861 48.8356 129.863 48.9093L129.937 49.9066ZM135.95 49.5951C136.924 49.5645 137.925 49.5416 138.963 49.526L138.948 48.5261C137.905 48.5418 136.899 48.5648 135.919 48.5956L135.95 49.5951ZM141.978 49.5008C142.473 49.4996 142.977 49.4998 143.49 49.5012L143.493 48.5012C142.978 48.4998 142.472 48.4996 141.976 48.5008L141.978 49.5008ZM143.49 49.5012C143.987 49.5026 144.474 49.505 144.953 49.5085L144.96 48.5085C144.48 48.505 143.991 48.5026 143.493 48.5012L143.49 49.5012ZM147.87 49.5455C148.874 49.5642 149.843 49.5892 150.786 49.6211L150.819 48.6216C149.871 48.5896 148.898 48.5645 147.889 48.5457L147.87 49.5455ZM153.696 49.7463C154.68 49.7983 155.645 49.8596 156.603 49.9312L156.678 48.934C155.712 48.8618 154.74 48.8 153.749 48.7477L153.696 49.7463ZM159.504 50.182C160.46 50.2756 161.421 50.3807 162.399 50.4982L162.519 49.5053C161.533 49.387 160.565 49.2811 159.602 49.1867L159.504 50.182ZM165.289 50.8734C166.223 51.0033 167.181 51.1443 168.174 51.2974L168.326 50.309C167.329 50.1553 166.366 50.0135 165.426 49.8829L165.289 50.8734ZM171.055 51.7588C171.527 51.837 172.008 51.9176 172.498 52.0009L172.665 51.015C172.174 50.9316 171.692 50.8506 171.218 50.7722L171.055 51.7588ZM172.498 52.0009C173.002 52.0865 173.495 52.1719 173.98 52.2573L174.154 51.2725C173.667 51.1867 173.171 51.101 172.665 51.015L172.498 52.0009ZM176.931 52.7981C177.946 52.9917 178.923 53.1869 179.873 53.3853L180.077 52.4065C179.122 52.2068 178.139 52.0105 177.119 51.8158L176.931 52.7981ZM182.8 54.0277C183.788 54.2553 184.755 54.4892 185.713 54.7318L185.958 53.7624C184.993 53.518 184.019 53.2824 183.024 53.0532L182.8 54.0277ZM188.61 55.4985C189.563 55.7612 190.52 56.0352 191.494 56.3228L191.777 55.3638C190.798 55.0746 189.835 54.799 188.876 54.5345L188.61 55.4985ZM194.364 57.1943C195.292 57.4826 196.243 57.7842 197.227 58.101L197.533 57.1491C196.546 56.8315 195.592 56.5288 194.661 56.2394L194.364 57.1943ZM200.084 59.031C200.552 59.1849 201.029 59.3422 201.514 59.5029L201.829 58.5535C201.342 58.3926 200.865 58.2352 200.396 58.081L200.084 59.031ZM201.514 59.5029C201.952 59.6476 202.38 59.7902 202.801 59.9309L203.118 58.9826C202.696 58.8415 202.267 58.6985 201.829 58.5535L201.514 59.5029ZM205.362 60.799C206.242 61.1016 207.09 61.398 207.914 61.6913L208.249 60.7493C207.422 60.4546 206.571 60.1571 205.687 59.8533L205.362 60.799ZM210.452 62.6144C211.309 62.9328 212.147 63.2516 212.977 63.575L213.34 62.6432C212.505 62.3179 211.662 61.9972 210.801 61.6771L210.452 62.6144ZM215.484 64.5762C216.309 64.9132 217.136 65.259 217.976 65.618L218.369 64.6984C217.524 64.3374 216.692 63.9896 215.863 63.6506L215.484 64.5762ZM220.453 66.696C221.253 67.0499 222.072 67.4182 222.919 67.804L223.334 66.8939C222.484 66.5068 221.661 66.1371 220.858 65.7816L220.453 66.696ZM225.376 68.9347C225.779 69.1217 226.188 69.3127 226.605 69.508L227.029 68.6024C226.611 68.4067 226.201 68.2153 225.798 68.0279L225.376 68.9347ZM226.605 69.508C227.055 69.7189 227.497 69.9265 227.93 70.1312L228.357 69.227C227.923 69.0218 227.48 68.8138 227.029 68.6024L226.605 69.508ZM230.565 71.3897C231.47 71.827 232.341 72.2537 233.187 72.6743L233.632 71.779C232.783 71.3566 231.908 70.9281 231 70.4893L230.565 71.3897ZM235.789 73.992C236.666 74.4443 237.523 74.895 238.37 75.3499L238.843 74.4689C237.991 74.0113 237.129 73.558 236.247 73.1032L235.789 73.992ZM240.927 76.7516C241.767 77.2211 242.607 77.7008 243.461 78.1968L243.963 77.3322C243.105 76.8336 242.26 76.3511 241.416 75.8789L240.927 76.7516ZM245.973 79.6806C246.782 80.1662 247.611 80.6701 248.468 81.1967L248.992 80.3448C248.132 79.8165 247.3 79.3107 246.487 78.823L245.973 79.6806ZM250.949 82.737C251.355 82.9912 251.768 83.2508 252.189 83.516L252.722 82.6701C252.301 82.4043 251.887 82.1442 251.48 81.8894L250.949 82.737ZM252.189 83.516C252.596 83.7727 252.988 84.0193 253.364 84.257L253.898 83.4112C253.521 83.1734 253.129 82.9267 252.722 82.6701L252.189 83.516ZM255.7 85.7328C256.546 86.2689 257.313 86.7582 258.03 87.2198L258.571 86.3791C257.852 85.9157 257.082 85.425 256.235 84.8882L255.7 85.7328ZM260.34 88.7312C261.112 89.2462 261.855 89.7525 262.616 90.2844L263.189 89.4648C262.421 88.9285 261.673 88.4181 260.895 87.8992L260.34 88.7312ZM264.86 91.8879C265.549 92.389 266.28 92.9294 267.082 93.5278L267.68 92.7264C266.876 92.1261 266.141 91.5834 265.449 91.0795L264.86 91.8879ZM269.289 95.1867C269.645 95.4552 270.013 95.7344 270.396 96.0251L271.001 95.2285C270.617 94.9374 270.248 94.6579 269.892 94.3889L269.289 95.1867ZM270.396 96.0251C270.794 96.3265 271.184 96.6229 271.567 96.9147L272.173 96.119C271.789 95.8269 271.398 95.5301 271.001 95.2285L270.396 96.0251ZM273.895 98.6943C274.696 99.3096 275.466 99.9046 276.209 100.483L276.823 99.6935C276.078 99.1139 275.306 98.5176 274.504 97.9013L273.895 98.6943ZM278.509 102.288C279.298 102.913 280.056 103.521 280.79 104.116L281.421 103.34C280.683 102.741 279.921 102.131 279.13 101.504L278.509 102.288ZM283.046 105.973C283.807 106.61 284.545 107.238 285.268 107.866L285.924 107.11C285.195 106.479 284.453 105.846 283.688 105.206L283.046 105.973ZM287.455 109.8C288.175 110.45 288.888 111.106 289.601 111.777L290.286 111.048C289.568 110.373 288.85 109.712 288.125 109.057L287.455 109.8ZM291.711 113.797C292.392 114.461 293.082 115.145 293.787 115.854L294.496 115.149C293.788 114.437 293.095 113.749 292.409 113.081L291.711 113.797ZM295.833 117.94C296.489 118.617 297.163 119.32 297.858 120.051L298.583 119.362C297.885 118.629 297.21 117.924 296.551 117.244L295.833 117.94ZM299.867 122.18C300.51 122.866 301.173 123.577 301.859 124.316L302.592 123.636C301.905 122.896 301.241 122.184 300.596 121.496L299.867 122.18ZM303.847 126.467C304.174 126.822 304.506 127.183 304.844 127.55L305.58 126.873C305.242 126.506 304.91 126.145 304.583 125.789L303.847 126.467ZM304.844 127.55C305.191 127.928 305.534 128.305 305.872 128.681L306.616 128.013C306.275 127.634 305.93 127.254 305.58 126.873L304.844 127.55ZM307.877 130.966C308.547 131.746 309.2 132.523 309.837 133.299L310.61 132.664C309.968 131.883 309.311 131.1 308.636 130.314L307.877 130.966ZM311.747 135.672C312.382 136.475 313.002 137.277 313.611 138.077L314.407 137.472C313.795 136.667 313.171 135.861 312.532 135.052L311.747 135.672ZM315.439 140.52C316.045 141.343 316.642 142.164 317.232 142.985L318.044 142.401C317.452 141.578 316.853 140.753 316.244 139.926L315.439 140.52ZM319.002 145.471C319.59 146.304 320.174 147.137 320.756 147.969L321.576 147.396C320.993 146.563 320.408 145.729 319.819 144.894L319.002 145.471ZM322.505 150.474C323.088 151.308 323.672 152.142 324.26 152.977L325.077 152.402C324.491 151.568 323.908 150.735 323.325 149.901L322.505 150.474ZM326.029 155.473C326.619 156.299 327.216 157.125 327.822 157.952L328.629 157.362C328.026 156.538 327.431 155.714 326.843 154.892L326.029 155.473ZM329.65 160.412C330.26 161.22 330.881 162.029 331.515 162.84L332.303 162.224C331.672 161.418 331.055 160.613 330.448 159.81L329.65 160.412ZM333.427 165.236C334.066 166.02 334.72 166.807 335.39 167.595L336.152 166.947C335.486 166.164 334.837 165.384 334.203 164.605L333.427 165.236ZM337.401 169.905C338.071 170.659 338.759 171.414 339.466 172.172L340.198 171.49C339.496 170.738 338.813 169.988 338.148 169.24L337.401 169.905ZM341.587 174.393C342.292 175.113 343.015 175.835 343.758 176.561L344.456 175.845C343.719 175.125 343.001 174.408 342.302 173.693L341.587 174.393ZM345.975 178.674C346.71 179.36 347.465 180.047 348.24 180.738L348.905 179.991C348.136 179.306 347.387 178.623 346.657 177.943L345.975 178.674ZM350.551 182.751C350.94 183.083 351.333 183.414 351.732 183.747L352.372 182.979C351.977 182.649 351.586 182.319 351.2 181.99L350.551 182.751ZM351.732 183.747C352.092 184.048 352.451 184.346 352.809 184.642L353.446 183.871C353.089 183.576 352.731 183.279 352.372 182.979L351.732 183.747ZM354.98 186.413C355.713 187.004 356.443 187.586 357.172 188.158L357.79 187.372C357.064 186.802 356.337 186.223 355.608 185.635L354.98 186.413ZM359.388 189.873C360.136 190.443 360.883 191.003 361.631 191.555L362.225 190.75C361.481 190.202 360.738 189.644 359.995 189.078L359.388 189.873ZM363.902 193.201C364.665 193.744 365.431 194.279 366.201 194.806L366.766 193.981C366.001 193.457 365.24 192.926 364.482 192.386L363.902 193.201ZM368.531 196.368C369.311 196.881 370.097 197.387 370.89 197.885L371.423 197.039C370.635 196.544 369.855 196.042 369.08 195.533L368.531 196.368ZM373.28 199.356C374.077 199.836 374.883 200.309 375.698 200.777L376.196 199.91C375.387 199.445 374.587 198.975 373.795 198.499L373.28 199.356ZM378.144 202.15C378.958 202.596 379.782 203.037 380.618 203.474L381.081 202.588C380.251 202.154 379.433 201.716 378.625 201.273L378.144 202.15ZM383.116 204.75C383.532 204.958 383.952 205.165 384.374 205.371L384.812 204.472C384.393 204.267 383.976 204.062 383.562 203.855L383.116 204.75ZM384.374 205.371C384.836 205.596 385.293 205.817 385.746 206.036L386.181 205.136C385.729 204.918 385.273 204.696 384.812 204.472L384.374 205.371ZM388.492 207.349C389.426 207.791 390.345 208.219 391.25 208.633L391.666 207.724C390.765 207.311 389.851 206.885 388.919 206.445L388.492 207.349ZM394.025 209.882C394.969 210.297 395.902 210.699 396.826 211.086L397.213 210.163C396.294 209.779 395.367 209.38 394.428 208.966L394.025 209.882ZM399.651 212.233C400.606 212.609 401.555 212.969 402.504 213.314L402.846 212.375C401.906 212.032 400.964 211.675 400.017 211.303L399.651 212.233ZM405.385 214.319C406.351 214.64 407.319 214.947 408.295 215.24L408.583 214.282C407.616 213.992 406.657 213.689 405.701 213.37L405.385 214.319ZM411.233 216.072C412.207 216.332 413.193 216.579 414.194 216.813L414.422 215.84C413.431 215.608 412.455 215.363 411.49 215.106L411.233 216.072ZM417.176 217.466C418.157 217.666 419.156 217.855 420.175 218.034L420.348 217.049C419.337 216.872 418.348 216.684 417.375 216.486L417.176 217.466ZM423.187 218.524C424.171 218.671 425.176 218.811 426.203 218.942L426.33 217.95C425.309 217.82 424.312 217.681 423.335 217.535L423.187 218.524ZM429.231 219.297C430.22 219.404 431.23 219.504 432.264 219.597L432.354 218.601C431.325 218.508 430.321 218.409 429.339 218.303L429.231 219.297ZM435.297 219.849C435.8 219.887 436.308 219.924 436.822 219.959L436.891 218.961C436.379 218.926 435.873 218.89 435.373 218.852L435.297 219.849ZM436.822 219.959C437.35 219.995 437.872 220.031 438.388 220.066L438.456 219.069C437.94 219.034 437.419 218.998 436.891 218.961L436.822 219.959ZM441.507 220.276C442.57 220.347 443.608 220.414 444.624 220.479L444.687 219.481C443.672 219.416 442.635 219.349 441.573 219.278L441.507 220.276ZM447.748 220.672C448.809 220.735 449.849 220.796 450.869 220.852L450.924 219.854C449.906 219.797 448.868 219.737 447.808 219.674L447.748 220.672ZM453.99 221.017C455.047 221.07 456.087 221.118 457.114 221.162L457.157 220.163C456.133 220.119 455.095 220.071 454.04 220.018L453.99 221.017ZM460.242 221.285C461.292 221.322 462.333 221.355 463.37 221.382L463.396 220.383C462.362 220.355 461.324 220.323 460.277 220.286L460.242 221.285ZM466.499 221.451C467.539 221.469 468.58 221.482 469.628 221.49L469.636 220.49C468.591 220.482 467.553 220.469 466.516 220.451L466.499 221.451ZM472.757 221.5C473.788 221.498 474.829 221.491 475.886 221.48L475.875 220.48C474.821 220.491 473.783 220.498 472.755 220.5L472.757 221.5ZM479.014 221.434C480.037 221.414 481.079 221.391 482.142 221.363L482.115 220.363C481.055 220.391 480.016 220.415 478.995 220.434L479.014 221.434ZM485.273 221.27C486.291 221.237 487.33 221.2 488.394 221.159L488.355 220.16C487.293 220.201 486.256 220.238 485.24 220.271L485.273 221.27ZM491.519 221.032C492.036 221.009 492.558 220.986 493.087 220.962L493.042 219.963C492.514 219.987 491.992 220.01 491.476 220.033L491.519 221.032ZM493.064 220.463C493.092 220.962 493.092 220.962 493.092 220.962H493.092C493.093 220.962 493.093 220.962 493.093 220.962C493.093 220.962 493.093 220.962 493.093 220.962C493.093 220.962 493.094 220.962 493.094 220.962C493.095 220.962 493.097 220.962 493.099 220.962C493.103 220.962 493.11 220.961 493.118 220.961C493.135 220.96 493.16 220.958 493.193 220.956C493.258 220.952 493.356 220.947 493.484 220.939C493.74 220.923 494.117 220.898 494.604 220.864L494.534 219.867C494.05 219.9 493.675 219.925 493.421 219.94C493.294 219.948 493.198 219.954 493.133 219.958C493.101 219.96 493.077 219.961 493.06 219.962C493.052 219.963 493.046 219.963 493.042 219.963C493.04 219.964 493.039 219.964 493.038 219.964C493.037 219.964 493.037 219.964 493.037 219.964C493.036 219.964 493.036 219.964 493.036 219.964C493.036 219.964 493.036 219.964 493.036 219.964C493.036 219.964 493.036 219.964 493.064 220.463ZM497.625 220.634C498.523 220.561 499.536 220.474 500.647 220.371L500.555 219.375C499.448 219.477 498.438 219.564 497.543 219.638L497.625 220.634ZM503.668 220.078C504.628 219.98 505.637 219.873 506.686 219.756L506.575 218.762C505.529 218.879 504.524 218.985 503.567 219.083L503.668 220.078ZM509.698 219.404C510.677 219.285 511.681 219.158 512.707 219.022L512.576 218.031C511.554 218.166 510.553 218.293 509.577 218.411L509.698 219.404ZM515.713 218.608C516.702 218.466 517.704 218.317 518.717 218.16L518.563 217.171C517.555 217.328 516.556 217.477 515.571 217.618L515.713 218.608ZM521.71 217.675C522.703 217.508 523.7 217.333 524.701 217.15L524.521 216.167C523.525 216.349 522.532 216.523 521.544 216.689L521.71 217.675ZM527.683 216.582C528.677 216.384 529.669 216.178 530.657 215.964L530.445 214.987C529.463 215.2 528.477 215.404 527.488 215.601L527.683 216.582ZM533.62 215.291C534.114 215.174 534.605 215.054 535.095 214.932L534.853 213.962C534.367 214.083 533.879 214.202 533.388 214.318L533.62 215.291ZM535.095 214.932C535.582 214.81 536.066 214.688 536.545 214.566L536.297 213.597C535.82 213.719 535.339 213.84 534.853 213.962L535.095 214.932ZM539.42 213.811C540.395 213.548 541.353 213.282 542.294 213.013L542.019 212.052C541.083 212.319 540.13 212.583 539.16 212.845L539.42 213.811ZM545.153 212.172C546.116 211.88 547.062 211.584 547.993 211.283L547.686 210.331C546.76 210.63 545.82 210.925 544.862 211.215L545.153 212.172ZM550.824 210.337C551.773 210.009 552.707 209.675 553.629 209.334L553.282 208.396C552.368 208.734 551.44 209.066 550.497 209.391L550.824 210.337ZM556.417 208.267C557.348 207.899 558.267 207.522 559.176 207.136L558.785 206.216C557.884 206.598 556.972 206.972 556.049 207.338L556.417 208.267ZM561.908 205.937C562.816 205.524 563.716 205.102 564.609 204.669L564.173 203.769C563.287 204.199 562.395 204.617 561.495 205.026L561.908 205.937ZM567.277 203.334C568.159 202.88 569.036 202.413 569.911 201.934L569.431 201.057C568.563 201.532 567.693 201.995 566.819 202.446L567.277 203.334ZM572.512 200.472C573.366 199.979 574.22 199.473 575.077 198.954L574.558 198.099C573.708 198.615 572.86 199.117 572.012 199.606L572.512 200.472ZM577.612 197.382C578.441 196.857 579.274 196.319 580.113 195.766L579.563 194.931C578.729 195.48 577.901 196.015 577.077 196.537L577.612 197.382ZM582.591 194.106C583.399 193.555 584.214 192.992 585.037 192.414L584.462 191.596C583.643 192.171 582.832 192.732 582.028 193.279L582.591 194.106ZM587.464 190.689C588.258 190.118 589.061 189.534 589.873 188.937L589.281 188.131C588.471 188.726 587.671 189.308 586.88 189.877L587.464 190.689ZM592.26 187.167C592.656 186.871 593.054 186.571 593.455 186.269L592.853 185.471C592.453 185.772 592.055 186.071 591.661 186.366L592.26 187.167ZM593.455 186.269C593.838 185.98 594.216 185.691 594.589 185.402L593.977 184.611C593.607 184.898 593.232 185.184 592.853 185.471L593.455 186.269ZM596.824 183.624C597.571 183.013 598.299 182.402 599.01 181.788L598.357 181.031C597.652 181.639 596.931 182.245 596.191 182.85L596.824 183.624ZM601.147 179.896C601.858 179.25 602.553 178.602 603.234 177.95L602.543 177.227C601.868 177.873 601.179 178.516 600.474 179.156L601.147 179.896ZM605.273 175.955C605.948 175.279 606.612 174.599 607.266 173.915L606.544 173.224C605.894 173.903 605.235 174.578 604.566 175.248L605.273 175.955ZM609.218 171.838C609.862 171.14 610.5 170.437 611.134 169.729L610.389 169.062C609.758 169.767 609.123 170.466 608.483 171.16L609.218 171.838ZM613.021 167.598C613.642 166.887 614.263 166.172 614.886 165.449L614.128 164.796C613.507 165.517 612.888 166.231 612.268 166.939L613.021 167.598ZM616.737 163.291C617.347 162.578 617.961 161.857 618.582 161.13L617.821 160.481C617.2 161.208 616.587 161.928 615.977 162.641L616.737 163.291ZM620.428 158.971C621.036 158.261 621.653 157.544 622.28 156.819L621.524 156.165C620.896 156.891 620.278 157.609 619.668 158.32L620.428 158.971ZM624.145 154.679C624.455 154.325 624.768 153.97 625.083 153.613L624.334 152.951C624.018 153.309 623.704 153.665 623.393 154.019L624.145 154.679ZM625.083 153.613C625.412 153.242 625.741 152.865 626.069 152.485L625.311 151.832C624.986 152.209 624.66 152.582 624.334 152.951L625.083 153.613ZM628.018 150.167C628.652 149.394 629.284 148.607 629.914 147.805L629.128 147.188C628.502 147.984 627.874 148.766 627.245 149.532L628.018 150.167ZM631.753 145.418C632.354 144.622 632.954 143.813 633.551 142.994L632.743 142.405C632.149 143.22 631.553 144.024 630.955 144.816L631.753 145.418ZM635.312 140.537C635.889 139.718 636.464 138.89 637.035 138.054L636.21 137.49C635.641 138.322 635.069 139.146 634.495 139.96L635.312 140.537ZM638.719 135.555C639.274 134.72 639.826 133.878 640.374 133.031L639.535 132.487C638.988 133.332 638.439 134.17 637.886 135.001L638.719 135.555ZM642 130.486C642.536 129.637 643.068 128.784 643.596 127.927L642.745 127.402C642.218 128.256 641.688 129.107 641.154 129.952L642 130.486ZM645.166 125.351C645.685 124.49 646.2 123.626 646.711 122.76L645.85 122.252C645.341 123.115 644.827 123.976 644.309 124.835L645.166 125.351ZM648.232 120.157C648.737 119.284 649.237 118.411 649.733 117.538L648.863 117.045C648.369 117.915 647.87 118.786 647.367 119.656L648.232 120.157ZM651.211 114.909C651.701 114.029 652.187 113.15 652.667 112.273L651.79 111.793C651.311 112.668 650.827 113.545 650.337 114.422L651.211 114.909ZM654.107 109.62C654.586 108.729 655.06 107.841 655.528 106.958L654.644 106.49C654.178 107.371 653.705 108.257 653.226 109.146L654.107 109.62ZM656.929 104.29C657.396 103.394 657.857 102.503 658.311 101.619L657.421 101.162C656.968 102.045 656.509 102.934 656.042 103.828L656.929 104.29ZM659.683 98.9249C660.142 98.0167 660.593 97.1169 661.036 96.2268L660.141 95.7809C659.699 96.6693 659.248 97.5674 658.79 98.4738L659.683 98.9249ZM662.372 93.5254C662.821 92.6114 663.26 91.7096 663.69 90.8214L662.79 90.3858C662.361 91.2723 661.922 92.1725 661.474 93.0848L662.372 93.5254ZM664.992 88.1125C665.435 87.1837 665.866 86.2728 666.286 85.3815L665.381 84.9558C664.962 85.8454 664.532 86.7547 664.089 87.6818L664.992 88.1125ZM667.564 82.6464C668 81.7058 668.421 80.7919 668.825 79.9073L667.916 79.4914C667.512 80.3744 667.092 81.2866 666.656 82.2256L667.564 82.6464ZM670.07 77.1656C670.502 76.2072 670.911 75.2928 671.295 74.4265L670.381 74.0207C669.997 74.8854 669.589 75.7981 669.158 76.7547L670.07 77.1656ZM672.522 71.6419C672.966 70.624 673.364 69.7034 673.713 68.8905L672.793 68.4964C672.446 69.3074 672.049 70.2259 671.605 71.2417L672.522 71.6419ZM674.891 66.1112C675.079 65.6628 675.222 65.3183 675.318 65.0857C675.366 64.9694 675.402 64.881 675.426 64.8217C675.438 64.792 675.448 64.7696 675.454 64.7545C675.457 64.747 675.459 64.7413 675.461 64.7375C675.461 64.7356 675.462 64.7341 675.462 64.7331C675.463 64.7326 675.463 64.7323 675.463 64.732C675.463 64.7319 675.463 64.7318 675.463 64.7317C675.463 64.7317 675.463 64.7317 675.463 64.7316C675.463 64.7316 675.463 64.7316 675.463 64.7316C675.463 64.7316 675.463 64.7316 675 64.5431C674.537 64.3546 674.537 64.3546 674.537 64.3546C674.537 64.3546 674.537 64.3546 674.537 64.3546C674.537 64.3546 674.537 64.3546 674.537 64.3546C674.537 64.3547 674.537 64.3547 674.537 64.3548C674.537 64.3551 674.537 64.3554 674.536 64.3558C674.536 64.3567 674.535 64.3581 674.535 64.3599C674.533 64.3635 674.531 64.369 674.528 64.3764C674.522 64.3911 674.513 64.4131 674.501 64.4424C674.477 64.5011 674.441 64.5886 674.393 64.7042C674.298 64.9353 674.156 65.2783 673.969 65.725L674.891 66.1112Z" fill="#BAADFF"/>
<circle cx="693" cy="23" r="21.5" stroke="#BAADFF" stroke-width="3"/>
<path d="M684.5 18C684.5 18 685.5 15 687.5 15C689.5 15 690 18 690 18" stroke="#BAADFF" stroke-width="2" stroke-linecap="round"/>
<path d="M695.5 18C695.5 18 696.5 15 698.5 15C700.5 15 701 18 701 18" stroke="#BAADFF" stroke-width="2" stroke-linecap="round"/>
<path d="M684 26C684 26 687.5 32 693 32C698.5 32 702 26 702 26" stroke="#BAADFF" stroke-width="2" stroke-linecap="round"/>
</svg>
