<svg width="1152" height="578" viewBox="0 0 1152 578" fill="none" xmlns="http://www.w3.org/2000/svg">
<path d="M6.5 172C3.84229 171.132 0 169 0 169V0H319.5C319.5 0 309.252 17.5282 301 27.5C296.243 33.248 293.489 36.447 288 41.5C283.916 45.259 281.467 47.2059 277 50.5C268.052 57.0983 262.549 60.2431 252.5 65C245.29 68.4131 241.123 70.151 233.5 72.5C222.484 75.8944 204.5 78 204.5 78C204.5 78 183.821 81.5831 171 85.5C157.753 89.5469 150.439 92.4073 138 98.5C127.473 103.656 121.863 107.165 112 113.5C97.4434 122.849 90.13 129.345 76.5 140C69.6047 145.39 66.0461 148.809 59 154C53.4621 158.08 50.438 160.528 44.5 164C38.3182 167.615 34.9307 170.198 28 172C23.804 173.091 21.3354 173.528 17 173.5C12.8579 173.474 10.4376 173.285 6.5 172Z" fill="url(#paint0_linear_1_6714)"/>
<path d="M693.199 -15.5C708.735 -20.8306 733.049 -28 733.049 -28H1152.05V192C1152.05 192 1134.49 199.167 1117.05 200C1104.55 200.596 1088.55 198.126 1076.05 198.5C1068.41 198.729 1064.13 199.047 1056.55 200C1047.09 201.189 1041.69 201.792 1032.55 204.5C1021.73 207.704 1015.87 210.451 1006.05 216C995.1 222.186 989.16 226.332 980.049 235C971.644 242.996 967.802 248.437 961.134 257.879L961.049 258C953.728 268.368 950.65 274.87 944.549 286C935.357 302.771 930.809 312.52 923.049 330C914.442 349.387 908.797 360.082 903.049 380.5C898.732 395.834 897.549 406 895.049 420.5L894.924 421.225C892.736 433.935 891.168 443.039 881.699 452C876.979 456.468 873.173 458.322 867.049 460.5C858.034 463.706 850.699 463 840.699 460.5C812.367 453.417 786.849 440.487 770.199 432C741.986 417.619 728.636 408.064 702.973 389.696L702.699 389.5C677.692 371.601 664.149 360.537 642.699 338.5C632.667 328.193 627.436 321.926 618.699 310.5C611.692 301.336 607.796 295.292 601.699 285.5C594.121 273.328 590.268 266.99 584.199 254C580.27 245.59 578.366 241.226 575.199 232.5C571.09 221.178 568.93 214.231 566.199 202.5C564.219 193.995 563.374 188.653 562.199 180C561.038 171.452 560.098 167.118 559.699 158.5C559.284 149.528 558.684 143.467 559.199 134.5L559.241 133.777C559.834 123.433 560.159 117.772 562.699 107.5C565.355 96.7623 568.14 90.078 572.699 80C577.921 68.4566 580.825 63.3022 588.199 53C593.438 45.6807 597.362 41.8918 603.699 35.5C611.603 27.5286 615.185 24.19 624.199 17.5C633.724 10.4311 640.099 6.82319 650.699 1.5C656.954 -1.64131 662.539 -3.92915 669.049 -6.5C678.297 -10.152 683.794 -12.2731 693.199 -15.5Z" fill="url(#paint1_linear_1_6714)"/>
<path d="M-18.6229 437.006C-20.24 438.307 -21.1005 439.095 -22.6229 440.506C-61.7213 476.74 -22.6229 577.006 -22.6229 577.006H288.5C288.5 577.006 287.189 557.05 280.877 546.006C278.162 541.256 276.529 538.08 272.877 534.006C269.089 529.779 267.245 527.924 262.377 525.006C257.868 522.303 255.45 521.389 250.377 520.006C245.608 518.706 241.804 517.917 236.877 517.506C231.429 517.051 226.842 516.839 221.377 517.006C211.976 517.293 207.377 518.006 199.377 519.506C191.377 521.006 188.877 521.506 182.877 522.506C177.086 523.471 171.746 524.172 165.877 524.006C161.76 523.889 156.952 523.605 152.877 523.006C148.141 522.309 147.477 521.83 142.877 520.506C138.068 519.121 135.416 518.115 130.877 516.006C126.835 514.128 124.062 512.513 120.377 510.006C116.595 507.432 114.657 505.696 111.377 502.506C107.506 498.74 106.078 496.356 102.877 492.006C98.8282 486.504 98.514 484.789 94.8771 479.006C92.0226 474.467 89.3836 469.945 86.3771 465.506C83.704 461.559 81.3771 458.21 78.3771 454.506C74.9872 450.32 73.8252 448.67 69.8771 445.006C66.5237 441.893 64.0574 439.724 60.3771 437.006C56.6303 434.239 53.9076 432.34 49.8771 430.006C44.058 426.636 41.8771 425.729 35.3771 424.006C30.6246 422.746 27.793 422.084 22.8771 422.006C18.1751 421.931 13.9877 422.581 9.37708 423.506C4.95716 424.393 3.60125 424.932 -0.622925 426.506C-4.80329 428.064 -6.73297 429.322 -10.6229 431.506C-13.9287 433.362 -15.6692 434.629 -18.6229 437.006Z" fill="url(#paint2_linear_1_6714)"/>
<defs>
<linearGradient id="paint0_linear_1_6714" x1="1.32735e-06" y1="174" x2="319" y2="1.30836e-05" gradientUnits="userSpaceOnUse">
<stop stop-color="#E5D9F1" stop-opacity="0.3"/>
<stop offset="1" stop-color="#A594FA"/>
</linearGradient>
<linearGradient id="paint1_linear_1_6714" x1="1151.7" y1="-28" x2="558.699" y2="463" gradientUnits="userSpaceOnUse">
<stop offset="0.416667" stop-color="#850769"/>
<stop offset="0.888874" stop-color="#FFC490"/>
</linearGradient>
<linearGradient id="paint2_linear_1_6714" x1="5.50001" y1="577" x2="202.5" y2="327.5" gradientUnits="userSpaceOnUse">
<stop stop-color="#EFEDF9"/>
<stop offset="0.678429" stop-color="#ADA2FF"/>
</linearGradient>
</defs>
</svg>
