<svg width="320" height="174" viewBox="0 0 320 174" fill="none" xmlns="http://www.w3.org/2000/svg">
<path d="M6.5 172C3.84229 171.132 0 169 0 169V0H319.5C319.5 0 309.252 17.5282 301 27.5C296.243 33.248 293.489 36.447 288 41.5C283.916 45.259 281.467 47.2059 277 50.5C268.052 57.0983 262.549 60.2431 252.5 65C245.29 68.4131 241.123 70.151 233.5 72.5C222.484 75.8944 204.5 78 204.5 78C204.5 78 183.821 81.5831 171 85.5C157.753 89.5469 150.439 92.4073 138 98.5C127.473 103.656 121.863 107.165 112 113.5C97.4434 122.849 90.13 129.345 76.5 140C69.6047 145.39 66.0461 148.809 59 154C53.4621 158.08 50.438 160.528 44.5 164C38.3182 167.615 34.9307 170.198 28 172C23.804 173.091 21.3354 173.528 17 173.5C12.8579 173.474 10.4376 173.285 6.5 172Z" fill="url(#paint0_linear)"/>
<defs>
<linearGradient id="paint0_linear" x1="1.32735e-06" y1="174" x2="319" y2="1.30836e-05" gradientUnits="userSpaceOnUse">
<stop stop-color="#E5D9F1" stop-opacity="0.3"/>
<stop offset="1" stop-color="#A594FA"/>
</linearGradient>
</defs>
</svg>
