<svg width="1152" height="511" viewBox="0 0 1152 511" fill="none" xmlns="http://www.w3.org/2000/svg">
<path d="M1138.5 200.5C1143.66 202.219 1151.5 205.5 1151.5 205.5C1151.5 205.5 1224.95 379.772 1153.5 390.5C1147.23 391.441 1142 391.5 1135.5 391.5C1131.5 391.5 1130 391.5 1123 392C1113.75 392.661 1104 393.987 1098.5 395C1087.27 397.067 1078.04 399.081 1067 402C1054.16 405.395 1047.54 407.638 1035 412C1025.14 415.431 1018.11 417.918 1008.5 422C1000.38 425.449 998.067 426.923 990.001 430.5C980.322 434.793 967 440.5 962.5 442.5C956.337 445.239 952.5 446.5 952.5 446.5C952.5 446.5 945.674 428.371 944.501 416C943.321 403.545 943.028 396.511 943.001 384C942.974 370.904 943.321 363.542 944.501 350.5C945.674 337.546 946.194 330.2 949.001 317.5C951.734 305.137 953.958 298.319 958.501 286.5C962.984 274.84 965.84 268.367 972.001 257.5C977.557 247.701 980.521 241.922 988.001 233.5C993.784 226.989 997.302 223.399 1004.5 218.5C1008.77 215.598 1011.43 214.386 1016 212C1024.53 207.552 1029.46 205.259 1038.5 202C1047.28 198.837 1052.38 197.472 1061.5 195.5C1068.47 193.994 1072.4 193.107 1079.5 192.5C1087.09 191.851 1091.41 191.964 1099 192.5C1107.07 193.07 1111.58 193.87 1119.5 195.5C1127.02 197.045 1131.22 198.075 1138.5 200.5Z" fill="url(#paint0_linear)"/>
<path d="M461.787 408.524C457.436 413.584 444 431 444 431C444 431 451 430.5 460 430.5C469 430.5 475.5 430.999 483 431.499C490.5 431.999 506.452 434.575 509 434.999C512 435.499 528 439.104 534.5 440.999C546.5 444.499 553.5 446.739 560 448.999C571.5 452.999 577 454.444 581 455.999C587.815 458.65 597.381 462.957 604.5 465.499C611.5 467.999 626 473.499 632 475.499C635 476.499 647.463 480.158 653.5 481.499C670 485.166 677.5 486.499 688.5 487.999C700.974 489.7 707 490 707 490C707 490 708.432 477.003 706.944 470.356C704.696 460.315 703.517 454.561 699.555 445.065C695.032 434.227 691.437 428.518 684.556 419.001C676.865 408.363 671.879 402.681 661.838 394.225C651.909 385.862 645.519 382.001 633.9 376.212C624.437 371.496 618.797 369.441 608.682 366.36C598.941 363.392 593.332 362.02 583.244 360.625C570.199 358.821 562.63 358.268 549.535 359.669C536.649 361.048 529.371 362.831 517.295 367.536C506.746 371.646 501.007 374.693 491.673 381.101C483.993 386.373 480.105 389.961 473.366 396.393C468.629 400.915 466.057 403.558 461.787 408.524Z" fill="url(#paint1_linear)"/>
<path d="M-6.71667 278.5C-11.3367 276.205 -13.9485 274.897 -18.2167 272C-61.3509 242.717 -70.2955 140.92 -18.2167 138.5C-5.47843 137.908 1.10357 143.645 13.7833 145C28.1509 146.536 36.4473 146.806 50.7833 145C62.1095 143.573 68.2613 141.472 79.2833 138.5C110.267 130.145 155.783 108.5 155.783 108.5C155.783 108.5 197.128 90.8895 223.783 80C261.277 64.6823 282.233 55.879 320.283 41.9999C343.779 33.4298 356.697 27.734 380.783 20.9999C396.057 16.7295 404.859 14.8679 420.212 11.6208L420.783 11.4999C441.544 7.10883 453.347 5.45683 474.283 1.99991C526.378 -6.60176 555.863 -9.67334 608.283 -16.0001C821.4 -41.7218 1101.78 -73.0293 1156.78 -52C1204.78 -33.6474 1213.28 97.0005 1156.78 123.5C1137.91 132.353 1112.54 136.833 1083.47 141.967L1083.28 142C1044.89 148.78 1022.76 149.677 983.783 150C940.324 150.36 915.983 146.753 872.783 142C815.379 135.685 783.983 126.454 726.783 118.5C683.916 112.539 659.965 107.916 616.783 105C599.816 103.854 590.279 103.575 573.283 103C553.374 102.326 542.182 101.064 522.283 102C500.873 103.007 488.873 104.672 467.783 108.5C450.82 111.579 441.372 113.803 424.783 118.5C408.742 123.042 399.768 125.821 384.283 132C368.868 138.151 360.576 142.474 345.783 150C334.102 155.943 327.61 159.407 316.283 166C307.572 171.071 302.806 174.118 294.283 179.5C283.43 186.353 277.153 189.935 266.783 197.5C257.693 204.132 253.039 208.432 244.283 215.5C238.019 220.557 234.698 223.634 228.283 228.5C223.491 232.135 220.704 234.039 215.783 237.5C206.924 243.731 201.927 247.194 192.783 253C182.437 259.57 176.821 263.671 165.783 269C159.48 272.043 155.741 273.3 149.283 276C136.838 281.203 130.337 285.602 117.283 289C107.715 291.491 102.109 291.901 92.2833 293C84.3059 293.892 79.8065 294.248 71.7833 294.5L71.5607 294.507C65.6488 294.693 62.2543 294.799 56.2833 294.5C48.0348 294.086 43.4045 293.502 35.2833 292C26.7612 290.424 22.0329 289.156 13.7833 286.5C5.60319 283.866 0.979702 282.323 -6.71667 278.5Z" fill="url(#paint2_linear)"/>
<defs>
<linearGradient id="paint0_linear" x1="1185" y1="192" x2="943.002" y2="446.002" gradientUnits="userSpaceOnUse">
<stop stop-color="#7370FB"/>
<stop offset="0.523958" stop-color="#8A83FF"/>
<stop offset="1" stop-color="#BAADFF"/>
</linearGradient>
<linearGradient id="paint1_linear" x1="700" y1="510" x2="444" y2="362" gradientUnits="userSpaceOnUse">
<stop stop-color="#7370FB"/>
<stop offset="0.482292" stop-color="#8A83FF"/>
<stop offset="1" stop-color="#BAADFF"/>
</linearGradient>
<linearGradient id="paint2_linear" x1="1196" y1="-58.9999" x2="-54" y2="295" gradientUnits="userSpaceOnUse">
<stop stop-color="#7370FB" stop-opacity="0.82"/>
<stop offset="0.477083" stop-color="#8A83FF"/>
<stop offset="1" stop-color="#BAADFF"/>
</linearGradient>
</defs>
</svg>
