<svg width="1152" height="145" viewBox="0 0 1152 145" fill="none" xmlns="http://www.w3.org/2000/svg">
<path d="M1138 82.5C1143.52 80.4898 1152 77 1152 77V0H0V88.5C0 88.5 12.9525 96.3883 21.5 101C33.3361 107.386 40.1353 110.71 52.5 116C63.636 120.765 69.9883 123.232 81.5 127C90.9571 130.095 96.3571 131.544 106 134C119.731 137.497 127.479 139.454 141.5 141.5C157.964 143.902 167.362 144.325 184 144.5C203.56 144.706 214.525 143.338 234 141.5C251.24 139.873 260.807 138.069 278 136C287.955 134.802 293.556 134.289 303.5 133C314.454 131.58 320.575 130.63 331.5 129C347.534 126.608 356.505 125.14 372.5 122.5C387.355 120.049 395.661 118.541 410.5 116C424.169 113.659 431.819 112.27 445.5 110C462.664 107.152 472.308 105.675 489.5 103C503.553 100.813 511.41 99.4352 525.5 97.5C539.92 95.5194 548.031 94.5866 562.5 93C574.204 91.7166 580.765 90.9562 592.5 90C605.174 88.9673 612.302 88.674 625 88C633.199 87.5648 637.793 87.244 646 87C659.662 86.5937 667.34 86.5174 681 87C688.231 87.2554 692.278 87.5677 699.5 88L699.555 88.0033C710.852 88.6795 717.205 89.0598 728.5 90C743.758 91.2701 752.265 92.4801 767.5 94C789.946 96.2394 802.524 97.5835 825 99.5C848.606 101.513 861.843 102.712 885.5 104C906.961 105.168 919.009 105.694 940.5 106C954.362 106.198 962.138 106.191 976 106C990.063 105.806 997.961 105.839 1012 105C1021.55 104.429 1026.91 103.917 1036.41 103.009L1036.5 103C1047.06 101.99 1052.99 101.422 1063.5 100L1064.66 99.8427C1074.92 98.4554 1081.04 97.6289 1091.5 95.5C1101.94 93.3755 1107.77 91.9668 1118 89C1125.89 86.7134 1130.28 85.3105 1138 82.5Z" fill="url(#paint0_linear)"/>
<path d="M974 100C974.863 102.289 977 105.5 977 105.5C977 105.5 985.533 105.583 991 105.5C1005.27 105.284 1019.5 104.711 1022 104.5C1031.39 103.707 1037.63 103.55 1047 102.5C1055.21 101.58 1062.34 100.769 1070.5 99.5C1080.34 97.9702 1087.76 96.5526 1097.5 94.5C1105.52 92.8103 1118 89 1118 89C1118 89 1130.88 84.9612 1139 82C1144.11 80.1367 1152 77 1152 77V0H1016C1016 0 1009.54 5.77958 1005.5 10.5C1001.77 14.862 999.148 18.1969 996 23C991.777 29.442 989.513 33.1457 986 40C982.21 47.3926 980.081 51.604 977.5 59.5C975.807 64.6768 975.501 65 974 71C972.622 76.5062 971.963 83 972.002 86.5C972.056 91.3969 972.272 95.4176 974 100Z" fill="url(#paint1_linear)"/>
<path d="M767.5 94C789.946 96.2394 802.521 97.6201 825 99.5C846.655 101.311 880.5 103.5 880.5 103.5C880.5 103.5 878.825 98.2611 877.5 95C875.025 88.9093 873.087 85.6095 869.855 80.1053L869.5 79.5C866.43 74.2688 864.539 71.4266 861 66.5C857.673 61.8681 855.791 59.2601 852 55C848.628 51.2114 846.484 49.2133 842.878 45.8527L842.5 45.5C838.348 41.6297 835.913 39.5701 831.5 36C827.492 32.7576 825.21 30.9751 821 28C816.621 24.9056 814.086 23.2776 809.5 20.5C803.595 16.9237 800.146 15.1449 794 12C788.791 9.33446 785.382 7.64788 780.5 5.5L768 0H0V88.5C0 88.5 12.9525 96.3883 21.5 101C33.3361 107.386 40.1353 110.71 52.5 116C63.636 120.765 69.9883 123.232 81.5 127C90.9571 130.095 96.3571 131.544 106 134C119.731 137.497 127.479 139.454 141.5 141.5C157.964 143.902 167.362 144.325 184 144.5C203.56 144.706 214.525 143.338 234 141.5C251.24 139.873 260.807 138.069 278 136C287.955 134.802 293.556 134.289 303.5 133C314.454 131.58 320.575 130.63 331.5 129C347.534 126.608 356.505 125.14 372.5 122.5C387.355 120.049 395.661 118.541 410.5 116C424.169 113.659 431.819 112.27 445.5 110C462.664 107.152 472.308 105.675 489.5 103C503.553 100.813 511.41 99.4352 525.5 97.5C539.92 95.5194 548.031 94.5866 562.5 93C574.204 91.7166 580.765 90.9562 592.5 90C605.174 88.9673 612.302 88.674 625 88C633.199 87.5648 637.793 87.244 646 87C659.662 86.5937 667.34 86.5174 681 87C688.231 87.2554 692.278 87.5677 699.5 88L699.555 88.0033C710.852 88.6795 717.205 89.0598 728.5 90C743.758 91.2701 752.265 92.4801 767.5 94Z" fill="url(#paint2_linear)"/>
<path d="M579.5 10.5C583.377 6.5575 589 0 589 0L0 0.5V88C0 88 4.19569 90.8133 8 93C13.2996 96.0461 17.2178 98.1377 23.5 101C29.0112 103.511 33.1896 105.62 39.5 108C47.4153 110.985 50.3782 112.133 58.5 114.5C66.4114 116.805 73.4303 118.831 81.5 120.5C85.5 121.327 94.9748 123.753 103 125C111.377 126.302 113.624 126.603 124 127.5C133.356 128.309 147 129 153 129C156.905 129 159.095 129.041 163 129C169.837 128.929 173.67 128.816 180.5 128.5C186.754 128.211 196.5 127.5 196.5 127.5C196.5 127.5 206.685 126.433 213.5 125.5C217.412 124.964 219.604 124.643 223.5 124C227.808 123.289 230.222 122.874 234.5 122C238.816 121.118 241.431 120.431 245.5 119.5C252.246 117.956 262 115 262 115C262 115 273.06 111.921 280 109.5C287.943 106.729 292.335 104.966 300 101.5C306.763 98.4417 310.331 96.2595 317 93C327.28 87.9752 333.108 85.2892 343.5 80.5C351.675 76.7326 356.198 74.4791 364.5 71C369.349 68.9679 372.093 67.8876 377 66C382.823 63.76 386.059 62.4051 392 60.5C398.36 58.4606 402.008 57.571 408.5 56L409.119 55.8502C415.14 54.3924 418.712 53.5278 425 52.5C429.47 51.7694 431.994 51.4587 436.5 51C442.728 50.3659 446.245 50.2737 452.5 50C467.131 49.3598 475.379 50.8339 490 50C495.084 49.7101 497.957 49.7005 503 49C507.103 48.4301 509.391 47.9186 513.406 47.021L513.5 47C518.03 45.9875 520.558 45.3471 525 44C529.55 42.6199 532.095 41.7894 536.5 40C541.921 37.798 544.894 36.3582 550 33.5C556.994 29.5848 560.749 27.0168 567 22C572.173 17.8482 574.849 15.2292 579.5 10.5Z" fill="url(#paint3_linear)"/>
<path d="M18 91C10.9464 89.3422 0 86.5 0 86.5V0H547C547 0 532.1 9.9141 521.5 14C513.015 17.2707 507.89 18.0841 499 20C491.061 21.711 486.574 22.6203 478.5 23.5C470.532 24.3681 466.015 24.5308 458 24.5C450.57 24.4715 446.423 23.8351 439 23.5C427.29 22.9714 420.718 22.195 409 22.5C397.442 22.8008 388.006 23.3669 376.5 24.5C365.942 25.5397 362.968 26.2772 352.5 28C341.048 29.8847 334.739 31.6019 323.5 34.5C312.67 37.2928 306.537 38.748 296 42.5C285.614 46.1984 279.967 48.7872 270 53.5C262.263 57.1583 258.076 59.5189 250.5 63.5C242.844 67.5234 238.447 69.6018 231 74C225.636 77.1681 222.687 79.0493 217.5 82.5C214.343 84.5999 212.745 86.0393 209.5 88C201.863 92.6143 196.932 94.0819 188.5 97C182.544 99.0615 179.148 100.109 173 101.5C165.108 103.285 160.551 103.692 152.5 104.5C140.457 105.709 133.622 105.634 121.526 105.5L121.5 105.5C106.434 105.334 97.9668 104.734 83 103C69.6389 101.452 62.2222 99.9675 49 97.5C36.8404 95.2308 30.0414 93.83 18 91Z" fill="url(#paint4_linear)"/>
<defs>
<linearGradient id="paint0_linear" x1="1152" y1="-3.42086e-05" x2="2.26367e-06" y2="145" gradientUnits="userSpaceOnUse">
<stop stop-color="#7370FB"/>
<stop offset="0.513542" stop-color="#7370FB"/>
<stop offset="1" stop-color="#BAADFF"/>
</linearGradient>
<linearGradient id="paint1_linear" x1="1152" y1="2.59349e-06" x2="972" y2="106" gradientUnits="userSpaceOnUse">
<stop stop-color="#7370FB"/>
<stop offset="0.492708" stop-color="#8A83FF"/>
<stop offset="1" stop-color="#BAADFF"/>
</linearGradient>
<linearGradient id="paint2_linear" x1="-2.1828e-06" y1="145" x2="880" y2="8.49985e-06" gradientUnits="userSpaceOnUse">
<stop stop-color="#7370FB"/>
<stop offset="0.0001" stop-color="#7370FB"/>
<stop offset="0.503125" stop-color="#8A83FF"/>
<stop offset="1" stop-color="#BAADFF"/>
</linearGradient>
<linearGradient id="paint3_linear" x1="7.10677e-06" y1="129" x2="589" y2="-1.12759e-05" gradientUnits="userSpaceOnUse">
<stop stop-color="#7370FB"/>
<stop offset="0.4875" stop-color="#8A83FF"/>
<stop offset="1" stop-color="#BAADFF"/>
</linearGradient>
<linearGradient id="paint4_linear" x1="5.31456e-06" y1="106" x2="547" y2="8.64939e-06" gradientUnits="userSpaceOnUse">
<stop stop-color="#7370FB"/>
<stop offset="0.482292" stop-color="#8A83FF"/>
<stop offset="1" stop-color="#BAADFF"/>
</linearGradient>
</defs>
</svg>
