<svg width="1152" height="479" viewBox="0 0 1152 479" fill="none" xmlns="http://www.w3.org/2000/svg">
<path d="M52.6782 442.575C34.5633 450.954 26.7807 460.169 8.67822 468.575C-157.443 545.711 -60.3838 169.211 8.67822 -0.425049C178.315 -417.101 1058.2 -438.482 1160.68 -0.425049C1184.65 102.054 1176.44 165.016 1160.68 269.075C1159.58 276.311 1159.29 280.436 1157.68 287.575C1155.88 295.528 1154.41 299.891 1151.68 307.575C1148.49 316.563 1146.64 321.646 1142.18 330.075C1138.17 337.638 1135.25 341.746 1130.51 348.411L1129.68 349.575C1124.2 357.28 1120.99 361.534 1114.68 368.575C1107.77 376.288 1103.47 380.252 1095.68 387.075C1087.83 393.946 1083.23 397.602 1074.68 403.575C1065.48 410 1060.03 413.213 1050.18 418.575C1039.36 424.462 1033.09 427.443 1021.68 432.075C1009.83 436.882 1002.96 439.043 990.678 442.575C976.43 446.671 968.328 448.794 953.678 451.075C941.468 452.976 934.524 453.535 922.178 454.075C911.644 454.536 905.718 454.384 895.178 454.075C885.012 453.777 879.312 453.441 869.178 452.575C856.244 451.469 848.998 450.618 836.178 448.575C824.984 446.791 818.71 445.679 807.678 443.075C795.827 440.277 789.376 437.957 777.678 434.575C765.748 431.125 758.905 429.662 747.178 425.575C738.07 422.4 733.267 419.803 724.178 416.575C716.439 413.826 712.048 412.422 704.178 410.075C692.197 406.502 685.422 404.609 673.178 402.075C660.792 399.512 653.737 398.581 641.178 397.075C625.818 395.233 617.141 394.539 601.678 394.075C591.529 393.77 585.828 393.798 575.678 394.075C562.967 394.422 555.82 394.699 543.178 396.075C532.024 397.289 525.636 398.433 514.939 400.349L513.678 400.575C503.086 402.471 497.148 403.59 486.678 406.075C475.847 408.646 469.819 410.307 459.178 413.575C448.076 416.984 441.81 419.292 431.195 423.2L430.178 423.575C421.535 426.757 416.825 428.901 408.178 432.075C400.41 434.927 396.064 436.566 388.178 439.075C378.517 442.149 373.024 443.657 363.178 446.075C350.794 449.117 343.791 450.694 331.178 452.575C319.533 454.311 312.944 455.144 301.178 455.575C294.349 455.825 290.51 455.762 283.678 455.575C272.72 455.275 266.537 455.076 255.678 453.575C245.816 452.211 240.399 450.731 230.678 448.575L230.451 448.525C220.19 446.249 214.356 444.955 204.178 442.075C194.315 439.284 189.07 436.766 179.178 434.075L178.704 433.946C170.679 431.763 166.014 430.493 157.678 429.075C148.197 427.461 142.782 427.086 133.178 426.575C122.649 426.014 116.67 425.528 106.178 426.575C95.4707 427.643 89.4969 429.023 79.1782 432.075C68.6368 435.193 62.9249 437.835 53.0539 442.401L52.6782 442.575Z" fill="url(#paint0_linear_1_23274)"/>
<path d="M14 270C8.44034 267.043 0 262 0 262V-1H1153V258.5C1153 266.791 1152.13 271.588 1150.69 279.469L1150.5 280.5C1148.51 291.452 1146.8 297.536 1143 308C1139.04 318.922 1136.4 324.988 1130.5 335C1125.52 343.449 1116 355.5 1116 355.5C1116 355.5 994.743 245.06 903 196.5C843.552 165.034 807.794 151.261 743.5 131.5C717.603 123.54 702.923 119.488 676.5 113.5C663.279 110.504 655.888 108.633 642.5 106.5C624.867 103.691 614.81 103.28 597 102C580.233 100.795 570.809 99.7638 554 100C541.09 100.181 533.84 100.647 521 102C509.026 103.262 502.347 104.353 490.5 106.5C481.08 108.207 475.82 109.311 466.5 111.5C457.463 113.622 452.395 114.846 443.5 117.5C432.656 120.736 426.683 122.982 416.127 126.952L416 127C405.343 131.008 399.443 133.463 389 138C378.743 142.456 372.963 144.921 363 150C353.031 155.082 347.599 158.249 338 164C326.014 171.182 319.634 175.76 308 183.5C297.584 190.43 291.495 193.976 281.5 201.5C272.192 208.506 267.605 213.231 258.5 220.5C249.252 227.883 244.196 232.215 234.5 239C225.58 245.242 220.38 248.472 211 254C203.696 258.304 199.529 260.603 192 264.5C181.838 269.759 176.207 272.965 165.5 277C157.467 280.028 144.5 283.5 144.5 283.5C144.5 283.5 130.567 286.993 121.5 288.5L121.187 288.552C113.425 289.842 108.948 290.586 101 291C94.9551 291.315 91.5398 291.401 85.5 291C78.6116 290.543 74.7937 289.727 68 288.5C60.1217 287.077 55.7035 286.179 48 284C41.4642 282.151 37.7993 281.04 31.5 278.5C24.4536 275.659 20.708 273.568 14 270Z" fill="url(#paint1_linear_1_23274)"/>
<path d="M6.54325 131C3.28956 129.496 1.55629 128.442 -1.45675 126.5C-43.6384 99.3159 -12.8443 46.8734 -1.45675 -1.99991C47.4165 -211.756 764.376 -23.1513 550.043 -1.99991C527.999 0.175476 515.494 0.0288544 493.543 3.00009C483.554 4.3522 477.958 5.18417 468.043 7.00009C458.906 8.67356 453.701 9.83851 444.865 11.8161L444.043 12.0001C428.33 15.5164 419.526 17.5773 404.043 22.0001C387.062 26.851 377.748 30.2696 361.043 36.0001C341.587 42.6746 330.829 46.8468 311.543 54.0001C246.372 78.1729 212.141 97.9911 146.043 119.5C133.593 123.551 126.713 126.201 114.043 129.5C102.258 132.569 95.5504 133.965 83.5433 136C75.1849 137.417 70.5078 138.53 62.0433 139C56.3894 139.314 53.1988 139.282 47.5433 139C38.4964 138.549 33.4062 137.87 24.5432 136C17.4048 134.494 13.1655 134.061 6.54325 131Z" fill="url(#paint2_linear_1_23274)"/>
<path d="M309.5 436.5C304.02 443.768 296 455.5 296 455.5C296 455.5 306.684 455.536 313.5 455C319.778 454.507 323.266 453.891 329.5 453C337.731 451.824 342.365 451.215 350.5 449.5C359.583 447.586 364.555 445.983 373.5 443.5C381.538 441.269 386.07 440.087 394 437.5C402.691 434.665 407.426 432.671 416 429.5C426.374 425.663 432.036 423.086 442.5 419.5C451.789 416.317 457.055 414.685 466.5 412C478.116 408.699 484.7 407.067 496.5 404.5C507.951 402.009 514.402 400.678 526 399C536.847 397.431 543.084 396.925 553.815 396.056L554.5 396L555.536 395.916C564.648 395.177 570.074 394.736 579.5 394.5C586.527 394.324 590.472 394.366 597.5 394.5C606.489 394.672 611.531 394.879 620.5 395.5C630.482 396.191 636.079 396.7 646 398C656.599 399.389 662.543 400.282 673 402.5C683.656 404.76 689.539 406.463 700 409.5C709.844 412.358 715.317 414.137 725 417.5C735.449 421.129 741.032 423.925 751.5 427.5C765.943 432.433 774.221 434.692 789 438.5C800.834 441.549 807.515 443.11 819.5 445.5C835.209 448.633 844.07 450.318 860 452C872.064 453.275 878.876 453.589 891 454C904.465 454.457 912.06 454.945 925.5 454C936.299 453.241 942.309 452.202 953 450.5C962.417 449.001 967.693 448.078 977 446C987.447 443.667 993.318 442.302 1003.5 439C1014.68 435.376 1020.78 432.817 1031.5 428C1040.66 423.883 1045.75 421.43 1054.5 416.5C1065.45 410.332 1071.45 406.548 1081.5 399C1088.82 393.504 1092.74 390.167 1099.5 384C1106.44 377.673 1110.34 374.084 1116.5 367C1122.91 359.633 1126.08 355.118 1131.5 347C1137.29 338.34 1140.41 333.35 1145 324C1148.55 316.773 1150.36 312.607 1153 305C1155.65 297.346 1156.95 292.952 1158.5 285C1159.22 281.313 1160 275.5 1160 275.5C1160 275.5 1139.83 264.907 1126.5 259C1108.93 251.215 1098.62 247.912 1080.5 241.5L1078.17 240.674C1049.15 230.406 1032.09 224.367 1001.5 217C952.074 205.098 923.269 202.167 872.5 199.5C840.131 197.8 821.846 197.408 789.5 199.5C745.005 202.378 720.246 207.663 676.696 216.958L676.5 217C663.761 219.719 656.628 221.308 644 224.5C629.854 228.076 621.952 230.228 608 234.5C592.826 239.147 584.329 241.849 569.5 247.5C555.029 253.015 547.148 256.702 533 263C517.837 269.75 509.16 273.218 494.5 281C481.278 288.019 474.212 292.595 461.5 300.5C451.428 306.764 445.74 310.231 436 317C427.63 322.818 423.06 326.26 415 332.5C406.479 339.097 401.832 343.001 393.613 349.905L393.5 350C384.386 357.656 379.24 361.92 370.5 370C363.301 376.656 359.395 380.53 352.5 387.5C343.271 396.83 338.135 402.118 329.5 412C321.373 421.301 316.936 426.639 309.5 436.5Z" fill="url(#paint3_linear_1_23274)"/>
<defs>
<linearGradient id="paint0_linear_1_23274" x1="1150.5" y1="4.99987" x2="17" y2="461" gradientUnits="userSpaceOnUse">
<stop offset="0.284795" stop-color="#85086A"/>
<stop offset="0.616841" stop-color="#BAADFF"/>
<stop offset="1" stop-color="#FFC490"/>
<stop offset="1" stop-color="#85086A"/>
</linearGradient>
<linearGradient id="paint1_linear_1_23274" x1="1153" y1="-1" x2="-2.06442e-06" y2="355" gradientUnits="userSpaceOnUse">
<stop offset="0.00448415" stop-color="#BAADFF"/>
<stop offset="0.53709" stop-color="#7774FC"/>
</linearGradient>
<linearGradient id="paint2_linear_1_23274" x1="496" y1="7.50001" x2="-23" y2="139" gradientUnits="userSpaceOnUse">
<stop offset="0.0212244" stop-color="#BAADFF"/>
<stop offset="0.484035" stop-color="#FFC490"/>
<stop offset="1" stop-color="#90196E"/>
</linearGradient>
<linearGradient id="paint3_linear_1_23274" x1="1160" y1="198" x2="296" y2="456" gradientUnits="userSpaceOnUse">
<stop stop-color="#7572FC"/>
<stop offset="1" stop-color="#BAADFF"/>
</linearGradient>
</defs>
</svg>
