<svg width="1152" height="456" viewBox="0 0 1152 456" fill="none" xmlns="http://www.w3.org/2000/svg">
<path d="M14 270C8.44034 267.043 0 262 0 262V-1H1153V258.5C1153 266.791 1152.13 271.588 1150.69 279.469L1150.5 280.5C1148.51 291.452 1146.8 297.536 1143 308C1139.04 318.922 1136.4 324.988 1130.5 335C1125.52 343.449 1116 355.5 1116 355.5C1116 355.5 994.743 245.06 903 196.5C843.552 165.034 807.794 151.261 743.5 131.5C717.603 123.54 702.923 119.488 676.5 113.5C663.279 110.504 655.888 108.633 642.5 106.5C624.867 103.691 614.81 103.28 597 102C580.233 100.795 570.809 99.7638 554 100C541.09 100.181 533.84 100.647 521 102C509.026 103.262 502.347 104.353 490.5 106.5C481.08 108.207 475.82 109.311 466.5 111.5C457.463 113.622 452.395 114.846 443.5 117.5C432.656 120.736 426.683 122.982 416.127 126.952L416 127C405.343 131.008 399.443 133.463 389 138C378.743 142.456 372.963 144.921 363 150C353.031 155.082 347.599 158.249 338 164C326.014 171.182 319.634 175.76 308 183.5C297.584 190.43 291.495 193.976 281.5 201.5C272.192 208.506 267.605 213.231 258.5 220.5C249.252 227.883 244.196 232.215 234.5 239C225.58 245.242 220.38 248.472 211 254C203.696 258.304 199.529 260.603 192 264.5C181.838 269.759 176.207 272.965 165.5 277C157.467 280.028 144.5 283.5 144.5 283.5C144.5 283.5 130.567 286.993 121.5 288.5L121.187 288.552C113.425 289.842 108.948 290.586 101 291C94.9551 291.315 91.5398 291.401 85.5 291C78.6116 290.543 74.7937 289.727 68 288.5C60.1217 287.077 55.7035 286.179 48 284C41.4642 282.151 37.7993 281.04 31.5 278.5C24.4536 275.659 20.708 273.568 14 270Z" fill="url(#paint0_linear_4216_2625)"/>
<path d="M6.54325 131C3.28956 129.496 1.55629 128.442 -1.45675 126.5C-43.6384 99.3159 -12.8443 46.8734 -1.45675 -1.99991C47.4165 -211.756 764.376 -23.1513 550.043 -1.99991C527.999 0.175476 515.494 0.0288544 493.543 3.00009C483.554 4.3522 477.958 5.18417 468.043 7.00009C458.906 8.67356 453.701 9.83851 444.865 11.8161L444.043 12.0001C428.33 15.5164 419.526 17.5773 404.043 22.0001C387.062 26.851 377.748 30.2696 361.043 36.0001C341.587 42.6746 330.829 46.8468 311.543 54.0001C246.372 78.1729 212.141 97.9911 146.043 119.5C133.593 123.551 126.713 126.201 114.043 129.5C102.258 132.569 95.5504 133.965 83.5433 136C75.1849 137.417 70.5078 138.53 62.0433 139C56.3894 139.314 53.1988 139.282 47.5433 139C38.4964 138.549 33.4062 137.87 24.5432 136C17.4048 134.494 13.1655 134.061 6.54325 131Z" fill="url(#paint1_linear_4216_2625)"/>
<path d="M301.5 436.5C296.02 443.767 288 455.5 288 455.5C288 455.5 298.684 455.536 305.5 455C311.778 454.507 315.266 453.891 321.5 453C329.731 451.824 334.365 451.214 342.5 449.5C351.583 447.586 356.555 445.983 365.5 443.5C373.538 441.269 378.07 440.087 386 437.5C394.691 434.665 399.426 432.671 408 429.5C418.374 425.663 424.036 423.086 434.5 419.5C443.789 416.317 449.055 414.685 458.5 412C470.116 408.698 476.7 407.067 488.5 404.5C499.951 402.009 506.402 400.678 518 399C528.847 397.43 535.084 396.925 545.815 396.055L546.5 396L547.536 395.916C556.648 395.176 562.074 394.736 571.5 394.5C578.527 394.324 582.472 394.366 589.5 394.5C598.489 394.671 603.531 394.879 612.5 395.5C622.482 396.191 628.079 396.7 638 398C648.599 399.389 654.543 400.282 665 402.5C675.656 404.76 681.539 406.463 692 409.5C701.844 412.358 707.317 414.137 717 417.5C727.449 421.129 733.032 423.925 743.5 427.5C757.943 432.433 766.221 434.692 781 438.5C792.834 441.549 799.515 443.11 811.5 445.5C827.209 448.633 836.07 450.317 852 452C864.064 453.274 870.876 453.589 883 454C896.465 454.457 904.06 454.945 917.5 454C928.299 453.241 934.309 452.202 945 450.5C954.417 449.001 959.693 448.078 969 446C979.447 443.667 985.318 442.302 995.5 439C1006.68 435.376 1012.78 432.817 1023.5 428C1032.66 423.882 1037.75 421.43 1046.5 416.5C1057.45 410.332 1063.45 406.547 1073.5 399C1080.82 393.504 1084.74 390.166 1091.5 384C1098.44 377.673 1102.34 374.084 1108.5 367C1114.91 359.633 1118.08 355.118 1123.5 347C1129.29 338.34 1132.41 333.35 1137 324C1140.55 316.772 1142.36 312.607 1145 305C1147.65 297.346 1148.95 292.952 1150.5 285C1151.22 281.313 1152 275.5 1152 275.5C1152 275.5 1131.83 264.907 1118.5 259C1100.93 251.214 1090.62 247.911 1072.5 241.5L1070.17 240.674C1041.15 230.406 1024.09 224.367 993.5 217C944.074 205.098 915.269 202.167 864.5 199.5C832.131 197.8 813.846 197.408 781.5 199.5C737.005 202.378 712.246 207.663 668.696 216.958L668.5 217C655.761 219.719 648.628 221.307 636 224.5C621.854 228.076 613.952 230.228 600 234.5C584.826 239.146 576.329 241.849 561.5 247.5C547.029 253.014 539.148 256.702 525 263C509.837 269.75 501.16 273.218 486.5 281C473.278 288.019 466.212 292.595 453.5 300.5C443.428 306.764 437.74 310.23 428 317C419.63 322.817 415.06 326.26 407 332.5C398.479 339.097 393.832 343.001 385.613 349.905L385.5 350C376.386 357.656 371.24 361.919 362.5 370C355.301 376.656 351.395 380.53 344.5 387.5C335.271 396.83 330.135 402.118 321.5 412C313.373 421.3 308.936 426.639 301.5 436.5Z" fill="url(#paint2_linear_4216_2625)"/>
<defs>
<linearGradient id="paint0_linear_4216_2625" x1="1153" y1="-0.999917" x2="-2.77998e-05" y2="355" gradientUnits="userSpaceOnUse">
<stop stop-color="#F9F871"/>
<stop offset="0.523958" stop-color="#FFFE95"/>
<stop offset="1" stop-color="#FFFFE0"/>
</linearGradient>
<linearGradient id="paint1_linear_4216_2625" x1="590" y1="-100" x2="-23" y2="139" gradientUnits="userSpaceOnUse">
<stop stop-color="#7370FB"/>
<stop offset="0.0001" stop-color="#F9F871"/>
<stop offset="0.508333" stop-color="#FDFC9B"/>
<stop offset="1" stop-color="#FFFFDC"/>
</linearGradient>
<linearGradient id="paint2_linear_4216_2625" x1="1152" y1="198" x2="288" y2="456" gradientUnits="userSpaceOnUse">
<stop stop-color="#F9F871"/>
<stop offset="0.503125" stop-color="#FFFEAA"/>
<stop offset="1" stop-color="#FFFFD7"/>
</linearGradient>
</defs>
</svg>
