<svg width="25" height="24" viewBox="0 0 25 24" fill="none" xmlns="http://www.w3.org/2000/svg">
<rect x="0.5" width="24" height="24" rx="12" fill="white"/>
<path fill-rule="evenodd" clip-rule="evenodd" d="M19.904 12.1773C19.904 11.6242 19.8544 11.0924 19.7622 10.5818H12.416V13.599H16.6138C16.433 14.574 15.8835 15.4001 15.0574 15.9532V17.9103H17.5782C19.0531 16.5524 19.904 14.5527 19.904 12.1773Z" fill="#4285F4"/>
<path fill-rule="evenodd" clip-rule="evenodd" d="M12.416 19.8C14.522 19.8 16.2876 19.1015 17.5782 17.9103L15.0574 15.9532C14.3589 16.4212 13.4655 16.6977 12.416 16.6977C10.3845 16.6977 8.66492 15.3256 8.05156 13.482H5.44565V15.5029C6.7291 18.0521 9.36692 19.8 12.416 19.8Z" fill="#34A853"/>
<path fill-rule="evenodd" clip-rule="evenodd" d="M8.05154 13.482C7.89554 13.014 7.80691 12.5141 7.80691 12C7.80691 11.4859 7.89554 10.986 8.05154 10.518V8.49709H5.44563C4.91736 9.55009 4.616 10.7414 4.616 12C4.616 13.2586 4.91736 14.4499 5.44563 15.5029L8.05154 13.482Z" fill="#FBBC05"/>
<path fill-rule="evenodd" clip-rule="evenodd" d="M12.416 7.30227C13.5612 7.30227 14.5894 7.69581 15.3977 8.46872L17.6349 6.23154C16.2841 4.97291 14.5185 4.2 12.416 4.2C9.36692 4.2 6.7291 5.94791 5.44565 8.49709L8.05156 10.518C8.66492 8.67436 10.3845 7.30227 12.416 7.30227Z" fill="#EA4335"/>
</svg>
