<svg width="380" height="261" viewBox="0 0 380 261" fill="none" xmlns="http://www.w3.org/2000/svg">
<path d="M20.2645 139.188C19.051 132.914 22.3329 127.467 23.6429 121.682C25.339 114.098 28.4692 106.969 31.4616 99.8674C33.9919 93.8621 37.4462 88.2359 40.7005 82.5616C44.1893 76.5218 48.3468 70.8818 52.5733 65.2764C56.4068 60.1881 60.9366 55.7961 64.8942 50.8664C68.1141 46.8536 72.2371 43.4821 76.0361 40.0209C79.056 37.263 82.9309 35.0567 86.3024 32.4367C93.3857 26.899 101.025 22.1114 109.096 18.1508C115.247 15.1722 121.507 11.9455 128.326 10.339C130.26 9.78774 132.156 9.10826 134 8.30508C140.019 6.0436 146.411 5.06454 152.52 3.33396C156.429 2.2239 160.635 3.05817 164.317 1.01732C164.951 0.66569 165.882 0.81048 166.681 0.776006C172.046 0.527795 177.41 0.638111 182.801 0.224426C190.349 -0.250588 197.924 0.0288856 205.416 1.05869C213.614 2.08601 221.964 3.2788 229.941 5.88502C237.525 8.38092 245.061 10.8768 252.466 13.9312C255.672 15.255 259.099 16.6408 262.422 17.8612C266.559 19.378 270.11 22.4738 273.943 24.8318C280.58 28.9096 286.954 33.4 293.028 38.2766C298.888 42.9408 304.364 48.0686 309.403 53.6105C318.594 63.8354 326.881 74.736 333.534 86.9052C338.093 94.9593 341.983 103.374 345.166 112.064C347.965 120.028 350.833 128.101 351.716 136.637C350.068 137.327 349.406 136.058 348.799 135.031C347.352 132.597 345.138 131.894 342.56 130.894C338.568 129.384 334.748 130.411 330.88 130.039C329.653 129.922 328.301 130.204 327.867 131.252C326.44 134.7 323.378 137.706 324.309 141.953C324.449 142.499 324.46 143.07 324.34 143.62C324.22 144.171 323.974 144.686 323.62 145.125C321.262 148.365 321.345 148.799 324.061 151.812C326.371 153.757 325.171 155.729 324.116 157.701C324.454 158.624 322.296 157.466 323.158 158.852C322.834 161.389 321.22 163.375 320.241 165.636C319.936 166.179 319.6 166.704 319.235 167.208C318.263 168.587 317.339 170.056 316.422 171.497C314.408 174.407 312.409 177.33 311.747 180.915C311.34 181.887 311.747 182.846 311.747 183.811C311.747 184.776 312.037 186.1 310.416 186.293C308.955 185.521 309.079 184.025 308.755 182.715C306.052 171.807 303.977 160.707 298.592 150.64C294.193 142.422 287.843 136.968 278.252 136.106C270.454 135.417 264.835 139.099 260.512 145.235C254.472 153.819 252.038 163.727 250.073 173.793C249.061 179.208 248.348 184.675 247.936 190.168C247.936 190.976 247.696 191.765 247.247 192.436C246.884 192.73 246.443 192.908 245.978 192.949C245.514 192.989 245.048 192.89 244.64 192.664C240.972 190.802 237.022 189.541 233.492 187.382C231.327 182.639 232.499 177.661 232.43 172.772C232.483 172.407 232.578 172.048 232.712 171.704C233.312 170.228 234.574 169.429 235.85 168.636C237.293 167.7 238.663 166.653 239.945 165.505C245.158 161.038 246.764 155.639 244.385 149.137C243.903 147.882 243.461 146.607 242.896 145.38C240.683 139.505 238.435 133.659 237.07 127.488C237.318 125.888 238.649 125.343 239.828 124.661C243.509 122.524 246.679 119.609 249.115 116.118C251.928 112.119 251.115 109.286 246.55 107.727C244.82 107.134 244.33 106.073 244.096 104.452C243.172 97.9989 238.683 95.565 232.671 98.2471C229.728 99.5888 226.981 101.326 224.508 103.411C220.03 107.022 214.836 109.64 209.27 111.092C205.506 112.133 201.824 113.443 198.68 115.918C195.129 118.676 192.406 121.958 191.985 126.674C191.989 127.369 191.813 128.053 191.475 128.66C190.216 130.373 189.341 132.338 188.912 134.421C188.482 136.503 188.507 138.654 188.986 140.726C189.351 142.567 188.234 143.546 186.318 143.277C182.451 142.697 178.505 142.932 174.734 143.966C173.502 144.319 172.182 144.201 171.032 143.635C163.979 140.188 155.829 143.049 150.837 151.737C149.602 154.07 148.52 156.482 147.597 158.955C145.804 163.313 143.212 166.829 138.785 169.049C132.959 171.98 130.208 177.406 128.381 183.39C127.988 184.659 128.167 186.203 126.775 187.038C124.286 186.424 121.79 185.831 119.349 185.018C117.281 183.446 114.833 182.384 112.813 180.701C111.468 179.585 110.269 178.426 109.965 176.613C109.841 174.944 111.034 173.896 111.847 172.676C112.661 171.456 113.737 170.297 114.281 168.932C116.053 164.499 118.673 161.038 123.293 159.142C125.175 158.369 126.354 156.432 127.002 154.37C128.009 151.164 127.361 149.82 124.127 148.724C123.334 148.455 122.583 148.262 122.369 147.345C122.038 145.014 123.796 144.352 125.382 143.553C128.381 141.787 129.16 139.043 128.526 135.865C126.857 127.446 121.631 121.689 114.102 118.187C106.166 114.491 97.8649 113.36 89.4464 116.884C85.4544 118.566 81.9311 120.841 80.1937 125.088C81.3106 129.66 78.7113 133.569 77.9115 137.795C77.7233 138.923 77.6379 140.065 77.6564 141.208C77.8342 142.352 77.616 143.523 77.038 144.526C76.46 145.529 75.5568 146.304 74.4779 146.724C72.4922 147.669 72.0716 149.344 72.7611 151.344C73.6781 153.998 74.8295 156.694 77.5461 157.77C81.807 159.438 82.6068 162.927 83.0619 166.774C82.5517 167.574 81.7519 167.333 80.9935 167.312C81.9036 167.801 83.0067 167.429 83.8203 168.112C85.4337 171.207 88.7638 173.696 87.2677 177.895C86.4472 181.687 84.5718 184.176 80.2143 183.783C79.1756 183.691 78.1345 183.932 77.2427 184.473C75.1053 185.679 72.8507 183.976 70.6858 184.735C70.2303 184.822 69.7624 184.822 69.3069 184.735C67.7348 183.501 65.7492 185.514 64.2047 184.087C64.4392 181.584 66.2249 179.578 66.2732 176.971C66.3835 172.531 65.1907 171.552 61.2193 173.165C61.0182 173.269 60.7902 173.309 60.566 173.279C60.3417 173.25 60.1318 173.152 59.9645 173C59.3991 170.152 60.0541 167.326 60.2127 164.506C60.3575 161.92 60.3506 159.348 59.2267 157.101C57.6271 153.881 57.5927 150.206 55.8414 147.055C55.6089 146.587 55.4989 146.068 55.5218 145.545C55.5448 145.023 55.6998 144.516 55.9724 144.07C57.6547 140.802 56.5516 137.864 54.3108 135.617C50.7806 132.121 47.1954 129.046 41.2107 130.735C36.805 131.976 32.5509 133.114 28.8002 135.727C28.5175 135.92 28.2417 136.21 27.9245 136.244C25.1725 136.599 22.5456 137.608 20.2645 139.188Z" fill="url(#paint0_linear_1_10874)"/>
<path d="M246.405 192.54C247.563 177.868 249.459 163.361 256.161 149.965C257.13 148.019 258.258 146.155 259.532 144.394C267.661 133.217 282.375 131.983 292.413 141.532C297.715 146.579 300.742 152.998 303.045 159.762C305.951 167.965 308.1 176.416 309.464 185.011C309.608 185.437 309.82 185.838 310.091 186.197C312.16 188.651 311.622 191.933 312.808 194.67C314.325 201.91 315.973 209.149 316.255 216.561C315.842 218.361 314.539 219.505 313.194 220.581C310.864 222.449 308.74 224.545 306.485 226.483C302.349 230.047 300.673 234.598 300.694 239.893C300.735 248.698 300.149 257.537 302.073 266.259C302.342 267.486 302.273 268.83 302.976 269.899C304.831 272.719 303.128 272.657 300.97 272.657C293.186 272.657 285.401 272.457 277.617 272.767L244.915 273.008C244.226 273.008 243.536 273.167 243.04 272.478C242.382 271.522 242.084 270.364 242.199 269.209C243.502 257.592 243.316 245.905 243.95 234.253C244.64 222.256 245.17 210.239 244.881 198.207C244.798 196.242 244.391 194.022 246.405 192.54Z" fill="#FEF4E6"/>
<path d="M246.405 192.54C245.715 195.477 245.95 198.469 245.936 201.427C245.86 222.635 244.433 243.795 243.688 264.983C243.598 267.493 243.24 269.995 242.999 272.505L183.862 272.891C180.201 272.891 181.166 269.713 180.353 267.762C178.064 257.385 178.45 246.836 178.829 236.363C178.971 229.969 180.299 223.656 182.745 217.747C186.609 207.482 192.15 197.929 199.141 189.478C199.89 188.449 201.005 187.745 202.258 187.514C203.45 187.348 204.485 187.844 205.546 188.265C210.148 190.037 215.176 190.383 219.977 189.258C224.41 188.341 228.906 187.403 233.477 187.189C238.083 188.279 241.957 191.099 246.405 192.54Z" fill="#FFEBCF"/>
<path d="M277.583 272.795H302.866C301.577 271.223 301.563 269.762 301.322 268.472C299.525 258.313 298.99 247.971 299.729 237.68C300.012 233.309 301.859 229.565 305.19 226.269C308.52 222.974 312.919 220.574 315.532 216.458C317.007 214.541 318.979 213.211 320.944 211.901C323.474 210.212 324.054 210.522 324.722 213.48C324.797 213.924 324.898 214.364 325.026 214.797C325.853 218.733 325.357 222.719 325.502 226.683C325.598 232.261 324.867 237.866 325.95 243.41C326.088 243.72 326.198 244.051 326.308 244.368C326.419 244.685 326.529 245.526 326.805 245.458C328.073 245.133 327.604 243.886 327.887 243.024C328.445 240.987 329.453 239.102 330.838 237.508C332.32 236.639 333.424 235.508 333.403 233.626C333.575 232.282 334.782 231.558 335.313 230.434C337.03 227.786 338.905 225.235 340.415 222.457C343.131 218.32 344.4 213.328 348.227 209.908C348.563 209.45 349.05 209.125 349.602 208.989C350.154 208.852 350.736 208.914 351.247 209.164C356.893 211.418 362.471 213.783 367.897 216.541C372.282 218.768 374.84 222.374 376.461 226.814C381.749 241.293 380.908 255.593 375.295 269.796C374.42 272.002 372.806 271.775 371.117 271.782C356.08 271.844 341.022 271.396 326.012 272.092C311.002 272.788 295.992 272.609 280.989 272.954C279.865 272.954 278.721 272.844 277.583 272.795Z" fill="#FFEBCF"/>
<path d="M106.593 272.292C102.148 272.791 97.6763 273.021 93.2033 272.981C73.1258 273.243 53.0414 273.333 32.9708 273.967C24.1455 274.243 15.3133 274.091 6.49491 274.581C3.44743 274.753 2.15121 273.988 1.62032 270.616C0.365472 262.529 -0.620478 254.51 0.468893 246.347C1.10321 241.583 2.53732 237.225 6.08122 233.771C7.53601 232.357 8.67365 233.026 9.85954 234.233C11.8087 236.32 13.8809 238.288 16.0648 240.128C20.0985 243.342 24.7428 245.704 29.7164 247.071C37.2593 249.139 43.1681 254.262 49.9525 257.751C52.8207 259.226 56.2888 260.067 57.7919 263.48C58.4813 264.859 59.8603 265.549 61.1496 266.976C60.8256 264.859 60.205 263.398 58.9571 262.219C58.3503 261.529 57.6815 260.743 58.5296 259.826C58.8174 259.535 59.192 259.344 59.5972 259.283C60.0024 259.222 60.4164 259.294 60.7773 259.488C63.0457 260.543 65.5278 261.24 67.2721 263.205C67.7961 264.253 68.789 265.108 69.6095 264.046C70.567 262.952 71.7226 262.049 73.0155 261.384C73.4498 261.115 72.7328 260.695 72.4225 260.447C72.1703 260.279 71.9389 260.083 71.733 259.861C70.4989 258.24 70.03 256.855 72.7259 256.296C73.7808 256.075 73.6567 255.572 72.8431 255.076C70.0721 253.321 67.4543 251.335 65.0176 249.139C61.8736 246.168 62.1493 244.734 66.1069 243.134C66.5264 242.985 66.9305 242.796 67.3135 242.569C68.003 241.348 66.8791 241.569 66.3827 241.555C63.9902 241.493 61.5564 241.203 59.2329 241.721C58.0735 242.026 56.8541 242.022 55.6971 241.707C54.5401 241.392 53.4863 240.779 52.6415 239.928C50.3317 237.68 47.6704 235.681 47.0705 232.206C47.498 231.027 48.5943 230.93 49.5733 230.717C56.2405 229.255 60.7773 225.394 62.9698 218.871C63.2663 218.003 63.5559 217.127 64.5142 216.727C65.1692 216.493 65.8882 216.515 66.5275 216.789C67.9685 217.747 69.0303 219.409 71.0918 219.195C75.1528 220.443 79.0208 222.243 83.0887 223.477C84.5725 223.815 86.0254 224.276 87.4324 224.856C91.452 227.131 96.1749 228.207 99.3948 231.847C99.9243 232.488 100.386 233.181 100.774 233.916C102.594 236.343 103.656 239.135 104.642 241.962C104.77 242.465 104.865 242.976 104.924 243.492C106.062 246.354 106.131 249.429 106.676 252.407C106.839 253.146 106.933 253.899 106.958 254.655C107.372 257.951 107.917 261.24 107.648 264.584C107.648 265.383 107.648 266.183 107.648 266.99C107.62 268.838 108.027 270.747 106.593 272.292Z" fill="#FEF4E6"/>
<path d="M348.24 209.887L341.049 222.732C337.443 224.297 337.194 227.938 335.974 230.971L334.161 233.729C333.002 234.922 332.347 236.487 331.327 237.763C330.408 239.601 329.488 241.44 328.569 243.278C327.804 243.968 327.611 245.712 325.928 244.712V244.671C324.715 242.065 325.398 239.286 325.239 236.59C325.025 233.309 325.749 229.978 324.618 226.758C324.531 222.691 324.439 218.625 324.343 214.562C326.549 211.176 326.859 207.832 324.136 204.55C323.267 203.502 322.44 202.33 320.923 202.199C316.276 201.813 313.842 199.021 312.691 194.774C312.601 194.443 312.408 194.174 312.001 194.257C310.988 191.663 310.368 188.932 310.16 186.155C311.622 184.432 309.243 182.301 310.739 180.577C311.249 180.65 311.767 180.618 312.264 180.484C312.76 180.35 313.224 180.117 313.628 179.798C315.545 178.364 317.282 177.006 320.123 177.902C322.012 178.502 323.143 176.482 323.626 174.834C324.108 173.186 322.626 173.745 321.881 173.793C319.247 173.958 316.8 173.793 315.579 170.925C316.268 169.425 317.224 168.063 318.399 166.905C319.723 166.602 321.24 164.899 322.143 167.408C321.985 165.568 320.151 166.264 319.234 165.533C320.272 163.272 321.311 161.006 322.35 158.735C324.418 158.487 324.618 160.486 325.577 161.493C325.039 160.072 323.577 159.197 323.108 157.666C323.108 155.922 325.811 154.219 323.191 152.426C323.34 152.175 323.575 151.986 323.853 151.894C324.131 151.803 324.432 151.816 324.701 151.93C330.031 155.301 335.202 151.93 340.414 151.516C341.793 151.399 342.855 151.406 343.896 152.281C346.82 154.736 349.033 157.542 348.867 161.644C348.819 162.913 348.867 164.285 349.764 165.25C351.494 167.181 351.598 169.429 351.963 171.862C352.618 176.282 353.087 180.357 349.35 183.742C349.122 183.949 349.391 185.162 349.653 185.942C351.067 185.493 351.722 183.728 353.425 183.811C355.252 184.576 355.941 186.121 356.265 187.948C356.294 188.453 356.223 188.959 356.059 189.437C355.369 190.644 354.487 191.733 353.804 192.947C353.047 193.247 352.347 193.676 351.736 194.215C350.536 194.597 349.307 194.879 348.061 195.056C345.813 195.484 344.882 196.684 345.489 198.945C345.006 200.152 344 201.193 344.317 202.654C344.11 205.702 346.882 207.129 347.999 209.453C348.107 209.58 348.189 209.728 348.24 209.887Z" fill="#FFBE9D"/>
<path d="M47.4498 232.342C48.8287 234.983 50.8971 237.072 52.8897 239.237C53.8964 241.588 55.9303 241.892 58.0539 241.554C60.6808 241.14 63.3077 241.319 65.9346 241.34C67.0515 241.34 68.6925 241.147 68.003 243.271C66.6241 244.388 63.7972 243.615 63.618 245.856C63.4525 247.925 65.8932 248.745 67.2446 249.993C69.1269 251.717 71.4366 252.972 73.5602 254.426C74.4151 255.916 73.3258 256.212 72.2709 256.398C71.6057 256.544 70.9176 256.553 70.2489 256.424C69.5802 256.295 68.945 256.03 68.3822 255.647C70.0025 256.398 70.8299 258.405 72.2502 259.88C72.8362 261.755 71.74 261.811 70.4576 261.452C68.6098 260.928 67.0791 259.721 65.3692 258.908C66.5982 259.502 67.7549 260.236 68.8166 261.094C69.6646 261.783 70.3196 262.728 69.6578 263.769C68.92 264.941 67.8307 264.989 66.7895 263.996C65.1486 261.749 62.2666 261.549 60.1844 260.018C60.0692 259.94 59.9379 259.89 59.8004 259.87C59.6629 259.85 59.5227 259.861 59.3902 259.903C59.2577 259.944 59.1362 260.016 59.035 260.111C58.9338 260.206 58.8553 260.323 58.8054 260.452C58.5227 261.3 59.6466 261.3 59.8258 261.99C60.1775 264.61 59.7776 264.906 57.1231 264.017C55.4821 260.08 51.2005 259.666 48.1599 257.674C44.9125 255.516 41.2652 253.882 37.9557 251.668C34.3911 249.262 30.2267 248.393 26.2829 246.945C19.5053 244.45 13.9068 240.196 9.20457 234.804C8.18415 233.632 7.37057 233.335 6.06057 233.79C6.39136 233.304 6.58841 232.738 6.63197 232.152C6.67553 231.565 6.56408 230.977 6.30878 230.446C4.79193 226.647 4.84709 222.745 7.3292 219.194C9.63894 219.036 11.7212 218.015 13.8723 217.326C18.7789 215.672 24.1368 215.999 28.8064 218.236C36.1355 221.476 42.7475 225.703 47.4498 232.342Z" fill="#FBB68E"/>
<path d="M19.8362 139.189C21.3186 136.893 22.9665 134.948 26.1656 135.893C26.5379 136.003 27.2964 135.851 27.4274 135.596C29.1717 132.066 33.219 132.508 36.0182 130.77C38.5969 129.157 42.3407 128.853 45.3468 128.874C47.9393 128.874 50.8626 131.177 52.931 133.197C54.31 134.576 56.3784 135.562 56.7645 138.396C57.0886 140.678 57.9642 142.436 56.1716 144.38C55.7786 144.808 55.5373 146.063 55.7993 146.283C58.6606 148.8 57.523 152.709 59.3156 155.743C61.9908 160.252 60.5153 165.506 60.205 170.47C60.1499 171.249 59.9775 172.021 59.8672 172.8C59.9823 172.963 60.0486 173.155 60.0584 173.354C60.0681 173.553 60.021 173.751 59.9223 173.924C57.4264 175.365 57.6677 173.173 57.5161 171.952C57.1024 168.719 56.8266 165.471 56.3784 162.245C55.9828 158.938 55.172 155.695 53.9653 152.592C52.9862 149.958 51.2074 148.455 48.7804 149.834C43.6921 152.806 38.066 152.923 32.5571 153.895C30.73 154.219 29.027 154.653 27.1723 154.061C24.0351 153.054 21.1394 154.826 18.0988 155.102C16.575 155.24 16.3958 157.17 16.2372 158.48C15.7063 162.803 15.7063 167.175 16.2372 171.497C16.4992 173.566 16.8508 175.572 16.5681 177.647C16.4308 177.887 16.2284 178.083 15.9844 178.212C15.7403 178.342 15.4646 178.399 15.1892 178.378C14.086 178.234 12.9829 178.109 12.2313 177.137C9.39607 170.962 8.18341 164.165 8.70812 157.391C8.91965 154.02 9.42956 150.674 10.2319 147.393C10.8455 144.815 12.9277 143.256 15.2926 142.091C16.9405 141.333 18.8917 141.009 19.8362 139.189Z" fill="#1A0C0B"/>
<path d="M353.397 184.079C352.777 184.582 352.177 185.113 351.529 185.582C350.46 186.354 349.743 188.374 348.399 187.843C346.53 187.099 350.247 184.879 347.847 183.707C347.966 183.545 348.1 183.395 348.247 183.258C351.956 180.501 351.308 176.881 351.205 172.785C351.081 167.794 347.006 164.277 347.585 159.12C347.937 156.01 344.669 154.197 342.449 152.267C342.166 152.018 341.442 151.853 341.235 152.025C337.788 154.873 332.961 151.846 329.452 154.818C328.528 155.604 327.059 154.514 326.129 153.632C325.198 152.749 324.419 152.094 323.123 152.432C319.896 149.922 319.675 147.426 322.364 144.455C322.723 144.062 323.674 143.876 323.309 143.234C320.965 139.146 324.688 136.216 325.288 132.685C325.736 130.017 327.852 128.549 330.61 129.114C332.142 129.423 333.728 129.313 335.202 128.797C339.029 127.659 347.289 131.244 349.061 134.74C349.571 135.761 350.116 136.457 351.253 136.595C353.528 138.532 354.204 140.966 352.632 143.49C351.157 145.91 353.473 147.454 353.542 149.467C353.977 151.212 355.259 151.646 356.845 151.632L358.279 152.425C357.865 154.618 356.004 154.232 354.521 154.494C353.97 154.604 353.335 154.569 353.142 155.245C353.113 155.416 353.128 155.591 353.186 155.754C353.244 155.917 353.343 156.062 353.473 156.176C354.066 156.865 354.673 156.555 355.314 156.217C356.776 155.445 357.507 153.459 359.541 153.632L360.458 154.487C360.458 156.948 357.886 157.493 356.886 159.313C359.513 160.754 362.326 158.155 364.863 159.796L366.242 161.699C366.132 163.464 364.56 163.898 363.484 164.836C361.733 166.387 359.037 167.311 359.348 170.4C359.441 170.861 359.4 171.34 359.23 171.779C358.175 173.716 357.955 175.916 357.162 177.984C357.057 178.593 356.869 179.184 356.603 179.742C356.307 180.266 355.866 180.701 355.583 181.231C354.99 182.328 354.556 183.493 353.397 184.079Z" fill="#F4925F"/>
<path d="M181.222 268.279C182.367 269.658 180.988 272.505 183.87 272.891L145.307 273.664C140.874 272.974 136.413 273.477 131.973 273.36C125.988 273.209 126.043 274.505 124.623 267.589C123.796 266.141 125.83 265.486 125.574 264.19C125.657 261.529 126.485 258.957 126.429 256.289C126.588 255.144 125.788 254.22 125.781 253.076C127.16 250.47 127.374 247.67 127.16 244.802C127.583 243.96 127.853 243.05 127.96 242.113C128.781 239.887 129.341 237.573 129.629 235.218C130.649 233.426 131.38 231.502 132.304 229.668C134.276 225.773 137.578 223.463 141.543 221.946C142.632 221.532 143.777 221.188 144.514 222.587C145.424 230.172 146.921 237.756 146.341 245.457C146.048 248.655 145.434 251.815 144.507 254.889C143.356 259.026 143.584 263.08 143.639 267.189C143.687 270.464 145.114 271.699 148.465 271.512C157.304 271.016 166.143 271.312 174.975 271.333C177.713 271.354 179.891 270.864 181.222 268.279Z" fill="#FEB2A5"/>
<path d="M358.968 170.478C357.044 169.843 357.913 169.057 358.74 168.085C360.898 165.548 363.829 163.948 366.256 161.77C367.442 163.466 368.91 165.038 368.572 167.354C368.455 167.899 367.959 168.147 367.442 168.513C368.379 168.713 368.821 168.126 369.407 167.906C373.84 179.344 373.026 190.465 367.297 201.242C364.07 207.323 360.092 209.068 353.452 207.509C351.28 206.772 348.626 207.323 346.943 205.241C346.695 204.862 346.488 204.455 346.254 204.069C345.475 202.883 343.496 201.918 344.392 200.38C345.171 199.063 347.15 199.925 348.529 199.76C351.473 199.429 354.369 200.49 357.623 200.208C356.506 197.45 353.038 196.257 353.487 192.968C353.252 191.3 354.176 190.328 355.555 189.597C357.851 187.894 360.995 189.514 363.463 187.577C361.347 185.232 359.402 182.881 357.348 180.62C357.148 178.241 358.989 178.551 360.354 178.448C363.036 178.248 365.794 178.696 368.627 177.31C365.525 174.601 361.629 173.367 358.968 170.478Z" fill="#FFD79F"/>
<path d="M28.806 219.243C22.7386 216.009 16.7126 216.967 10.6315 219.298C9.67998 219.663 8.34239 221.449 7.35645 219.18C9.67308 213.527 13.5617 209.045 18.0364 205.032C18.7948 204.343 19.7394 203.915 19.8566 202.757C20.4634 201.64 21.1046 200.578 22.6559 200.889C25.0151 203.518 27.7005 205.835 30.6469 207.783C32.4051 211.975 31.3709 215.726 28.806 219.243Z" fill="#FBB68E"/>
<path d="M12.2729 177.137C13.1899 177.35 14.2517 176.937 15.0308 177.757C16.9338 178.791 18.3265 180.143 17.9887 182.584C16.0719 183.376 15.2308 180.956 13.6105 181.308C14.1897 182.287 12.6521 183.328 13.3003 184.28C13.2382 184.969 13.9415 184.569 13.4864 184.597C13.3347 184.597 13.314 184.521 13.314 184.335C13.2589 181.804 14.693 181.742 16.4098 182.611C18.5472 183.673 19.0849 185.865 19.8572 187.872C20.3606 189.371 20.3606 190.993 19.8572 192.491C18.3265 192.981 17.2509 192.264 16.3408 191.112C13.9587 189.707 11.9636 187.731 10.5355 185.362C8.53598 181.798 8.96345 179.729 12.2729 177.137Z" fill="#FFBE9D"/>
<path d="M364.87 159.872C362.637 160.113 360.403 160.458 358.162 160.562C357.148 160.562 355.604 161.348 355.17 159.989C354.852 159.01 356.307 158.521 357.045 157.859C358.21 156.804 359.327 155.687 360.492 154.598C362.161 156.156 363.926 157.673 364.87 159.872Z" fill="#FFD79F"/>
<path d="M16.375 191.113L19.8224 192.396C20.9075 193.598 21.7166 195.024 22.193 196.572C22.6694 198.12 22.8015 199.754 22.5803 201.359C21.3875 201.269 20.8221 202.372 19.8913 202.779C18.9674 198.787 18.3883 194.74 16.375 191.113Z" fill="#F9E7CB"/>
<path d="M359.548 153.742C358.169 154.928 356.748 156.072 355.411 157.307C354.356 158.279 353.515 158.41 352.853 156.955C352.453 156.079 351.102 155.479 351.729 154.335C352.225 153.432 353.384 153.907 354.246 153.763C355.659 153.535 357.252 153.914 358.3 152.508C359.1 152.515 359.217 153.225 359.548 153.742Z" fill="#FFD79F"/>
<path d="M347.295 204.95L353.452 207.508C351.577 208.087 348.826 206.211 347.937 209.479C345.71 207.728 342.972 206.28 343.883 202.661C345.627 202.488 346.309 203.943 347.295 204.95Z" fill="url(#paint1_linear_1_10874)"/>
<path d="M356.866 151.675C356.357 152.101 355.728 152.357 355.067 152.408C354.405 152.459 353.745 152.301 353.177 151.957C352.929 151.82 353.412 150.358 353.563 149.51C354.266 149.506 354.954 149.709 355.541 150.094C356.128 150.479 356.589 151.029 356.866 151.675Z" fill="#FFD79F"/>
<path d="M369.407 167.905C368.924 170.663 366.966 169.284 365.346 169.518C365.835 167.519 367.476 167.871 368.572 167.354L369.407 167.905Z" fill="#F4925F"/>
<path d="M143.86 222.083C138.096 223.58 134.035 226.972 131.87 232.619C131.504 233.57 131.615 234.997 130.132 235.301L129.67 235.094C128.719 234.273 128.505 233.06 128.022 231.984C127.261 230.21 127.05 228.247 127.416 226.351C127.682 225.361 127.853 224.347 127.926 223.325C128.55 220.486 129.511 217.731 130.787 215.12C131.153 214.21 131.434 213.268 131.628 212.307C132.58 209.59 133.435 206.881 131.628 204.171C130.973 203.261 130.174 202.468 129.477 201.592C127.655 199.359 126.361 196.743 125.692 193.939C125.457 193.249 125.279 192.541 125.161 191.822C125.099 190.099 124.63 188.306 126.016 186.831C126.871 184.266 127.595 181.639 128.622 179.136C130.691 174.103 133.917 170.076 138.964 167.67C142.467 166.002 144.522 163.009 145.956 159.507C147.735 155.17 149.279 150.73 152.588 147.179C158.008 141.367 163.551 139.967 170.894 142.794C171.916 143.28 173.081 143.376 174.169 143.063C178.568 141.655 183.281 141.552 187.738 142.766C188.462 141.387 187.634 140.243 187.538 139.057C187.255 135.734 186.711 132.403 189.668 129.763C190.254 129.239 190.475 128.108 190.544 127.232C191.144 119.648 196.06 115.47 202.327 112.416C204.089 111.563 205.938 110.906 207.843 110.457C213.879 108.976 219.507 106.164 224.315 102.225C226.851 100.056 229.701 98.2824 232.767 96.9645C238.973 94.4686 244.599 98.1021 244.675 104.769C244.675 106.148 244.73 106.645 246.343 106.838C250.79 107.389 252.5 111.064 250.225 115.215C247.68 119.752 243.859 123.442 239.235 125.826C238.421 126.267 237.022 126.115 237.111 127.639C237.07 129.446 235.787 130.507 234.629 131.583C234.187 132.055 233.576 132.333 232.93 132.355C232.283 132.377 231.655 132.141 231.182 131.7C229.961 130.687 230.347 129.459 231.016 128.287C231.388 127.702 231.854 127.183 232.395 126.75C234.753 124.681 234.608 123.302 231.85 121.806C229.976 120.898 227.862 120.606 225.811 120.972C218.123 121.91 212.456 125.998 208.346 132.431C205.588 136.72 205.899 141.091 208.008 145.531C209.346 148.351 211.297 150.764 213.207 153.191C214.889 155.329 215.276 157.728 215.076 160.307C214.993 161.334 214.986 162.52 213.828 162.927C212.669 163.333 211.876 162.506 211.104 161.823C210.166 160.982 209.325 160.038 208.346 159.224C206.685 157.845 204.761 156.735 202.734 158.066C200.562 159.493 201.803 161.513 202.458 163.32C202.617 163.697 202.85 164.038 203.142 164.325C203.435 164.611 203.781 164.837 204.161 164.988C210.828 168.263 211.352 169.263 209.642 176.709C208.56 181.439 206.243 185.424 201.9 187.961C196.501 193.146 192.84 199.565 189.124 205.943C187.006 209.575 185.187 213.372 183.684 217.299C181.726 218.319 180.34 216.871 178.775 216.182C171.528 209.638 171.666 199.152 179.057 192.946C180.048 192.162 181.211 191.624 182.45 191.374C185.125 190.685 186.752 188.858 187.828 186.445C188.158 185.7 188.386 184.852 187.628 184.231C186.869 183.611 185.883 183.887 185.083 184.404C183.842 185.197 183.553 186.658 182.76 187.768C181.967 188.878 181.015 189.837 179.609 189.216C177.989 188.527 178.726 187.072 178.975 185.9C179.292 184.411 180.223 183.211 181.084 181.991C184.904 176.613 184.766 171.648 180.74 166.581C176.996 161.837 172.335 157.721 170.398 151.709C169.901 150.185 168.695 150.082 167.302 150.488C162.837 151.77 159.031 154.71 156.663 158.707C155.891 159.955 155.974 160.844 157.077 162.016C158.849 163.94 158.532 164.823 155.932 165.319C155.315 165.398 154.733 165.651 154.254 166.05C153.775 166.448 153.42 166.974 153.23 167.567C150.801 173.144 149.053 178.994 148.024 184.99C147.052 191.195 149.644 196.104 155.319 198.703C160.145 200.937 160.517 201.579 159.118 206.929C157.89 211.638 156.443 216.251 151.864 218.953C149.141 219.932 146.997 222.27 143.86 222.083Z" fill="#180906"/>
<path d="M201.871 187.975C206.008 183.417 209.456 178.591 209.325 171.986C209.283 169.504 209.221 167.56 206.194 167.036C205.14 166.849 204.195 165.988 203.202 165.429C202.823 164.574 203.071 163.643 202.864 162.754C202.595 161.596 202.988 160.596 204.195 160.417C205.691 160.196 205.684 161.389 205.726 162.485C205.766 163.016 205.939 163.528 206.229 163.974C205.932 161.83 205.932 161.83 207.78 160.899C207.167 160.644 206.498 160.699 205.87 160.486C203.74 159.796 202.54 160.313 202.795 162.809C202.864 163.464 202.954 164.25 201.851 164.098C201.692 163.795 201.513 163.505 201.375 163.188C200.458 161.12 199.527 158.872 201.761 157.273C203.995 155.673 206.388 156.273 208.408 157.962C210.145 159.403 211.738 161.016 213.724 162.857C214.716 158.962 214.696 155.783 211.986 153.012C211.129 152.089 210.341 151.105 209.628 150.068C200.624 137.657 207.291 128.184 218.309 122.158C221.878 120.244 225.976 119.554 229.974 120.193C231.712 120.434 233.325 120.923 234.325 122.557C235.38 124.295 237.772 126.232 233.456 126.943C232.532 127.101 231.953 127.963 231.478 128.756C231.002 129.549 230.533 130.397 231.478 131.21C231.653 131.402 231.869 131.552 232.11 131.649C232.351 131.746 232.611 131.788 232.87 131.772C233.13 131.755 233.382 131.681 233.609 131.554C233.835 131.427 234.031 131.251 234.18 131.038C235.18 129.942 236.125 128.804 237.09 127.68C239.131 133.568 241.167 139.454 243.199 145.338C241.661 147.103 239.6 147.061 237.531 146.979C235.463 146.544 235.366 144.552 234.442 143.2C233.256 141.47 231.912 138.588 229.788 139.753C227.665 140.918 229.83 143.387 230.423 145.207C230.94 146.786 232.588 147.875 232.491 149.757C231.112 152.35 228.23 152.591 226.079 153.984C225.355 154.453 224.073 154.535 224.217 155.673C224.362 156.811 225.555 156.749 226.41 156.983C230.547 158.114 234.277 157.155 237.731 154.728C240.151 153.025 242.626 151.398 244.667 149.213C247.239 157.341 246.487 161.12 237.497 168.401C236.007 169.607 234.049 170.166 232.801 171.717C230.464 170.497 228.285 173.034 225.955 171.924C228.265 173.041 230.45 170.545 232.767 171.772C232.877 176.936 232.16 182.114 233.456 187.244C231.691 189.023 229.237 188.72 227.12 189.037C220.225 190.092 213.268 192.277 206.222 189.726C204.774 189.14 203.333 188.54 201.871 187.975Z" fill="#FBB68E"/>
<path d="M86.0256 177.219C86.5565 175.06 86.7151 172.971 84.4674 171.634C83.1298 170.848 83.7297 169.414 83.2057 168.366C83.572 167.718 84.1484 167.214 84.8397 166.938C88.6181 165.27 92.3343 165.656 96.0023 167.283C97.2089 167.745 98.4224 168.042 99.6566 167.345C102.525 164.167 105.951 162.615 110.337 163.381C110.953 163.515 111.593 163.502 112.204 163.343C112.815 163.184 113.38 162.883 113.853 162.464C110.35 164.829 105.696 162.002 101.78 163.843C99.629 162.891 100.105 161.085 100.401 159.423C100.891 156.927 101.249 154.473 99.7807 151.336C97.8846 154.831 97.7674 158.182 97.3951 161.436C97.1951 163.16 97.3055 164.967 95.0922 165.518C90.9554 164.546 87.0874 165.794 83.2884 167.269C83.1158 167.25 82.9523 167.182 82.8168 167.074C82.6813 166.965 82.5795 166.82 82.5231 166.656C82.1139 166.113 81.7906 165.511 81.5647 164.87C81.3476 163.329 80.7121 161.878 79.7275 160.673C78.7428 159.468 77.4466 158.557 75.98 158.037C72.8498 156.762 71.9741 153.466 71.1537 150.598C70.8665 149.666 70.9535 148.659 71.3963 147.79C71.839 146.921 72.6027 146.259 73.5255 145.944C75.8214 145.123 76.6833 143.607 76.4212 141.297C78.5931 143.524 79.317 147.612 77.9105 149.702C76.828 149.405 75.9248 148.536 74.6976 148.681C75.9524 148.619 76.8556 149.433 77.8829 149.957C78.3703 150.11 78.8067 150.394 79.1455 150.776C79.4843 151.159 79.7128 151.626 79.8066 152.129C79.6066 148.536 78.7241 144.965 78.8827 141.311C79.124 135.712 81.8888 132.809 87.4597 132.947C92.5894 133.065 97.6778 133.306 102.683 131.906C105.841 132.596 107.351 135.436 109.682 137.208C112.577 139.422 115.149 142.076 118.507 143.676C118.941 143.831 119.326 144.097 119.625 144.448C119.924 144.799 120.126 145.222 120.21 145.675C120.21 148.33 119.479 150.984 120.279 153.632C121.313 155.645 118.714 156.148 118.81 157.369C119.92 155.521 122.471 154.914 123.712 152.99C122.809 152.301 121.568 154.749 120.162 153.445C120.196 151.177 120.162 148.888 122.423 147.454C124.416 148.419 127.546 147.544 127.849 151.225C128.118 154.5 126.063 159.161 122.623 160.471C118.893 161.885 116.873 164.332 115.356 167.89C114.039 170.972 111.909 173.688 110.081 176.564C108.052 179.06 105.451 181.031 102.497 182.307C98.2156 184.32 94.2235 182.534 90.7279 179.887C89.2986 178.773 87.7145 177.874 86.0256 177.219Z" fill="#FFBE9D"/>
<path d="M119.844 145.538C113.301 142.435 108.723 136.836 103.207 132.438C97.002 132.327 90.8795 131.059 84.5915 131.259C80.4546 131.41 78.5723 128.866 78.9998 124.626C82.4472 117.304 89.2523 115.146 96.3815 113.994C107.489 112.202 120.947 118.945 126.574 128.714C128.045 131.069 128.939 133.739 129.18 136.506C129.359 139.705 128.904 142.711 125.429 144.221C123.416 143.917 122.037 146.337 119.844 145.538Z" fill="#E89062"/>
<path d="M126.581 193.898C127.047 196.768 128.4 199.42 130.449 201.482C130.449 203.551 128.746 203.757 127.408 204.178C118.514 206.901 109.163 207.803 99.9121 206.832C97.0784 206.57 94.2032 206.633 91.3833 206.053C79.1382 203.557 69.8441 196.401 61.7772 187.32C61.4187 185.404 62.4253 184.493 64.1559 184.121C65.6521 184.755 67.1276 181.405 68.6375 184.121C71.7884 186.107 73.4638 189.554 76.4493 191.809C84.3437 197.745 93.1759 199.345 102.725 198.662C109.94 198.126 117.027 196.463 123.727 193.732C124.623 193.353 125.698 192.871 126.581 193.898Z" fill="#FFEBCF"/>
<path d="M86.0257 177.22C87.9976 175.993 89.1421 177.469 90.4315 178.537C93.4789 181.075 96.7884 182.888 100.946 181.985C103.704 181.405 105.434 179.075 107.765 177.751C108.53 177.317 109.061 176.476 110.088 176.517C111.398 179.53 114.136 180.985 116.742 182.578C117.673 183.143 119.003 183.267 119.058 184.743C117.038 188.073 113.543 189.569 110.288 190.948C106.865 192.467 103.17 193.28 99.4256 193.338C95.6808 193.396 91.9627 192.698 88.494 191.286C85.0779 189.958 81.7699 188.368 78.6001 186.528C77.6072 185.949 76.5937 185.37 76.373 184.081C77.0143 182.584 78.3381 182.764 79.5998 182.702C84.5502 182.571 84.8881 182.274 86.0257 177.22Z" fill="#FFBE9D"/>
<path d="M76.3663 184.08C82.675 188.113 89.2319 191.595 96.8437 192.353C105.352 193.174 112.419 189.554 119.059 184.769C121.623 184.617 124.05 184.907 126.002 186.838C126.002 188.676 126.002 190.496 126.002 192.298C122.554 195.256 118.114 195.884 113.991 196.973C104.835 199.407 95.513 199.779 86.2878 197.152C79.5586 195.235 74.2565 191.202 70.2093 185.514C69.9503 185.13 69.8513 184.66 69.9335 184.204C72.0295 182.418 74.2289 184.852 76.3663 184.08Z" fill="#FFEBCF"/>
<path d="M237.18 146.332L243.22 145.305C243.707 146.587 244.201 147.87 244.702 149.152C244.599 149.917 244.895 150.834 244.116 151.372C238.525 155.226 233.236 160.018 225.542 157.715C224.397 157.377 222.846 157.495 222.605 155.861C222.343 154.075 223.949 154.096 225.025 153.565C227.465 152.358 229.851 151.069 232.278 149.814C234.14 149 236.18 148.407 237.18 146.332Z" fill="#1D0805"/>
<path d="M79.028 124.619C79.5176 129.121 80.8138 130.404 85.2816 130.314C91.3696 130.183 97.3957 130.314 103.208 132.431C98.3816 134.396 93.4105 134.148 88.3497 133.858C82.0066 133.486 79.8002 135.713 79.9175 142.132C79.9933 146.269 80.4897 150.337 80.8276 154.811C79.1935 153.356 79.4072 150.674 77.0837 150.254C76.5321 149.475 76.5252 148.951 77.6836 148.978C78.242 146.22 76.7734 143.849 76.4287 141.263C76.4287 137.374 76.7941 133.548 79.3038 130.328C79.8899 129.576 79.5796 129.183 79.1039 128.625C78.588 128.09 78.2935 127.38 78.2794 126.637C78.2654 125.894 78.5328 125.173 79.028 124.619Z" fill="#ECA37D"/>
<path d="M69.9061 184.197C79.4967 197.773 93.2172 199.49 108.179 197.407C114.336 196.546 120.127 194.291 125.974 192.291C126.174 192.829 126.374 193.367 126.581 193.898C122.127 195.277 117.714 196.739 113.226 197.966C106.265 199.86 98.9861 200.285 91.8521 199.214C81.8133 197.759 73.9257 192.96 68.665 184.107L69.9061 184.197Z" fill="#FFCA9D"/>
<path d="M64.156 184.128C63.4252 185.032 62.6875 185.928 61.9566 186.824C61.9108 187.06 61.8067 187.281 61.6537 187.466C61.5008 187.652 61.3039 187.796 61.081 187.886C60.8584 187.958 60.6221 187.977 60.391 187.941C60.1599 187.905 59.9405 187.815 59.7503 187.679C59.3987 186.624 59.7503 185.314 58.6747 184.508C58.2128 182.308 58.6333 180.447 60.6811 179.185C61.0396 178.964 61.0603 178.868 60.9431 178.695C59.2608 176.165 61.5774 175.937 62.9219 175.145C61.736 174.972 60.9982 176.324 59.7641 176.158C58.1024 175.338 59.5779 174.524 59.7641 173.704C59.8054 173.4 59.8399 173.097 59.8813 172.793C61.3912 171.994 62.4392 169.774 64.618 171.001C66.7967 172.228 66.7623 174.317 66.7898 176.42C66.8312 179.316 65.3626 181.674 64.156 184.128Z" fill="#FFBE9D"/>
<path d="M119.845 145.538C121.637 144.793 123.326 143.635 125.429 144.159C124.05 144.904 122.141 145.131 122.43 147.407C121.764 149.53 121.097 151.656 120.431 153.784L120.5 153.729C117.742 152.909 119.569 150.675 119.121 149.144C118.984 148.526 118.978 147.886 119.103 147.265C119.227 146.644 119.48 146.056 119.845 145.538Z" fill="#ECA37D"/>
<path d="M323.04 157.715C324.626 159.018 326.349 160.238 325.757 163.1C324.536 161.486 323.971 159.652 322.309 158.777C322.026 158.632 321.489 158.411 321.509 158.349C321.709 157.501 322.537 158.004 323.04 157.715Z" fill="#350F09"/>
<path d="M319.165 165.574C321.792 165.084 322.799 166.194 322.227 169.311C321.537 167.242 321.006 165.408 318.965 167.725C318.559 168.187 318.462 167.304 318.331 166.946C318.614 166.491 318.89 166.036 319.165 165.574Z" fill="#350F09"/>
<path d="M84.7159 167.705L83.206 168.395C80.0551 167.926 80.0551 167.926 79.207 165.023C80.4895 165.492 80.8825 167.63 82.551 166.664V166.954C83.1508 167.568 84.254 166.754 84.7159 167.705Z" fill="#ECA37D"/>
<path d="M294.338 153.742C296.59 159.937 297.189 166.612 296.075 173.11C294.8 172.972 294.8 171.896 294.744 171.041C294.565 168.325 292.924 168.187 290.897 168.793C288.36 169.559 286.705 171.193 286.581 173.93C286.457 176.667 287.27 179.149 290.084 180.39C291.111 180.845 292.324 180.976 292.986 182.066C290.918 186.692 287.401 190.119 283.63 193.304C282.799 194.032 281.772 194.499 280.677 194.647C279.582 194.795 278.468 194.619 277.473 194.139C272.171 191.767 267.517 188.54 264.449 183.424C264.339 181.942 265.697 182.045 266.517 181.583C270.999 179.122 271.654 174.261 267.896 170.683C267.265 170.192 266.824 169.497 266.648 168.718C266.648 166.856 267.572 165.842 269.627 165.608C269.017 165.556 268.407 165.701 267.887 166.023C267.367 166.345 266.964 166.825 266.738 167.394C265.097 170.393 260.808 171.317 259.154 169.028C258.719 164.119 257.857 159.203 259.56 154.356C260.848 153.867 262.21 153.601 263.587 153.57C272.419 153.742 281.203 152.446 290.042 152.749C291.552 152.784 293.028 152.742 294.338 153.742Z" fill="#FFBE9D"/>
<path d="M294.337 153.743C283.208 153.653 272.115 154.432 261.014 154.942C260.745 155.001 260.465 154.978 260.21 154.876C259.954 154.774 259.735 154.598 259.58 154.37C261.649 147.096 269.267 140.691 275.845 140.649C284.574 140.567 292.116 145.903 294.337 153.743Z" fill="#FFC6A8"/>
<path d="M311.933 194.298C312.443 193.043 312.767 193.698 313.05 194.415C314.656 198.469 316.862 201.261 321.889 201.716C324.929 201.992 325.922 205.722 326.929 208.487C327.935 211.252 326.122 212.968 324.288 214.603C324.081 213.617 323.867 212.631 323.599 211.459C320.392 212.341 318.807 215.83 315.525 216.457C314.316 209.066 313.119 201.68 311.933 194.298Z" fill="url(#paint2_linear_1_10874)"/>
<path d="M267.117 168.028C267.406 168.635 267.558 169.635 267.999 169.78C271.626 171.014 271.26 174.13 271.129 176.805C270.964 180.301 268.682 182.231 265.255 182.824C264.959 182.88 264.717 183.21 264.448 183.41C261.18 179.163 259.739 174.247 259.174 169.007C261.373 170.055 265.165 168.952 266.42 166.891C267.186 166.946 266.744 167.739 267.117 168.028Z" fill="#FFB590"/>
<path d="M292.986 182.052C286.905 180.577 284.712 177.75 285.808 172.841C286.263 171.078 287.371 169.554 288.907 168.578C290.443 167.601 292.293 167.244 294.082 167.58C295.234 167.828 295.509 168.435 295.585 169.456C295.675 170.676 295.22 171.979 296.109 173.082C295.87 176.294 294.793 179.387 292.986 182.052Z" fill="#FFB590"/>
<path d="M179.105 215.72L183.656 217.312C178.83 232.591 178.616 248.146 180.898 263.845C181.105 265.314 181.132 266.803 181.25 268.278C181.629 271.546 180.284 272.477 176.961 272.463C167.308 272.463 157.725 271.96 148.1 272.746C145.018 272.994 142.584 271.857 142.46 267.644C142.315 261.108 143.694 254.923 144.845 248.566C145.9 242.768 146.142 236.618 144.342 230.64C143.549 227.992 144.004 224.966 143.887 222.111L151.354 218.484C159.91 219.133 168.522 220.298 176.499 215.727C176.895 215.497 177.344 215.376 177.801 215.375C178.259 215.374 178.708 215.493 179.105 215.72Z" fill="#FEF4E6"/>
<path d="M335.974 230.964C335.326 226.648 337.532 223.069 341.049 222.725C339.911 225.807 337.574 228.206 335.974 230.964Z" fill="#FFBE9D"/>
<path d="M28.8066 219.244C29.7099 215.397 31.5645 211.66 30.1029 207.557C30.741 207.287 31.4572 207.268 32.1092 207.502C38.8247 209.026 44.9817 206.971 51.0698 204.544C56.2133 202.476 56.2064 202.476 58.8747 206.613C60.9431 209.371 62.322 212.666 64.6318 215.286C64.8693 215.537 65.0074 215.866 65.0201 216.211C65.0328 216.556 64.9192 216.894 64.7007 217.162C62.0669 225.759 56.165 230.655 47.4638 232.33C43.7062 229.717 40.8518 226.021 36.9562 223.553C34.3362 221.919 31.8748 220.023 28.8066 219.244Z" fill="#FFBE9D"/>
<path d="M64.7004 217.174C62.6872 213.685 59.8741 210.7 58.4331 206.832C56.475 203.598 57.0542 200.806 59.8603 198.379C61.8391 198.379 62.8044 199.965 63.9972 201.137C67.9268 204.983 72.2719 208.38 76.9524 211.265C82.7785 214.782 89.2595 216.092 95.9061 216.822C104.814 217.822 113.688 218.112 122.547 216.264C124.802 215.795 126.905 214.885 129.146 214.437C129.987 214.264 131.393 213.347 131.517 215.347L128.608 223.29C127.188 224.669 125.305 224.813 123.52 225.006C110.767 226.432 97.8718 225.932 85.2675 223.524C80.9583 222.331 76.5663 221.4 72.4088 219.697C70.3403 219.098 68.2168 218.677 66.5275 217.202L64.7004 217.174Z" fill="#FFEBCF"/>
<path d="M128.242 225.978C127.753 228.212 128.325 230.35 128.828 232.494C128.518 233.783 127.449 233.914 126.422 233.976C117.983 234.514 109.606 233.115 101.173 233.204C100.485 233.12 99.8508 232.789 99.3876 232.273C95.43 229.564 91.0656 227.599 86.8047 225.434C87.9768 224.344 89.3764 224.655 90.7278 224.827C102.113 226.288 113.64 226.276 125.022 224.793C126.319 224.634 127.615 224.455 128.242 225.978Z" fill="#FFEBCF"/>
<path d="M127.263 255.64C127.429 258.734 126.979 261.829 125.939 264.748C119.722 266.802 113.009 266.802 106.792 264.748L106.275 254.406C106.64 254.039 107.089 253.766 107.583 253.611C108.076 253.456 108.6 253.424 109.109 253.516C114.749 254.206 120.423 254.461 126.07 255.04C126.518 255.119 126.933 255.328 127.263 255.64Z" fill="#FFEBCF"/>
<path d="M130.132 235.301C130.504 237.901 129.684 240.272 128.705 242.61C127.726 243.582 126.478 243.637 125.195 243.72C118.99 244.127 112.847 243.079 106.662 242.975C105.614 242.975 104.594 242.748 104.035 241.672C102.27 239.542 102.298 236.418 100.105 234.515C101.595 232.985 103.505 233.322 105.27 233.536C107.993 233.867 110.73 233.902 113.454 234.122C117.66 234.467 121.838 234.812 126.05 234.122C127.425 233.951 128.817 234.234 130.015 234.929C130.085 235.041 130.126 235.169 130.132 235.301Z" fill="#FFEBCF"/>
<path d="M127.416 245.057C128.739 246.726 128.015 251.449 126.175 253.2C121.652 254.986 116.97 254.138 112.385 253.669C110.248 253.448 107.731 254.076 105.87 252.255C105.249 249.387 104.624 246.517 103.994 243.644C105.704 242.182 107.772 242.92 109.51 243.154C114.385 243.844 119.252 243.644 124.127 243.761C125.361 243.789 126.692 243.699 127.416 245.057Z" fill="#FFEBCF"/>
<path d="M128.243 225.979C126.236 224.731 124.271 225.979 122.334 226.158C111.254 227.385 100.222 227.537 89.239 225.565C88.4543 225.472 87.6641 225.433 86.8741 225.448L83.2267 224.186C82.6545 222.552 83.3922 222.221 84.8194 222.593C91.6452 223.372 98.4297 224.551 105.324 224.731C113.128 224.89 120.931 224.413 128.656 223.304C128.518 224.186 128.932 225.151 128.243 225.979Z" fill="#FFCA9D"/>
<path d="M130.015 234.934C120.024 236.375 110.075 234.617 100.105 234.514C99.878 233.769 99.6435 233.025 99.416 232.273C107.69 231.949 115.963 233.087 124.203 233.018C125.754 233.018 127.409 233.507 128.863 232.494L130.015 234.934Z" fill="#FFCA9D"/>
<path d="M127.414 245.056C119.594 245.016 111.782 244.544 104.014 243.643V241.678C112.232 242.16 120.43 243.008 128.683 242.609C128.931 243.781 128.828 244.753 127.414 245.056Z" fill="#FFCA9D"/>
<path d="M105.89 252.256C112.653 252.559 119.39 253.393 126.174 253.2C127.401 253.628 127.436 254.579 127.263 255.641C120.224 255.91 113.274 254.676 106.269 254.373C106.179 253.662 106.021 252.959 105.89 252.256Z" fill="#FFCA9D"/>
<path d="M68.0031 243.292C67.7549 241.582 66.3966 241.996 65.3624 241.996C62.0874 241.955 58.8193 241.9 55.5511 241.996C53.4827 242.079 52.6347 241.245 52.8898 239.238C54.8686 240.721 56.7922 241.5 59.5087 240.803C61.9839 240.162 64.7349 240.59 67.3618 240.597C68.1134 240.597 69.0855 240.431 69.2786 241.534C69.4441 242.499 68.8649 243.03 68.0031 243.292Z" fill="#F9BA83"/>
<path d="M84.8052 222.58C83.8744 222.705 83.2263 223.125 83.2125 224.173C78.9102 223.332 74.9388 221.457 70.9054 219.905C70.7054 218.602 71.5328 218.981 72.2085 219.112L84.8052 222.58Z" fill="#FFCA9D"/>
<path d="M72.2505 259.88L65.4385 254.109C68.4653 253.771 70.8302 258.067 73.5605 254.426C73.7864 254.395 74.0165 254.426 74.2261 254.516C74.4357 254.606 74.6169 254.751 74.7502 254.936C74.8835 255.121 74.9638 255.339 74.9826 255.566C75.0013 255.793 74.9578 256.021 74.8567 256.226C74.2913 258.032 72.4435 256.626 71.4093 257.487L72.2505 259.88Z" fill="#F4B17A"/>
<path d="M72.1878 219.113C71.6983 219.285 71.1053 219.285 70.8847 219.906C68.7198 220.154 67.2994 219.216 66.541 217.203C68.5819 217.369 70.3745 218.265 72.1878 219.113Z" fill="#FFCA9D"/>
<path d="M333.017 191.664C328.439 191.664 325.116 188.389 325.185 183.983C325.247 180.26 328.866 177.164 333.148 177.178C337.712 177.178 340.394 180.053 340.339 184.824C340.284 189.064 337.457 191.705 333.017 191.664Z" fill="#F5B391"/>
<path d="M345.2 199.056C343.29 196.801 344.448 195.229 346.613 194.54C348.275 194.016 350.06 193.416 351.929 193.767C354.459 194.581 355.163 197.146 356.755 198.849C357.293 199.421 356.755 200.524 356.066 200.359C352.515 199.476 348.647 200.952 345.2 199.056Z" fill="#FFD79F"/>
<path d="M345.199 199.055C348.861 199.71 352.604 198.849 357.017 200.345L351.936 193.767C351.474 191.623 352.694 192.719 353.473 192.967C354.629 194.963 356.018 196.815 357.61 198.483C358.231 199.104 359.217 199.738 358.617 200.779C358.017 201.82 356.955 201.331 356.1 201.282C352.342 201.055 348.599 200.752 344.834 200.469C344.613 202.655 347.702 202.834 347.295 204.978C345.97 204.522 344.783 203.734 343.848 202.689C343.103 201.014 342.972 199.593 345.199 199.055Z" fill="#F4925F"/>
<path d="M353.397 184.079C353.239 182.7 354.935 182.211 354.886 180.887C357.079 179.687 358.12 181.576 359.389 182.659C360.161 183.3 360.609 184.3 361.285 185.093C361.96 185.886 363.753 186.741 362.953 188.085C362.347 189.106 360.699 188.947 359.451 188.899C358.203 188.85 356.693 189.271 355.5 188.209C355.41 186.52 354.204 185.403 353.397 184.079Z" fill="#FFD79F"/>
<path d="M355.5 188.217H362.533L362.898 187.445C360.03 185.48 358.934 181.577 354.887 180.909C355.004 180.157 355.576 180.012 356.183 179.971C356.983 179.523 357.238 180.405 357.769 180.612C360.678 182.157 362.119 185.183 364.491 187.286C365.484 188.169 364.898 188.865 363.671 189.051C360.977 189.53 358.241 189.717 355.507 189.61C355.5 189.134 355.5 188.665 355.5 188.217Z" fill="#F4925F"/>
<path d="M322.675 189.229C318.034 192.118 315.159 190.25 314.808 183.762C315.835 185.83 315.876 187.761 317.476 188.822C319.075 189.884 320.841 189.705 322.675 189.229Z" fill="#350F09"/>
<path d="M335.154 168.105C337.188 164.658 340.263 164.527 344.117 167.96C340.656 166.533 337.843 166.299 335.154 168.105Z" fill="#350F09"/>
<path d="M339.05 175.433C338.361 174.137 339.781 172.448 338.202 171.462C336.623 170.476 336.175 172.951 334.334 172.841C335.485 171.131 336.644 169.511 338.581 170.462C340.836 171.593 339.477 173.737 339.05 175.433Z" fill="#350F09"/>
<path d="M16.2027 177.791C15.1202 170.772 14.279 163.767 15.6097 156.659C16.0372 154.397 17.0231 153.418 19.2915 153.763C20.7762 153.994 22.2954 153.714 23.6007 152.97C24.1799 152.66 25.1038 152.28 25.5244 152.501C28.9717 154.507 32.1433 153.004 35.3976 151.963C36.1693 151.775 36.9791 151.816 37.7281 152.08C38.8503 152.522 40.0813 152.609 41.2542 152.327C42.4271 152.046 43.4851 151.411 44.285 150.508C46.2845 148.502 49.1113 148.647 51.7037 148.385C52.2312 148.353 52.7533 148.506 53.1808 148.817C53.6083 149.127 53.9148 149.577 54.0479 150.088C55.4269 153.956 57.2954 157.672 57.0885 161.968C57.7241 165.93 57.5694 169.979 56.6335 173.882C55.8657 176.649 55.3715 179.485 55.158 182.348C54.9305 185.872 53.9238 187.175 50.3317 187.478C43.9456 188.086 37.6843 189.633 31.7503 192.07C29.5923 192.911 27.9168 191.925 26.5241 190.408C22.8837 186.396 18.7468 182.748 16.2027 177.791Z" fill="#FFBE9D"/>
<path d="M16.2029 177.792C20.057 181.115 22.939 185.314 26.3795 189.017C28.641 191.45 30.3371 191.712 33.688 190.327C37.9351 188.568 42.527 186.879 47.3603 186.879C53.5655 186.824 53.7103 186.527 54.3515 180.474C54.6756 177.44 55.6133 174.482 56.2752 171.511C56.9282 168.388 57.2014 165.198 57.0888 162.01C58.0678 165.409 58.2057 168.905 58.4677 172.407C58.5229 173.145 58.0058 174.593 59.7639 173.745C60.0673 174.434 58.9848 175.186 59.7639 175.882C60.6602 177.64 59.1572 179.054 59.0744 180.667C59.0193 182.046 58.0954 183.425 59.0744 184.804C60.8947 185.362 59.8673 186.624 59.7639 187.658C61.5014 190.471 61.198 193.684 61.5497 196.773C61.5497 197.876 60.7223 198.297 59.8742 198.683C58.3712 201.22 56.8405 203.757 58.316 206.867C57.1508 207.329 56.9371 207.315 56.9922 206.495C57.2473 202.447 55.3237 203.585 53.0691 204.633C46.2778 207.777 39.2244 209.77 31.6264 208.66C31.0404 208.577 30.5302 207.97 29.9855 207.57C26.4209 206.777 24.1181 204.433 22.4013 201.365C21.482 198.386 20.5627 195.399 19.6434 192.402C19.1056 191.085 19.8364 189.561 18.9539 188.306C19.864 186.114 17.3129 184.769 17.5749 182.735C17.0086 180.914 16.0851 179.224 14.8584 177.764L16.2029 177.792Z" fill="#FFB590"/>
<path d="M356.32 177.668C357.775 175.916 356.389 172.924 358.94 171.648C362.167 171.828 364.139 174.303 366.587 175.882C367.876 176.716 367.352 178.019 366.228 178.171C362.932 178.612 359.533 179.426 356.32 177.668Z" fill="#FFD79F"/>
<path d="M356.321 177.668C360.008 178.114 363.739 178.047 367.408 177.468C364.539 174.827 361.664 173.331 358.941 171.649C358.941 171.256 358.941 170.87 358.941 170.477C362.83 171.656 365.656 174.724 369.283 176.337C369.897 176.606 370.552 177.096 370.421 177.868C370.269 178.771 369.386 178.557 368.759 178.654C365.841 179.168 362.883 179.429 359.92 179.433C359.093 179.433 357.665 178.743 357.721 180.598L356.135 179.957C356.231 179.198 356.28 178.433 356.321 177.668Z" fill="#F4925F"/>
<path d="M364.429 161.438L357.741 167.029C355.576 161.362 354.431 162.286 364.429 161.438Z" fill="#FFD79F"/>
<path d="M360.416 194.953C363.919 194.505 364.091 194.567 366.366 196.814C364.043 197.649 362.54 196.532 360.416 194.953Z" fill="#F4925F"/>
<path d="M366.146 182.701C368.317 181.97 369.779 181.673 371.241 183.142C369.558 184.473 368.179 184.321 366.146 182.701Z" fill="#F4925F"/>
<path d="M352.412 203.924C354.398 204.213 356.294 204.613 357.459 207.047C354.922 206.833 353.784 205.144 352.412 203.924Z" fill="#F4925F"/>
<path d="M17.7541 182.701C18.023 184.604 21.1532 185.803 19.1331 188.272C18.6155 186.885 18.0193 185.529 17.3473 184.211C16.7751 183.211 15.7684 182.28 14.5136 182.832C12.8313 183.611 14.1688 184.748 14.4308 185.727C14.5343 186.134 15.01 186.472 14.5412 187.031C14.1988 186.899 13.8867 186.7 13.6239 186.444C13.3611 186.188 13.1531 185.882 13.0125 185.543C12.8719 185.205 12.8017 184.841 12.8061 184.474C12.8105 184.108 12.8894 183.746 13.0381 183.411C13.7276 181.529 12.2866 181.342 10.6318 180.563C14.0309 179.894 15.9132 181.239 17.7541 182.701Z" fill="#FFB590"/>
<path d="M179.105 215.719C176.181 216.14 173.927 218.139 171.107 219.001C165.005 220.87 158.931 219.691 152.85 219.691C152.339 219.691 151.836 218.884 151.326 218.45C156.697 214.651 157.869 208.797 159.02 202.888C159.331 201.309 158.331 200.889 157.207 200.51C147.382 197.207 145.417 189.561 147.858 180.701C149.285 175.537 151.305 170.586 153.015 165.532C153.47 164.216 153.994 163.464 155.449 164.422C156.138 164.864 157.131 165.284 157.573 164.422C157.666 164.208 157.708 163.974 157.693 163.74C157.679 163.506 157.61 163.279 157.49 163.077C157.371 162.875 157.206 162.704 157.008 162.578C156.81 162.453 156.585 162.376 156.352 162.354C153.891 161.995 154.463 160.775 155.242 159.307C158.165 153.791 162.826 150.571 168.776 149.013C169.797 148.744 170.735 148.516 170.997 150.13C171.748 154.77 174.692 158.169 177.671 161.54C179.112 163.174 180.573 164.795 181.911 166.512C185.944 171.662 185.882 177.391 181.773 182.535C180.566 183.923 179.737 185.6 179.367 187.403C179.27 187.968 179.098 188.589 179.753 188.913C180.408 189.237 180.773 188.602 181.201 188.285C182.38 187.403 182.421 185.844 183.269 184.762C184.648 182.997 186.475 181.646 188.564 182.956C190.495 184.162 189.178 186.072 188.461 187.561C187.379 189.802 185.793 191.939 183.269 192.201C177.995 192.753 176.45 196.931 175.058 200.696C172.941 206.398 174.892 211.479 179.105 215.719Z" fill="#FFBE9D"/>
<path d="M61.0599 197.117C60.1222 194.021 60.2463 190.801 59.8809 187.637L61.1081 187.768C63.8247 188.898 65.3691 191.422 67.4858 193.284C74.6632 199.489 82.3095 204.929 91.9346 206.349C104.262 208.162 116.521 207.797 128.477 203.736C129.663 203.336 130.814 202.743 132.11 203.302C134.275 206.349 134.048 209.403 132.11 212.458C128.139 215.595 123.257 216.353 118.569 216.595C109.571 217.05 100.532 217.153 91.5278 215.843C82.7094 214.561 75.3044 210.507 68.6303 204.908C65.8793 202.55 62.5974 200.661 61.0599 197.117Z" fill="#FFEBCF"/>
<path d="M61.0599 197.117C64.9141 200.337 68.7269 203.619 72.6362 206.77C80.7927 213.361 90.4936 215.188 100.608 215.767C111.309 216.381 121.913 216.291 132.124 212.424C132.124 213.437 132.359 214.492 131.531 215.34C130.945 214.044 130.118 215.071 129.552 215.257C114.46 220.297 99.2155 219.236 84.1987 215.492C76.187 213.499 69.899 208.004 63.9626 202.392C62.6526 201.144 61.315 199.916 59.9912 198.682C60.3497 198.144 60.6738 197.627 61.0599 197.117Z" fill="#FFCA9D"/>
<path d="M132.104 203.275C122.299 206.846 112.233 208.239 101.767 208.212C84.6542 208.163 71.823 200.221 61.0879 187.769L61.9566 186.838C65.6936 190.389 69.3892 193.967 73.595 196.987C80.731 202.117 88.4463 205.261 97.4025 205.771C107.552 206.378 117.549 206.329 127.34 203.261C128.45 202.91 129.953 203.054 130.442 201.517L132.104 203.275Z" fill="#FFCA9D"/>
<path d="M201.851 164.085C203.099 162.871 200.913 160.099 204.009 159.631C205.912 159.341 207.725 159.879 209.938 162.106C208.745 162.795 207.539 160.451 206.677 161.899C205.601 163.705 207.773 164.581 208.538 166.27C207.697 166.07 206.933 165.625 206.345 164.99C205.757 164.355 205.371 163.56 205.236 162.706C205.084 162.078 205.787 160.83 204.333 161.058C203.105 161.251 203.064 162.333 203.471 163.202C203.878 164.071 203.402 164.719 203.202 165.443C202.867 165.376 202.56 165.212 202.319 164.97C202.078 164.728 201.915 164.42 201.851 164.085Z" fill="#ECA37D"/>
<path d="M237.18 146.331C237.18 149.827 235.339 150.661 232.277 149.813C230.898 147.255 228.885 144.987 228.313 142.008C228.051 140.63 227.499 139.195 228.913 138.306C230.326 137.417 231.443 138.623 232.539 139.382C234.98 141.085 235.545 144.091 237.18 146.331Z" fill="#ECA37D"/>
<path d="M219.798 135.644C220.639 135.865 222.038 135.272 222.142 136.802C222.225 137.961 221.487 138.636 220.197 138.629C218.357 138.629 217.019 139.615 215.847 140.953C215.288 141.58 214.654 142.621 213.634 141.76C212.793 141.07 213.192 139.96 213.634 139.236C214.221 138.12 215.111 137.191 216.2 136.556C217.29 135.921 218.537 135.605 219.798 135.644Z" fill="#290905"/>
<path d="M220.274 142.877C221.488 143.029 221.957 143.932 222.081 144.987C222.184 145.821 221.874 146.655 220.867 146.724C219.861 146.793 219.268 146.035 219.068 145.035C218.993 144.814 218.966 144.58 218.988 144.349C219.009 144.117 219.079 143.892 219.193 143.689C219.306 143.485 219.461 143.308 219.648 143.168C219.834 143.029 220.047 142.929 220.274 142.877Z" fill="#4B0F08"/>
<path d="M238.11 137.272C238.055 138.209 237.669 138.926 236.731 138.899C235.511 138.899 235 137.982 234.959 136.865C234.959 135.996 235.345 135.238 236.29 135.279C237.482 135.327 237.951 136.237 238.11 137.272Z" fill="#3D150B"/>
<path d="M232.194 160.32L239.937 157.879C237.607 160.016 235.676 161.05 232.194 160.32Z" fill="#ECA37D"/>
<path d="M232.787 171.718C229.995 171.718 227.271 173.055 223.493 171.993C226.941 171.559 229.581 171.552 232.077 170.752C232.615 170.58 232.705 171.249 232.822 171.663L232.787 171.718Z" fill="#ECA37D"/>
<path d="M94.7889 164.925C96.6229 164.574 96.5126 163.181 96.5401 161.781C96.5579 158.392 97.1765 155.033 98.3673 151.86C98.7258 150.936 99.298 149.791 100.512 150.033C101.525 150.226 100.973 151.412 101.201 152.101C102.016 154.601 102.016 157.296 101.201 159.796C100.856 161.057 100.318 162.498 101.89 163.471C101.89 164.371 101.703 165.261 101.34 166.085C100.976 166.909 100.445 167.648 99.7807 168.255C99.2702 168.648 98.6422 168.858 97.9981 168.85C97.354 168.843 96.7311 168.619 96.2299 168.214C95.5335 167.207 94.6992 166.277 94.7889 164.925Z" fill="#ECA37D"/>
<path d="M94.7887 164.926C95.7747 165.794 96.5331 166.766 96.2504 168.201C92.4652 166.594 88.6662 166.201 84.7155 167.704C83.9778 167.518 83.047 167.849 82.5781 166.925C86.4737 165.181 90.3209 163.098 94.7887 164.926Z" fill="#ECA37D"/>
<path d="M99.8018 168.222C100.422 166.595 100.533 164.733 101.912 163.437C103.976 162.41 106.313 162.065 108.586 162.451C110.999 162.83 113.502 163.071 115.77 160.072C115.081 163.389 113.012 163.92 111.399 163.857C106.828 163.699 102.946 164.857 99.8018 168.222Z" fill="#ECA37D"/>
<path d="M120.431 153.812C124.051 151.923 124.161 151.937 126.216 155.005C124.644 154.177 123.541 153.047 122.217 154.088C122.272 155.225 123.837 154.874 124.051 156.156C120.886 155.122 119.135 156.77 117.99 159.569C117.715 157.004 119.314 155.467 120.5 153.743L120.431 153.812Z" fill="#ECA37D"/>
<path d="M112.109 154.55C111.081 153.261 112.109 151.434 110.399 151.055C108.496 150.62 108.213 152.703 106.627 153.847C106.593 152.979 106.833 152.122 107.313 151.398C107.794 150.674 108.489 150.12 109.302 149.814C109.771 149.588 110.307 149.548 110.804 149.7C111.301 149.852 111.722 150.185 111.984 150.634C112.798 151.82 113.225 153.054 112.109 154.55Z" fill="#350F09"/>
<path d="M92.2659 151.936C90.8456 151.164 91.4248 148.916 89.577 149.033C87.7292 149.151 87.7844 151.102 86.695 152.012C86.5226 149.999 87.0535 148.054 89.3633 147.875C91.9212 147.634 92.2728 149.654 92.2659 151.936Z" fill="#350F09"/>
<path d="M102.263 168.953C99.9326 171.022 97.3195 172.173 94.0996 171.277L102.263 168.953Z" fill="#FDFDFD"/>
<path d="M116.039 146.531C114.287 144.194 112.115 143.477 109.344 144.711C112.943 142.525 114.853 143.042 116.039 146.531Z" fill="#350F09"/>
<path d="M77.6835 148.985C77.4476 149.091 77.2575 149.278 77.1475 149.512C77.0375 149.746 77.0148 150.012 77.0836 150.261C75.7047 149.33 74.3809 148.592 72.7744 149.751C74.0775 147.668 75.7392 147.648 77.6835 148.985Z" fill="#ECA37D"/>
<path d="M59.1639 184.77C57.6263 182.702 58.4192 180.523 58.8881 178.379C59.1351 177.508 59.4415 176.656 59.8051 175.827C61.6942 174.393 63.542 173.497 65.3898 176.751C63.3214 175.883 61.5357 175.331 60.6876 177.806C61.3771 178.496 62.6871 177.758 63.3697 179.006C59.7568 179.309 59.0053 181.736 59.1639 184.77Z" fill="#FFB590"/>
<path d="M280.41 173.103C280.41 174.165 280.458 174.627 280.41 175.082C280.224 176.557 281.1 178.722 278.852 179.081C276.604 179.439 275.756 177.391 275.198 175.633C274.184 172.462 275.694 169.531 276.652 166.67C277.087 165.36 278.638 165.16 279.41 166.96C280.26 168.889 280.604 171.003 280.41 173.103Z" fill="#FFB590"/>
<path d="M283.802 180.232C280.32 183.769 277.845 184.162 272.771 181.577C277.169 182.218 280.617 182.37 283.802 180.232Z" fill="#692C26"/>
<path d="M290.118 156.929C287.291 157.232 284.912 158.556 282.265 161.362C284.064 157.191 285.629 156.377 290.118 156.929Z" fill="#692C26"/>
<path d="M270.509 161.326C267.834 161.14 265.414 161.575 263.062 164.422C265.234 160.009 266.827 159.451 270.509 161.326Z" fill="#692C26"/>
<path d="M284.664 166.306C284.016 164.348 284.747 163.452 286.043 163.052C287.539 162.597 288.622 163.196 289.456 165.244C287.381 164.017 285.622 163.514 284.664 166.306Z" fill="#692C26"/>
<path d="M267.116 168.029C266.889 167.65 266.654 167.271 266.427 166.892C268.75 164.279 269.412 164.299 271.832 167.636C269.812 166.692 267.875 164.775 267.116 168.029Z" fill="#692C26"/>
<path d="M43.9954 181.653C43.5955 183.721 43.1267 186.031 40.5481 186.052C38.1694 186.052 37.0179 184.245 37.0317 181.853C36.9592 179.68 37.0006 177.505 37.1558 175.337C37.3075 174.027 37.8453 172.579 39.5897 172.434C41.3341 172.29 41.9615 173.655 42.3476 174.965C43.0095 177.144 43.437 179.384 43.9954 181.653Z" fill="#FFB590"/>
<path d="M21.6016 171.787C23.3804 166.961 27.5448 165.471 31.3163 167.885C32.0057 168.346 33.0813 168.85 32.578 170.001C32.0747 171.153 31.1991 170.691 30.2614 170.38C26.2624 169.022 25.3385 169.174 21.6016 171.787Z" fill="#390806"/>
<path d="M53.2345 165.16C52.106 164.719 50.8711 164.625 49.6889 164.892C48.5067 165.159 47.4315 165.773 46.6018 166.657C46.0019 167.229 45.3263 167.739 44.5334 166.981C43.7405 166.222 44.0369 165.367 44.6299 164.567C46.5949 161.913 50.9455 162.016 53.2345 165.16Z" fill="#310B04"/>
<path d="M51.4003 172.524C51.4003 173.744 50.766 174.723 49.6973 174.813C48.0633 174.944 47.753 173.434 47.5738 172.255C47.3945 171.076 48.1253 170.304 49.3595 170.297C50.8488 170.29 51.1177 171.462 51.4003 172.524Z" fill="#3E0908"/>
<path d="M27.7723 178.564C26.3934 178.336 25.9797 177.343 25.9935 176.082C25.9935 175.103 26.2624 174.068 27.3724 174.048C28.7514 174.013 29.3581 175.068 29.4409 176.33C29.4891 177.454 29.0892 178.357 27.7723 178.564Z" fill="#310A05"/>
<path d="M40.9268 197.077C38.5757 196.918 36.4728 196.491 34.7215 195.008C34.032 194.422 33.1288 193.815 33.6252 192.767C34.1216 191.719 35.1834 192.119 36.0315 192.402C39.2858 193.484 42.4919 193.822 45.6428 192.05C46.2495 191.713 46.9528 191.54 47.4837 192.223C48.1042 193.029 47.6629 193.774 47.1665 194.395C45.5394 196.422 43.2365 196.953 40.9268 197.077Z" fill="#F8E9E7"/>
<path d="M167.328 185.775C167.328 182.803 169.734 180.052 172.389 179.977C173.101 179.982 173.805 180.13 174.459 180.411C175.113 180.693 175.703 181.104 176.196 181.618C176.688 182.132 177.072 182.74 177.326 183.406C177.579 184.071 177.696 184.781 177.67 185.492C177.67 188.94 175.478 191.629 172.61 191.698C169.741 191.767 167.314 189.085 167.328 185.775Z" fill="#FFB590"/>
<path d="M159.007 191.664C156.936 191.517 154.946 190.801 153.257 189.595C152.615 189.099 152.009 188.458 152.36 187.527C152.712 186.596 153.739 186.72 154.429 186.879C157.814 187.63 161.144 188.32 164.405 186.382C164.719 186.221 165.084 186.19 165.42 186.297C165.756 186.405 166.036 186.641 166.198 186.955C166.701 187.699 166.198 188.237 165.75 188.761C163.978 190.85 161.544 191.402 159.007 191.664Z" fill="#FEF4EE"/>
<path d="M155.615 180.978C156.208 179.24 156.945 177.11 159.062 176.889C160.62 176.724 161.089 178.626 160.931 179.992C160.689 182.06 159.469 183.777 157.297 183.935C155.601 184.08 155.587 182.439 155.615 180.978Z" fill="#FFB590"/>
<path d="M176.244 169.601C174.462 168.453 172.335 167.965 170.232 168.222C169.542 168.298 168.735 168.402 168.639 167.464C168.549 166.678 169.225 166.361 169.908 166.085C172.624 165.085 175.085 166.292 176.244 169.601Z" fill="#350F09"/>
<path d="M156.697 175.4C155.118 173.787 156.697 171.374 154.587 170.905C152.981 170.546 152.891 172.822 151.491 173.401C151.002 171.518 152.181 170.601 153.401 169.788C153.786 169.527 154.25 169.411 154.712 169.46C155.174 169.51 155.604 169.721 155.925 170.057C157.476 171.484 157.242 173.187 156.697 175.4Z" fill="#6A3C34"/>
<path d="M165.743 177.288C166.571 174.64 167.653 172.8 170.101 173.31C172.548 173.82 172.507 175.854 171.955 178.205C170.576 177.033 171.728 174.758 169.749 174.489C167.77 174.22 167.75 176.495 165.743 177.288Z" fill="#692C26"/>
<rect x="316" y="172" width="8" height="6" fill="#FFBE9D"/>
<path d="M315 180C311 183.5 310.5 181.5 310.5 180.5C310.5 177.5 313 174 315.5 171C320.064 171 318.759 176.241 318 177C317 178 317 178 315 180Z" fill="#F5B391"/>
<path d="M320.581 176.659C321.081 175.659 320.964 175.692 321.41 175.224C322.509 174.07 325.112 173.569 325.415 174.444C326.105 176.272 323.41 178.224 321.91 179.224C321.41 179.224 320.853 178.931 320.581 178.659C320.309 178.387 320.156 178.308 320.081 178.159C319.805 177.607 320.302 177.217 320.581 176.659Z" fill="#ECA37D"/>
<defs>
<linearGradient id="paint0_linear_1_10874" x1="186" y1="10.5" x2="185.858" y2="192.958" gradientUnits="userSpaceOnUse">
<stop stop-color="#3B1F9A"/>
<stop offset="0.484375" stop-color="#9E3F94"/>
<stop offset="1" stop-color="#FFC490"/>
</linearGradient>
<linearGradient id="paint1_linear_1_10874" x1="348.578" y1="202.646" x2="348.578" y2="209.479" gradientUnits="userSpaceOnUse">
<stop stop-color="#3B1F9A"/>
<stop offset="1" stop-color="#523F94" stop-opacity="0"/>
</linearGradient>
<linearGradient id="paint2_linear_1_10874" x1="319.575" y1="193.59" x2="319.575" y2="216.457" gradientUnits="userSpaceOnUse">
<stop stop-color="#3B1F9A"/>
<stop offset="1" stop-color="#523F94" stop-opacity="0"/>
</linearGradient>
</defs>
</svg>
