<svg xmlns="http://www.w3.org/2000/svg" viewBox="0 0 47.62 47.62"><defs><style>.cls-1,.cls-3{fill:#f4a8a8;}.cls-2{fill:#f5f3ff;}.cls-3{font-size:8px;font-family:Montserrat-Regular, Montserrat;}.cls-4{letter-spacing:-0.01em;}.cls-5{letter-spacing:-0.01em;}.cls-6{letter-spacing:0em;}</style></defs><g id="Layer_2" data-name="Layer 2"><g id="Layer_1-2" data-name="Layer 1"><path class="cls-1" d="M35,44h0a4.58,4.58,0,0,1,3.13-2.09h0a4.52,4.52,0,0,0,3.74-3.74h0A4.58,4.58,0,0,1,44,35a4.53,4.53,0,0,0,2-4.89h0a4.56,4.56,0,0,1,.73-3.69h0a4.53,4.53,0,0,0,0-5.3h0A4.57,4.57,0,0,1,46,17.47h0a4.52,4.52,0,0,0-2-4.89h0a4.58,4.58,0,0,1-2.09-3.13h0A4.54,4.54,0,0,0,38.17,5.7h0A4.52,4.52,0,0,1,35,3.61h0a4.54,4.54,0,0,0-4.89-2h0A4.53,4.53,0,0,1,26.46.85h0a4.57,4.57,0,0,0-5.3,0h0a4.53,4.53,0,0,1-3.69.74h0a4.52,4.52,0,0,0-4.89,2A4.52,4.52,0,0,1,9.45,5.7h0A4.57,4.57,0,0,0,5.7,9.45h0a4.52,4.52,0,0,1-2.09,3.13h0a4.52,4.52,0,0,0-2,4.89h0a4.53,4.53,0,0,1-.74,3.69h0a4.57,4.57,0,0,0,0,5.3h0a4.53,4.53,0,0,1,.74,3.69h0a4.54,4.54,0,0,0,2,4.89h0A4.52,4.52,0,0,1,5.7,38.17h0a4.54,4.54,0,0,0,3.75,3.74h0A4.58,4.58,0,0,1,12.58,44h0a4.52,4.52,0,0,0,4.89,2h0a4.57,4.57,0,0,1,3.69.73h0a4.53,4.53,0,0,0,5.3,0h0A4.56,4.56,0,0,1,30.15,46h0A4.53,4.53,0,0,0,35,44Z"/><circle class="cls-2" cx="23.81" cy="23.81" r="19.63"/><path class="cls-2" d="M23.83,44.92h0c-.68,0-1.37,0-2-.09a.21.21,0,0,1-.18-.23.2.2,0,0,1,.22-.18,19.19,19.19,0,0,0,2,.1.21.21,0,0,1,.21.2A.19.19,0,0,1,23.83,44.92Zm2.05-.1a.2.2,0,0,1-.2-.18.2.2,0,0,1,.18-.22c.67-.07,1.35-.17,2-.3a.21.21,0,0,1,.24.16.21.21,0,0,1-.16.24c-.67.13-1.36.23-2.05.3Zm-6.13-.29h0c-.67-.14-1.35-.3-2-.5a.22.22,0,0,1-.13-.26.2.2,0,0,1,.25-.13c.65.19,1.31.36,2,.49a.2.2,0,0,1,0,.4ZM29.9,44a.2.2,0,0,1-.2-.14.2.2,0,0,1,.14-.25c.65-.2,1.29-.43,1.91-.69a.21.21,0,0,1,.16.38c-.64.26-1.29.49-1.95.7Zm-14.07-.67-.08,0c-.63-.26-1.26-.56-1.87-.88a.2.2,0,0,1-.08-.28.2.2,0,0,1,.27-.08c.6.32,1.22.61,1.84.87a.2.2,0,0,1,.11.26A.21.21,0,0,1,15.83,43.35Zm17.85-.9a.21.21,0,0,1-.18-.11.2.2,0,0,1,.09-.27c.59-.32,1.18-.67,1.74-1a.2.2,0,1,1,.22.34c-.57.38-1.17.74-1.77,1.07Zm-21.46-1a.19.19,0,0,1-.12,0,19.77,19.77,0,0,1-1.66-1.23.2.2,0,0,1,0-.28.21.21,0,0,1,.29,0c.52.43,1.07.83,1.63,1.21a.2.2,0,0,1,.05.28A.19.19,0,0,1,12.22,41.42Zm24.87-1.25a.24.24,0,0,1-.16-.07.21.21,0,0,1,0-.29c.52-.43,1-.89,1.5-1.36a.21.21,0,0,1,.29,0,.19.19,0,0,1,0,.28,18.4,18.4,0,0,1-1.54,1.39A.15.15,0,0,1,37.09,40.17ZM9,38.82a.2.2,0,0,1-.14-.06c-.48-.48-1-1-1.39-1.53A.2.2,0,0,1,7.82,37c.43.52.89,1,1.37,1.51a.19.19,0,0,1,0,.28A.2.2,0,0,1,9,38.82ZM40,37.27a.18.18,0,0,1-.13-.05.2.2,0,0,1,0-.28c.43-.52.84-1.07,1.22-1.63a.2.2,0,1,1,.33.22,20.52,20.52,0,0,1-1.23,1.67A.2.2,0,0,1,40,37.27ZM6.44,35.66a.2.2,0,0,1-.17-.09C5.89,35,5.53,34.4,5.2,33.8a.21.21,0,0,1,.08-.28.22.22,0,0,1,.28.08,19.12,19.12,0,0,0,1.05,1.74.22.22,0,0,1-.06.29A.2.2,0,0,1,6.44,35.66Zm35.82-1.8a.18.18,0,0,1-.1,0,.2.2,0,0,1-.08-.27c.32-.6.61-1.22.87-1.84a.2.2,0,0,1,.26-.11.2.2,0,0,1,.11.27c-.26.63-.56,1.26-.88,1.87A.2.2,0,0,1,42.26,33.86ZM4.5,32.05a.21.21,0,0,1-.19-.12c-.26-.64-.5-1.29-.7-1.95a.22.22,0,0,1,.13-.26.22.22,0,0,1,.26.14,18.94,18.94,0,0,0,.69,1.91.22.22,0,0,1-.11.27Zm39.33-2h-.06a.2.2,0,0,1-.14-.25,19.54,19.54,0,0,0,.49-2,.2.2,0,0,1,.24-.16.21.21,0,0,1,.16.24,20.34,20.34,0,0,1-.5,2A.2.2,0,0,1,43.83,30.08ZM3.3,28.13A.2.2,0,0,1,3.1,28c-.13-.67-.23-1.36-.3-2a.2.2,0,0,1,.4,0c.07.67.17,1.35.3,2a.21.21,0,0,1-.16.24Zm41.32-2.07h0a.2.2,0,0,1-.18-.22,19.57,19.57,0,0,0,.1-2v-.09a.2.2,0,0,1,.2-.2h0a.2.2,0,0,1,.2.2v.09a20.49,20.49,0,0,1-.1,2.07A.2.2,0,0,1,44.62,26.06Zm-41.72-2a.21.21,0,0,1-.21-.21v0c0-.68,0-1.36.1-2A.21.21,0,0,1,3,21.6a.2.2,0,0,1,.18.22c-.06.66-.09,1.33-.09,2v0A.2.2,0,0,1,2.9,24.06Zm41.71-2.18a.21.21,0,0,1-.2-.19c-.07-.67-.17-1.34-.3-2a.21.21,0,0,1,.16-.24.21.21,0,0,1,.24.16c.13.67.24,1.36.31,2a.2.2,0,0,1-.19.22ZM3.29,20h0a.2.2,0,0,1-.16-.23c.13-.68.3-1.35.49-2a.22.22,0,0,1,.26-.14.2.2,0,0,1,.13.25c-.19.65-.36,1.31-.49,2A.19.19,0,0,1,3.29,20ZM43.8,17.86a.2.2,0,0,1-.19-.14c-.2-.65-.43-1.29-.69-1.91a.2.2,0,0,1,.1-.27.21.21,0,0,1,.27.11c.27.64.5,1.29.71,2a.2.2,0,0,1-.14.25ZM4.46,16.05H4.39a.2.2,0,0,1-.11-.27c.26-.63.56-1.26.88-1.87a.19.19,0,0,1,.27-.08.2.2,0,0,1,.09.27c-.32.6-.61,1.21-.87,1.84A.2.2,0,0,1,4.46,16.05Zm37.76-2A.22.22,0,0,1,42,14c-.32-.6-.68-1.18-1-1.74a.2.2,0,0,1,.33-.23c.39.57.75,1.17,1.08,1.77a.21.21,0,0,1-.09.28ZM6.39,12.44a.15.15,0,0,1-.11,0,.2.2,0,0,1-.06-.28c.38-.57.8-1.13,1.23-1.66a.2.2,0,0,1,.32.25,17.77,17.77,0,0,0-1.21,1.64A.22.22,0,0,1,6.39,12.44Zm33.54-1.75a.21.21,0,0,1-.16-.08c-.43-.52-.89-1-1.37-1.5a.19.19,0,0,1,0-.28.2.2,0,0,1,.28,0c.49.49,1,1,1.4,1.53a.21.21,0,0,1,0,.29A.18.18,0,0,1,39.93,10.69ZM9,9.26a.2.2,0,0,1-.14-.06.19.19,0,0,1,0-.28c.49-.49,1-1,1.53-1.4a.21.21,0,0,1,.29,0,.22.22,0,0,1,0,.29A19.36,19.36,0,0,0,9.13,9.2.2.2,0,0,1,9,9.26ZM37,7.8a.21.21,0,0,1-.13,0,19.71,19.71,0,0,0-1.64-1.2.2.2,0,0,1,0-.28.2.2,0,0,1,.28-.06c.57.38,1.13.79,1.67,1.23a.19.19,0,0,1,0,.28A.19.19,0,0,1,37,7.8ZM12.14,6.65A.2.2,0,0,1,12,6.28c.57-.38,1.17-.74,1.77-1.07a.22.22,0,0,1,.28.08.21.21,0,0,1-.09.28c-.59.32-1.17.67-1.73,1ZM33.6,5.53l-.09,0c-.6-.32-1.22-.61-1.84-.87a.2.2,0,1,1,.15-.37c.64.26,1.27.56,1.88.88a.2.2,0,0,1-.1.38ZM15.75,4.71a.21.21,0,0,1-.19-.13.2.2,0,0,1,.11-.26,19.71,19.71,0,0,1,2-.7.19.19,0,0,1,.25.13.19.19,0,0,1-.13.25c-.65.2-1.29.43-1.91.69ZM29.81,4h0a19.08,19.08,0,0,0-2-.49.2.2,0,0,1,.08-.4,19.67,19.67,0,0,1,2,.5.2.2,0,0,1,.14.25A.21.21,0,0,1,29.81,4ZM19.67,3.51a.2.2,0,0,1,0-.4,19.86,19.86,0,0,1,2.05-.31.2.2,0,0,1,0,.4,19.1,19.1,0,0,0-2,.31Zm6.12-.32h0c-.64-.06-1.31-.09-2-.09h-.07a.2.2,0,0,1-.2-.2.21.21,0,0,1,.2-.21h.07c.67,0,1.34,0,2,.1A.2.2,0,0,1,26,3,.2.2,0,0,1,25.79,3.19Z"/><rect class="cls-1" x="4.2" y="27.7" width="39.21" height="1.22"/><rect class="cls-1" x="4.2" y="18.78" width="39.21" height="1.22"/><text class="cls-3" transform="translate(9.96 26.9)"><tspan class="cls-4">G</tspan><tspan x="6" y="0">A</tspan><tspan class="cls-5" x="11.94" y="0">G</tspan><tspan class="cls-6" x="17.94" y="0">AL</tspan></text></g></g></svg>